<svg xmlns="http://www.w3.org/2000/svg" xmlns:xlink="http://www.w3.org/1999/xlink" contentStyleType="text/css" height="1195px" preserveAspectRatio="none" style="width:3234px;height:1195px;background:#FFFFFF;" version="1.1" viewBox="0 0 3234 1195" width="3234px" zoomAndPan="magnify"><defs/><g><!--class EdgeAPI--><g id="elem_EdgeAPI"><rect codeLine="2" fill="#F1F1F1" height="86.1358" id="EdgeAPI" rx="2.5" ry="2.5" style="stroke:#181818;stroke-width:0.5;" width="695" x="7" y="134"/><ellipse cx="322.25" cy="150" fill="#ADD1B2" rx="11" ry="11" style="stroke:#181818;stroke-width:1.0;"/><path d="M325.2188,155.6406 Q324.6406,155.9375 324,156.0781 Q323.3594,156.2344 322.6563,156.2344 Q320.1563,156.2344 318.8281,154.5938 Q317.5156,152.9375 317.5156,149.8125 Q317.5156,146.6875 318.8281,145.0313 Q320.1563,143.375 322.6563,143.375 Q323.3594,143.375 324,143.5313 Q324.6563,143.6875 325.2188,143.9844 L325.2188,146.7031 Q324.5938,146.125 324,145.8594 Q323.4063,145.5781 322.7813,145.5781 Q321.4375,145.5781 320.75,146.6563 Q320.0625,147.7188 320.0625,149.8125 Q320.0625,151.9063 320.75,152.9844 Q321.4375,154.0469 322.7813,154.0469 Q323.4063,154.0469 324,153.7813 Q324.5938,153.5 325.2188,152.9219 L325.2188,155.6406 Z " fill="#000000"/><text fill="#000000" font-family="sans-serif" font-size="14" lengthAdjust="spacing" textLength="56" x="342.75" y="155.432">EdgeAPI</text><line style="stroke:#181818;stroke-width:0.5;" x1="8" x2="701" y1="166" y2="166"/><line style="stroke:#181818;stroke-width:0.5;" x1="8" x2="701" y1="174" y2="174"/><text fill="#000000" font-family="sans-serif" font-size="14" lengthAdjust="spacing" textLength="288" x="13" y="192.9659">result requestEdgeProc(Function F, Data D)</text><text fill="#000000" font-family="sans-serif" font-size="14" lengthAdjust="spacing" textLength="683" x="13" y="212.0339">result requestEdgeProc(Function F, PrivateData PD, Contract C, Consent Cons(F on PD), AccessToken T)</text></g><!--class PrivacyZoneMgr--><g id="elem_PrivacyZoneMgr"><rect codeLine="6" fill="#F1F1F1" height="67.0679" id="PrivacyZoneMgr" rx="2.5" ry="2.5" style="stroke:#181818;stroke-width:0.5;" width="354" x="309.5" y="434"/><ellipse cx="428.25" cy="450" fill="#ADD1B2" rx="11" ry="11" style="stroke:#181818;stroke-width:1.0;"/><path d="M431.2188,455.6406 Q430.6406,455.9375 430,456.0781 Q429.3594,456.2344 428.6563,456.2344 Q426.1563,456.2344 424.8281,454.5938 Q423.5156,452.9375 423.5156,449.8125 Q423.5156,446.6875 424.8281,445.0313 Q426.1563,443.375 428.6563,443.375 Q429.3594,443.375 430,443.5313 Q430.6563,443.6875 431.2188,443.9844 L431.2188,446.7031 Q430.5938,446.125 430,445.8594 Q429.4063,445.5781 428.7813,445.5781 Q427.4375,445.5781 426.75,446.6563 Q426.0625,447.7188 426.0625,449.8125 Q426.0625,451.9063 426.75,452.9844 Q427.4375,454.0469 428.7813,454.0469 Q429.4063,454.0469 430,453.7813 Q430.5938,453.5 431.2188,452.9219 L431.2188,455.6406 Z " fill="#000000"/><text fill="#000000" font-family="sans-serif" font-size="14" lengthAdjust="spacing" textLength="108" x="448.75" y="455.432">PrivacyZoneMgr</text><line style="stroke:#181818;stroke-width:0.5;" x1="310.5" x2="662.5" y1="466" y2="466"/><line style="stroke:#181818;stroke-width:0.5;" x1="310.5" x2="662.5" y1="474" y2="474"/><text fill="#000000" font-family="sans-serif" font-size="14" lengthAdjust="spacing" textLength="342" x="315.5" y="492.9659">PZdata getPZdata(DataProvider DP, PrivateData PD)</text></g><!--class PDC--><g id="elem_PDC"><rect codeLine="9" fill="#F1F1F1" height="105.2038" id="PDC" rx="2.5" ry="2.5" style="stroke:#181818;stroke-width:0.5;" width="518" x="801.5" y="696"/><ellipse cx="1042.75" cy="712" fill="#ADD1B2" rx="11" ry="11" style="stroke:#181818;stroke-width:1.0;"/><path d="M1045.7188,717.6406 Q1045.1406,717.9375 1044.5,718.0781 Q1043.8594,718.2344 1043.1563,718.2344 Q1040.6563,718.2344 1039.3281,716.5938 Q1038.0156,714.9375 1038.0156,711.8125 Q1038.0156,708.6875 1039.3281,707.0313 Q1040.6563,705.375 1043.1563,705.375 Q1043.8594,705.375 1044.5,705.5313 Q1045.1563,705.6875 1045.7188,705.9844 L1045.7188,708.7031 Q1045.0938,708.125 1044.5,707.8594 Q1043.9063,707.5781 1043.2813,707.5781 Q1041.9375,707.5781 1041.25,708.6563 Q1040.5625,709.7188 1040.5625,711.8125 Q1040.5625,713.9063 1041.25,714.9844 Q1041.9375,716.0469 1043.2813,716.0469 Q1043.9063,716.0469 1044.5,715.7813 Q1045.0938,715.5 1045.7188,714.9219 L1045.7188,717.6406 Z " fill="#000000"/><text fill="#000000" font-family="sans-serif" font-size="14" lengthAdjust="spacing" textLength="27" x="1063.25" y="717.432">PDC</text><line style="stroke:#181818;stroke-width:0.5;" x1="802.5" x2="1318.5" y1="728" y2="728"/><line style="stroke:#181818;stroke-width:0.5;" x1="802.5" x2="1318.5" y1="736" y2="736"/><text fill="#000000" font-family="sans-serif" font-size="14" lengthAdjust="spacing" textLength="170" x="807.5" y="754.9659">data requestData(Data D)</text><text fill="#000000" font-family="sans-serif" font-size="14" lengthAdjust="spacing" textLength="506" x="807.5" y="774.0339">data requestPrivateData(PrivateData PD, Contract C, Consent Cons(F on PD))</text><text fill="#000000" font-family="sans-serif" font-size="14" lengthAdjust="spacing" textLength="247" x="807.5" y="793.1018">function requestFunction(Function F)</text></g><!--class PrivacyPreservingPDC--><g id="elem_PrivacyPreservingPDC"><rect codeLine="14" fill="#F1F1F1" height="143.3396" id="PrivacyPreservingPDC" rx="2.5" ry="2.5" style="stroke:#181818;stroke-width:0.5;" width="607" x="680" y="880"/><ellipse cx="906.25" cy="896" fill="#ADD1B2" rx="11" ry="11" style="stroke:#181818;stroke-width:1.0;"/><path d="M909.2188,901.6406 Q908.6406,901.9375 908,902.0781 Q907.3594,902.2344 906.6563,902.2344 Q904.1563,902.2344 902.8281,900.5938 Q901.5156,898.9375 901.5156,895.8125 Q901.5156,892.6875 902.8281,891.0313 Q904.1563,889.375 906.6563,889.375 Q907.3594,889.375 908,889.5313 Q908.6563,889.6875 909.2188,889.9844 L909.2188,892.7031 Q908.5938,892.125 908,891.8594 Q907.4063,891.5781 906.7813,891.5781 Q905.4375,891.5781 904.75,892.6563 Q904.0625,893.7188 904.0625,895.8125 Q904.0625,897.9063 904.75,898.9844 Q905.4375,900.0469 906.7813,900.0469 Q907.4063,900.0469 908,899.7813 Q908.5938,899.5 909.2188,898.9219 L909.2188,901.6406 Z " fill="#000000"/><text fill="#000000" font-family="sans-serif" font-size="14" lengthAdjust="spacing" textLength="146" x="926.75" y="901.432">PrivacyPreservingPDC</text><line style="stroke:#181818;stroke-width:0.5;" x1="681" x2="1286" y1="912" y2="912"/><line style="stroke:#181818;stroke-width:0.5;" x1="681" x2="1286" y1="920" y2="920"/><text fill="#000000" font-family="sans-serif" font-size="14" lengthAdjust="spacing" textLength="170" x="686" y="938.9659">data requestData(Data D)</text><text fill="#000000" font-family="sans-serif" font-size="14" lengthAdjust="spacing" textLength="506" x="686" y="958.0339">data requestPrivateData(PrivateData PD, Contract C, Consent Cons(F on PD))</text><text fill="#000000" font-family="sans-serif" font-size="14" lengthAdjust="spacing" textLength="247" x="686" y="977.1018">function requestFunction(Function F)</text><text fill="#000000" font-family="sans-serif" font-size="14" lengthAdjust="spacing" textLength="334" x="686" y="996.1697">PZdata getPZdata(DataProvider DP, PrivateData D)</text><text fill="#000000" font-family="sans-serif" font-size="14" lengthAdjust="spacing" textLength="595" x="686" y="1015.2376">data requestData/wPrivacyPreserving(PrivateData PD, Contract C, Consent Cons(F on PD))</text></g><!--class Catalog--><g id="elem_Catalog"><rect codeLine="21" fill="#F1F1F1" height="86.1358" id="Catalog" rx="2.5" ry="2.5" style="stroke:#181818;stroke-width:0.5;" width="259" x="121" y="1102"/><ellipse cx="220.75" cy="1118" fill="#ADD1B2" rx="11" ry="11" style="stroke:#181818;stroke-width:1.0;"/><path d="M223.7188,1123.6406 Q223.1406,1123.9375 222.5,1124.0781 Q221.8594,1124.2344 221.1563,1124.2344 Q218.6563,1124.2344 217.3281,1122.5938 Q216.0156,1120.9375 216.0156,1117.8125 Q216.0156,1114.6875 217.3281,1113.0313 Q218.6563,1111.375 221.1563,1111.375 Q221.8594,1111.375 222.5,1111.5313 Q223.1563,1111.6875 223.7188,1111.9844 L223.7188,1114.7031 Q223.0938,1114.125 222.5,1113.8594 Q221.9063,1113.5781 221.2813,1113.5781 Q219.9375,1113.5781 219.25,1114.6563 Q218.5625,1115.7188 218.5625,1117.8125 Q218.5625,1119.9063 219.25,1120.9844 Q219.9375,1122.0469 221.2813,1122.0469 Q221.9063,1122.0469 222.5,1121.7813 Q223.0938,1121.5 223.7188,1120.9219 L223.7188,1123.6406 Z " fill="#000000"/><text fill="#000000" font-family="sans-serif" font-size="14" lengthAdjust="spacing" textLength="51" x="241.25" y="1123.432">Catalog</text><line style="stroke:#181818;stroke-width:0.5;" x1="122" x2="379" y1="1134" y2="1134"/><line style="stroke:#181818;stroke-width:0.5;" x1="122" x2="379" y1="1142" y2="1142"/><text fill="#000000" font-family="sans-serif" font-size="14" lengthAdjust="spacing" textLength="238" x="127" y="1160.9659">DataProvider getAccessInfo(Data D)</text><text fill="#000000" font-family="sans-serif" font-size="14" lengthAdjust="spacing" textLength="247" x="127" y="1180.0339">function requestFunction(Function F)</text></g><!--class Contract--><g id="elem_Contract"><rect codeLine="25" fill="#F1F1F1" height="86.1358" id="Contract" rx="2.5" ry="2.5" style="stroke:#181818;stroke-width:0.5;" width="399" x="967" y="1102"/><ellipse cx="1133.75" cy="1118" fill="#ADD1B2" rx="11" ry="11" style="stroke:#181818;stroke-width:1.0;"/><path d="M1136.7188,1123.6406 Q1136.1406,1123.9375 1135.5,1124.0781 Q1134.8594,1124.2344 1134.1563,1124.2344 Q1131.6563,1124.2344 1130.3281,1122.5938 Q1129.0156,1120.9375 1129.0156,1117.8125 Q1129.0156,1114.6875 1130.3281,1113.0313 Q1131.6563,1111.375 1134.1563,1111.375 Q1134.8594,1111.375 1135.5,1111.5313 Q1136.1563,1111.6875 1136.7188,1111.9844 L1136.7188,1114.7031 Q1136.0938,1114.125 1135.5,1113.8594 Q1134.9063,1113.5781 1134.2813,1113.5781 Q1132.9375,1113.5781 1132.25,1114.6563 Q1131.5625,1115.7188 1131.5625,1117.8125 Q1131.5625,1119.9063 1132.25,1120.9844 Q1132.9375,1122.0469 1134.2813,1122.0469 Q1134.9063,1122.0469 1135.5,1121.7813 Q1136.0938,1121.5 1136.7188,1120.9219 L1136.7188,1123.6406 Z " fill="#000000"/><text fill="#000000" font-family="sans-serif" font-size="14" lengthAdjust="spacing" textLength="57" x="1154.25" y="1123.432">Contract</text><line style="stroke:#181818;stroke-width:0.5;" x1="968" x2="1365" y1="1134" y2="1134"/><line style="stroke:#181818;stroke-width:0.5;" x1="968" x2="1365" y1="1142" y2="1142"/><text fill="#000000" font-family="sans-serif" font-size="14" lengthAdjust="spacing" textLength="380" x="973" y="1160.9659">status verifyContract(DataProvider DP, CloudProvider CP)</text><text fill="#000000" font-family="sans-serif" font-size="14" lengthAdjust="spacing" textLength="387" x="973" y="1180.0339">status verifyContract(DataProvider DP, DataConsumer DC)</text></g><!--class Consent--><g id="elem_Consent"><rect codeLine="29" fill="#F1F1F1" height="67.0679" id="Consent" rx="2.5" ry="2.5" style="stroke:#181818;stroke-width:0.5;" width="503" x="415" y="1111.5"/><ellipse cx="634.75" cy="1127.5" fill="#ADD1B2" rx="11" ry="11" style="stroke:#181818;stroke-width:1.0;"/><path d="M637.7188,1133.1406 Q637.1406,1133.4375 636.5,1133.5781 Q635.8594,1133.7344 635.1563,1133.7344 Q632.6563,1133.7344 631.3281,1132.0938 Q630.0156,1130.4375 630.0156,1127.3125 Q630.0156,1124.1875 631.3281,1122.5313 Q632.6563,1120.875 635.1563,1120.875 Q635.8594,1120.875 636.5,1121.0313 Q637.1563,1121.1875 637.7188,1121.4844 L637.7188,1124.2031 Q637.0938,1123.625 636.5,1123.3594 Q635.9063,1123.0781 635.2813,1123.0781 Q633.9375,1123.0781 633.25,1124.1563 Q632.5625,1125.2188 632.5625,1127.3125 Q632.5625,1129.4063 633.25,1130.4844 Q633.9375,1131.5469 635.2813,1131.5469 Q635.9063,1131.5469 636.5,1131.2813 Q637.0938,1131 637.7188,1130.4219 L637.7188,1133.1406 Z " fill="#000000"/><text fill="#000000" font-family="sans-serif" font-size="14" lengthAdjust="spacing" textLength="55" x="655.25" y="1132.932">Consent</text><line style="stroke:#181818;stroke-width:0.5;" x1="416" x2="917" y1="1143.5" y2="1143.5"/><line style="stroke:#181818;stroke-width:0.5;" x1="416" x2="917" y1="1151.5" y2="1151.5"/><text fill="#000000" font-family="sans-serif" font-size="14" lengthAdjust="spacing" textLength="491" x="421" y="1170.4659">status verifyConsent(DataProvider DP, User U, PrivateData PD, Function F)</text></g><!--class DataProvider--><g id="elem_DataProvider"><rect codeLine="32" fill="#F1F1F1" height="67.0679" id="DataProvider" rx="2.5" ry="2.5" style="stroke:#181818;stroke-width:0.5;" width="152" x="1429.5" y="1111.5"/><ellipse cx="1459.35" cy="1127.5" fill="#ADD1B2" rx="11" ry="11" style="stroke:#181818;stroke-width:1.0;"/><path d="M1462.3188,1133.1406 Q1461.7406,1133.4375 1461.1,1133.5781 Q1460.4594,1133.7344 1459.7563,1133.7344 Q1457.2563,1133.7344 1455.9281,1132.0938 Q1454.6156,1130.4375 1454.6156,1127.3125 Q1454.6156,1124.1875 1455.9281,1122.5313 Q1457.2563,1120.875 1459.7563,1120.875 Q1460.4594,1120.875 1461.1,1121.0313 Q1461.7563,1121.1875 1462.3188,1121.4844 L1462.3188,1124.2031 Q1461.6938,1123.625 1461.1,1123.3594 Q1460.5063,1123.0781 1459.8813,1123.0781 Q1458.5375,1123.0781 1457.85,1124.1563 Q1457.1625,1125.2188 1457.1625,1127.3125 Q1457.1625,1129.4063 1457.85,1130.4844 Q1458.5375,1131.5469 1459.8813,1131.5469 Q1460.5063,1131.5469 1461.1,1131.2813 Q1461.6938,1131 1462.3188,1130.4219 L1462.3188,1133.1406 Z " fill="#000000"/><text fill="#000000" font-family="sans-serif" font-size="14" lengthAdjust="spacing" textLength="87" x="1476.65" y="1132.932">DataProvider</text><line style="stroke:#181818;stroke-width:0.5;" x1="1430.5" x2="1580.5" y1="1143.5" y2="1143.5"/><line style="stroke:#181818;stroke-width:0.5;" x1="1430.5" x2="1580.5" y1="1151.5" y2="1151.5"/><text fill="#000000" font-family="sans-serif" font-size="14" lengthAdjust="spacing" textLength="140" x="1435.5" y="1170.4659">data getData(Data D)</text></g><!--class ProcessingBBtheDataConsumer--><g id="elem_ProcessingBBtheDataConsumer"><rect codeLine="35" fill="#F1F1F1" height="48" id="ProcessingBBtheDataConsumer" rx="2.5" ry="2.5" style="stroke:#181818;stroke-width:0.5;" width="245" x="232" y="7"/><ellipse cx="247" cy="23" fill="#ADD1B2" rx="11" ry="11" style="stroke:#181818;stroke-width:1.0;"/><path d="M249.9688,28.6406 Q249.3906,28.9375 248.75,29.0781 Q248.1094,29.2344 247.4063,29.2344 Q244.9063,29.2344 243.5781,27.5938 Q242.2656,25.9375 242.2656,22.8125 Q242.2656,19.6875 243.5781,18.0313 Q244.9063,16.375 247.4063,16.375 Q248.1094,16.375 248.75,16.5313 Q249.4063,16.6875 249.9688,16.9844 L249.9688,19.7031 Q249.3438,19.125 248.75,18.8594 Q248.1563,18.5781 247.5313,18.5781 Q246.1875,18.5781 245.5,19.6563 Q244.8125,20.7188 244.8125,22.8125 Q244.8125,24.9063 245.5,25.9844 Q246.1875,27.0469 247.5313,27.0469 Q248.1563,27.0469 248.75,26.7813 Q249.3438,26.5 249.9688,25.9219 L249.9688,28.6406 Z " fill="#000000"/><text fill="#000000" font-family="sans-serif" font-size="14" lengthAdjust="spacing" textLength="213" x="261" y="28.432">ProcessingBBtheDataConsumer</text><line style="stroke:#181818;stroke-width:0.5;" x1="233" x2="476" y1="39" y2="39"/><line style="stroke:#181818;stroke-width:0.5;" x1="233" x2="476" y1="47" y2="47"/></g><!--class Scheduler--><g id="elem_Scheduler"><rect codeLine="37" fill="#F1F1F1" height="105.2038" id="Scheduler" rx="2.5" ry="2.5" style="stroke:#181818;stroke-width:0.5;" width="695" x="1344" y="299"/><ellipse cx="1653.25" cy="315" fill="#ADD1B2" rx="11" ry="11" style="stroke:#181818;stroke-width:1.0;"/><path d="M1656.2188,320.6406 Q1655.6406,320.9375 1655,321.0781 Q1654.3594,321.2344 1653.6563,321.2344 Q1651.1563,321.2344 1649.8281,319.5938 Q1648.5156,317.9375 1648.5156,314.8125 Q1648.5156,311.6875 1649.8281,310.0313 Q1651.1563,308.375 1653.6563,308.375 Q1654.3594,308.375 1655,308.5313 Q1655.6563,308.6875 1656.2188,308.9844 L1656.2188,311.7031 Q1655.5938,311.125 1655,310.8594 Q1654.4063,310.5781 1653.7813,310.5781 Q1652.4375,310.5781 1651.75,311.6563 Q1651.0625,312.7188 1651.0625,314.8125 Q1651.0625,316.9063 1651.75,317.9844 Q1652.4375,319.0469 1653.7813,319.0469 Q1654.4063,319.0469 1655,318.7813 Q1655.5938,318.5 1656.2188,317.9219 L1656.2188,320.6406 Z " fill="#000000"/><text fill="#000000" font-family="sans-serif" font-size="14" lengthAdjust="spacing" textLength="68" x="1673.75" y="320.432">Scheduler</text><line style="stroke:#181818;stroke-width:0.5;" x1="1345" x2="2038" y1="331" y2="331"/><line style="stroke:#181818;stroke-width:0.5;" x1="1345" x2="2038" y1="339" y2="339"/><text fill="#000000" font-family="sans-serif" font-size="14" lengthAdjust="spacing" textLength="288" x="1350" y="357.9659">result requestEdgeProc(Function F, Data D)</text><text fill="#000000" font-family="sans-serif" font-size="14" lengthAdjust="spacing" textLength="683" x="1350" y="377.0339">result requestEdgeProc(Function F, PrivateData PD, Contract C, Consent Cons(F on PD), AccessToken T)</text><text fill="#000000" font-family="sans-serif" font-size="14" lengthAdjust="spacing" textLength="149" x="1350" y="396.1018">void schedule(artifact)</text></g><!--class ArtifactBuilder--><g id="elem_ArtifactBuilder"><rect codeLine="42" fill="#F1F1F1" height="86.1358" id="ArtifactBuilder" rx="2.5" ry="2.5" style="stroke:#181818;stroke-width:0.5;" width="673" x="1355" y="531"/><ellipse cx="1638.25" cy="547" fill="#ADD1B2" rx="11" ry="11" style="stroke:#181818;stroke-width:1.0;"/><path d="M1641.2188,552.6406 Q1640.6406,552.9375 1640,553.0781 Q1639.3594,553.2344 1638.6563,553.2344 Q1636.1563,553.2344 1634.8281,551.5938 Q1633.5156,549.9375 1633.5156,546.8125 Q1633.5156,543.6875 1634.8281,542.0313 Q1636.1563,540.375 1638.6563,540.375 Q1639.3594,540.375 1640,540.5313 Q1640.6563,540.6875 1641.2188,540.9844 L1641.2188,543.7031 Q1640.5938,543.125 1640,542.8594 Q1639.4063,542.5781 1638.7813,542.5781 Q1637.4375,542.5781 1636.75,543.6563 Q1636.0625,544.7188 1636.0625,546.8125 Q1636.0625,548.9063 1636.75,549.9844 Q1637.4375,551.0469 1638.7813,551.0469 Q1639.4063,551.0469 1640,550.7813 Q1640.5938,550.5 1641.2188,549.9219 L1641.2188,552.6406 Z " fill="#000000"/><text fill="#000000" font-family="sans-serif" font-size="14" lengthAdjust="spacing" textLength="98" x="1658.75" y="552.432">ArtifactBuilder</text><line style="stroke:#181818;stroke-width:0.5;" x1="1356" x2="2027" y1="563" y2="563"/><line style="stroke:#181818;stroke-width:0.5;" x1="1356" x2="2027" y1="571" y2="571"/><text fill="#000000" font-family="sans-serif" font-size="14" lengthAdjust="spacing" textLength="344" x="1361" y="589.9659">artifact buildArtifact(Function F, Data D, Contract C)</text><text fill="#000000" font-family="sans-serif" font-size="14" lengthAdjust="spacing" textLength="661" x="1361" y="609.0339">artifact buildArtifact(Function F, PrivateData PD, Contract C, Consent Cons(F on PD), AccessToken T)</text></g><!--class CaaSBuilder--><g id="elem_CaaSBuilder"><rect codeLine="46" fill="#F1F1F1" height="86.1358" id="CaaSBuilder" rx="2.5" ry="2.5" style="stroke:#181818;stroke-width:0.5;" width="673" x="2063" y="705.5"/><ellipse cx="2354.25" cy="721.5" fill="#ADD1B2" rx="11" ry="11" style="stroke:#181818;stroke-width:1.0;"/><path d="M2357.2188,727.1406 Q2356.6406,727.4375 2356,727.5781 Q2355.3594,727.7344 2354.6563,727.7344 Q2352.1563,727.7344 2350.8281,726.0938 Q2349.5156,724.4375 2349.5156,721.3125 Q2349.5156,718.1875 2350.8281,716.5313 Q2352.1563,714.875 2354.6563,714.875 Q2355.3594,714.875 2356,715.0313 Q2356.6563,715.1875 2357.2188,715.4844 L2357.2188,718.2031 Q2356.5938,717.625 2356,717.3594 Q2355.4063,717.0781 2354.7813,717.0781 Q2353.4375,717.0781 2352.75,718.1563 Q2352.0625,719.2188 2352.0625,721.3125 Q2352.0625,723.4063 2352.75,724.4844 Q2353.4375,725.5469 2354.7813,725.5469 Q2355.4063,725.5469 2356,725.2813 Q2356.5938,725 2357.2188,724.4219 L2357.2188,727.1406 Z " fill="#000000"/><text fill="#000000" font-family="sans-serif" font-size="14" lengthAdjust="spacing" textLength="82" x="2374.75" y="726.932">CaaSBuilder</text><line style="stroke:#181818;stroke-width:0.5;" x1="2064" x2="2735" y1="737.5" y2="737.5"/><line style="stroke:#181818;stroke-width:0.5;" x1="2064" x2="2735" y1="745.5" y2="745.5"/><text fill="#000000" font-family="sans-serif" font-size="14" lengthAdjust="spacing" textLength="352" x="2069" y="764.4659">artifact buildArtifact(Container F, Data D, Contract C)</text><text fill="#000000" font-family="sans-serif" font-size="14" lengthAdjust="spacing" textLength="661" x="2069" y="783.5339">artifact buildArtifact(Function F, PrivateData PD, Contract C, Consent Cons(F on PD), AccessToken T)</text></g><!--class FaaSBuilder--><g id="elem_FaaSBuilder"><rect codeLine="50" fill="#F1F1F1" height="86.1358" id="FaaSBuilder" rx="2.5" ry="2.5" style="stroke:#181818;stroke-width:0.5;" width="673" x="1355" y="705.5"/><ellipse cx="1647.25" cy="721.5" fill="#ADD1B2" rx="11" ry="11" style="stroke:#181818;stroke-width:1.0;"/><path d="M1650.2188,727.1406 Q1649.6406,727.4375 1649,727.5781 Q1648.3594,727.7344 1647.6563,727.7344 Q1645.1563,727.7344 1643.8281,726.0938 Q1642.5156,724.4375 1642.5156,721.3125 Q1642.5156,718.1875 1643.8281,716.5313 Q1645.1563,714.875 1647.6563,714.875 Q1648.3594,714.875 1649,715.0313 Q1649.6563,715.1875 1650.2188,715.4844 L1650.2188,718.2031 Q1649.5938,717.625 1649,717.3594 Q1648.4063,717.0781 1647.7813,717.0781 Q1646.4375,717.0781 1645.75,718.1563 Q1645.0625,719.2188 1645.0625,721.3125 Q1645.0625,723.4063 1645.75,724.4844 Q1646.4375,725.5469 1647.7813,725.5469 Q1648.4063,725.5469 1649,725.2813 Q1649.5938,725 1650.2188,724.4219 L1650.2188,727.1406 Z " fill="#000000"/><text fill="#000000" font-family="sans-serif" font-size="14" lengthAdjust="spacing" textLength="80" x="1667.75" y="726.932">FaaSBuilder</text><line style="stroke:#181818;stroke-width:0.5;" x1="1356" x2="2027" y1="737.5" y2="737.5"/><line style="stroke:#181818;stroke-width:0.5;" x1="1356" x2="2027" y1="745.5" y2="745.5"/><text fill="#000000" font-family="sans-serif" font-size="14" lengthAdjust="spacing" textLength="344" x="1361" y="764.4659">artifact buildArtifact(Function F, Data D, Contract C)</text><text fill="#000000" font-family="sans-serif" font-size="14" lengthAdjust="spacing" textLength="661" x="1361" y="783.5339">artifact buildArtifact(Function F, PrivateData PD, Contract C, Consent Cons(F on PD), AccessToken T)</text></g><!--class Wrapper--><g id="elem_Wrapper"><rect codeLine="54" fill="#F1F1F1" height="105.2038" id="Wrapper" rx="2.5" ry="2.5" style="stroke:#181818;stroke-width:0.5;" width="179" x="2771" y="696"/><ellipse cx="2826.75" cy="712" fill="#ADD1B2" rx="11" ry="11" style="stroke:#181818;stroke-width:1.0;"/><path d="M2829.7188,717.6406 Q2829.1406,717.9375 2828.5,718.0781 Q2827.8594,718.2344 2827.1563,718.2344 Q2824.6563,718.2344 2823.3281,716.5938 Q2822.0156,714.9375 2822.0156,711.8125 Q2822.0156,708.6875 2823.3281,707.0313 Q2824.6563,705.375 2827.1563,705.375 Q2827.8594,705.375 2828.5,705.5313 Q2829.1563,705.6875 2829.7188,705.9844 L2829.7188,708.7031 Q2829.0938,708.125 2828.5,707.8594 Q2827.9063,707.5781 2827.2813,707.5781 Q2825.9375,707.5781 2825.25,708.6563 Q2824.5625,709.7188 2824.5625,711.8125 Q2824.5625,713.9063 2825.25,714.9844 Q2825.9375,716.0469 2827.2813,716.0469 Q2827.9063,716.0469 2828.5,715.7813 Q2829.0938,715.5 2829.7188,714.9219 L2829.7188,717.6406 Z " fill="#000000"/><text fill="#000000" font-family="sans-serif" font-size="14" lengthAdjust="spacing" textLength="59" x="2847.25" y="717.432">Wrapper</text><line style="stroke:#181818;stroke-width:0.5;" x1="2772" x2="2949" y1="728" y2="728"/><line style="stroke:#181818;stroke-width:0.5;" x1="2772" x2="2949" y1="736" y2="736"/><text fill="#000000" font-family="sans-serif" font-size="14" lengthAdjust="spacing" textLength="137" x="2777" y="754.9659">status init(Artifact A)</text><text fill="#000000" font-family="sans-serif" font-size="14" lengthAdjust="spacing" textLength="167" x="2777" y="774.0339">status execute(Artifact A)</text><text fill="#000000" font-family="sans-serif" font-size="14" lengthAdjust="spacing" textLength="126" x="2777" y="793.1018">result sendResult()</text></g><!--class CaaSWrapper--><g id="elem_CaaSWrapper"><rect codeLine="59" fill="#F1F1F1" height="105.2038" id="CaaSWrapper" rx="2.5" ry="2.5" style="stroke:#181818;stroke-width:0.5;" width="179" x="3048" y="899"/><ellipse cx="3087.75" cy="915" fill="#ADD1B2" rx="11" ry="11" style="stroke:#181818;stroke-width:1.0;"/><path d="M3090.7188,920.6406 Q3090.1406,920.9375 3089.5,921.0781 Q3088.8594,921.2344 3088.1563,921.2344 Q3085.6563,921.2344 3084.3281,919.5938 Q3083.0156,917.9375 3083.0156,914.8125 Q3083.0156,911.6875 3084.3281,910.0313 Q3085.6563,908.375 3088.1563,908.375 Q3088.8594,908.375 3089.5,908.5313 Q3090.1563,908.6875 3090.7188,908.9844 L3090.7188,911.7031 Q3090.0938,911.125 3089.5,910.8594 Q3088.9063,910.5781 3088.2813,910.5781 Q3086.9375,910.5781 3086.25,911.6563 Q3085.5625,912.7188 3085.5625,914.8125 Q3085.5625,916.9063 3086.25,917.9844 Q3086.9375,919.0469 3088.2813,919.0469 Q3088.9063,919.0469 3089.5,918.7813 Q3090.0938,918.5 3090.7188,917.9219 L3090.7188,920.6406 Z " fill="#000000"/><text fill="#000000" font-family="sans-serif" font-size="14" lengthAdjust="spacing" textLength="92" x="3107.25" y="920.432">CaaSWrapper</text><line style="stroke:#181818;stroke-width:0.5;" x1="3049" x2="3226" y1="931" y2="931"/><line style="stroke:#181818;stroke-width:0.5;" x1="3049" x2="3226" y1="939" y2="939"/><text fill="#000000" font-family="sans-serif" font-size="14" lengthAdjust="spacing" textLength="137" x="3054" y="957.9659">status init(Artifact A)</text><text fill="#000000" font-family="sans-serif" font-size="14" lengthAdjust="spacing" textLength="167" x="3054" y="977.0339">status execute(Artifact A)</text><text fill="#000000" font-family="sans-serif" font-size="14" lengthAdjust="spacing" textLength="126" x="3054" y="996.1018">result sendResult()</text></g><!--class FaaSWrapper--><g id="elem_FaaSWrapper"><rect codeLine="64" fill="#F1F1F1" height="105.2038" id="FaaSWrapper" rx="2.5" ry="2.5" style="stroke:#181818;stroke-width:0.5;" width="179" x="2771" y="899"/><ellipse cx="2811.65" cy="915" fill="#ADD1B2" rx="11" ry="11" style="stroke:#181818;stroke-width:1.0;"/><path d="M2814.6188,920.6406 Q2814.0406,920.9375 2813.4,921.0781 Q2812.7594,921.2344 2812.0563,921.2344 Q2809.5563,921.2344 2808.2281,919.5938 Q2806.9156,917.9375 2806.9156,914.8125 Q2806.9156,911.6875 2808.2281,910.0313 Q2809.5563,908.375 2812.0563,908.375 Q2812.7594,908.375 2813.4,908.5313 Q2814.0563,908.6875 2814.6188,908.9844 L2814.6188,911.7031 Q2813.9938,911.125 2813.4,910.8594 Q2812.8063,910.5781 2812.1813,910.5781 Q2810.8375,910.5781 2810.15,911.6563 Q2809.4625,912.7188 2809.4625,914.8125 Q2809.4625,916.9063 2810.15,917.9844 Q2810.8375,919.0469 2812.1813,919.0469 Q2812.8063,919.0469 2813.4,918.7813 Q2813.9938,918.5 2814.6188,917.9219 L2814.6188,920.6406 Z " fill="#000000"/><text fill="#000000" font-family="sans-serif" font-size="14" lengthAdjust="spacing" textLength="90" x="2831.35" y="920.432">FaaSWrapper</text><line style="stroke:#181818;stroke-width:0.5;" x1="2772" x2="2949" y1="931" y2="931"/><line style="stroke:#181818;stroke-width:0.5;" x1="2772" x2="2949" y1="939" y2="939"/><text fill="#000000" font-family="sans-serif" font-size="14" lengthAdjust="spacing" textLength="137" x="2777" y="957.9659">status init(Artifact A)</text><text fill="#000000" font-family="sans-serif" font-size="14" lengthAdjust="spacing" textLength="167" x="2777" y="977.0339">status execute(Artifact A)</text><text fill="#000000" font-family="sans-serif" font-size="14" lengthAdjust="spacing" textLength="126" x="2777" y="996.1018">result sendResult()</text></g><!--class WorkerNode--><g id="elem_WorkerNode"><rect codeLine="69" fill="#F1F1F1" height="67.0679" id="WorkerNode" rx="2.5" ry="2.5" style="stroke:#181818;stroke-width:0.5;" width="221" x="2750" y="540.5"/><ellipse cx="2814.25" cy="556.5" fill="#ADD1B2" rx="11" ry="11" style="stroke:#181818;stroke-width:1.0;"/><path d="M2817.2188,562.1406 Q2816.6406,562.4375 2816,562.5781 Q2815.3594,562.7344 2814.6563,562.7344 Q2812.1563,562.7344 2810.8281,561.0938 Q2809.5156,559.4375 2809.5156,556.3125 Q2809.5156,553.1875 2810.8281,551.5313 Q2812.1563,549.875 2814.6563,549.875 Q2815.3594,549.875 2816,550.0313 Q2816.6563,550.1875 2817.2188,550.4844 L2817.2188,553.2031 Q2816.5938,552.625 2816,552.3594 Q2815.4063,552.0781 2814.7813,552.0781 Q2813.4375,552.0781 2812.75,553.1563 Q2812.0625,554.2188 2812.0625,556.3125 Q2812.0625,558.4063 2812.75,559.4844 Q2813.4375,560.5469 2814.7813,560.5469 Q2815.4063,560.5469 2816,560.2813 Q2816.5938,560 2817.2188,559.4219 L2817.2188,562.1406 Z " fill="#000000"/><text fill="#000000" font-family="sans-serif" font-size="14" lengthAdjust="spacing" textLength="84" x="2834.75" y="561.932">WorkerNode</text><line style="stroke:#181818;stroke-width:0.5;" x1="2751" x2="2970" y1="572.5" y2="572.5"/><line style="stroke:#181818;stroke-width:0.5;" x1="2751" x2="2970" y1="580.5" y2="580.5"/><text fill="#000000" font-family="sans-serif" font-size="14" lengthAdjust="spacing" textLength="209" x="2756" y="599.4659">status deployArtifact(Artifact A)</text></g><!--reverse link DataProvider to PrivacyPreservingPDC--><g id="link_DataProvider_PrivacyPreservingPDC"><path codeLine="73" d="M1512.5683,1099.1908 C1514.1583,1079.9508 1511.4,1068.44 1497.5,1053 C1466.82,1018.91 1380.52,996.08 1287.18,980.93 " fill="none" id="DataProvider-backto-PrivacyPreservingPDC" style="stroke:#181818;stroke-width:1.0;"/><polygon fill="#181818" points="1511.58,1111.15,1516.0606,1105.4998,1512.5683,1099.1908,1508.0877,1104.8409,1511.58,1111.15" style="stroke:#181818;stroke-width:1.0;"/></g><!--link PrivacyPreservingPDC to DataProvider--><g id="link_PrivacyPreservingPDC_DataProvider"><path codeLine="102" d="M1285.45,1023.03 C1312.22,1032.07 1338.59,1042.05 1363.5,1053 C1398.75,1068.5 1430.3568,1088.6077 1457.5268,1107.8877 " fill="none" id="PrivacyPreservingPDC-to-DataProvider" style="stroke:#181818;stroke-width:1.0;"/><polygon fill="#181818" points="1462.42,1111.36,1457.395,1102.8895,1458.3423,1108.4665,1452.7654,1109.4138,1462.42,1111.36" style="stroke:#181818;stroke-width:1.0;"/><text fill="#000000" font-family="sans-serif" font-size="13" lengthAdjust="spacing" textLength="65" x="1401.5" y="1067.897">getData(D)</text></g><!--reverse link PDC to PrivacyPreservingPDC--><g id="link_PDC_PrivacyPreservingPDC"><path codeLine="75" d="M1034.33,817.8085 C1025.15,841.7685 1020.53,853.84 1010.58,879.81 " fill="none" id="PDC-backto-PrivacyPreservingPDC" style="stroke:#181818;stroke-width:1.0;"/><polygon fill="none" points="1040.77,801,1028.7272,815.6619,1039.9328,819.9552,1040.77,801" style="stroke:#181818;stroke-width:1.0;"/></g><!--reverse link ArtifactBuilder to CaaSBuilder--><g id="link_ArtifactBuilder_CaaSBuilder"><path codeLine="77" d="M1881.7286,621.3503 C1991.9486,648.2003 2116.78,678.62 2226.96,705.46 " fill="none" id="ArtifactBuilder-backto-CaaSBuilder" style="stroke:#181818;stroke-width:1.0;"/><polygon fill="none" points="1864.24,617.09,1880.3085,627.1798,1883.1487,615.5208,1864.24,617.09" style="stroke:#181818;stroke-width:1.0;"/></g><!--reverse link ArtifactBuilder to FaaSBuilder--><g id="link_ArtifactBuilder_FaaSBuilder"><path codeLine="78" d="M1691.5,635.2 C1691.5,662.03 1691.5,678.63 1691.5,705.44 " fill="none" id="ArtifactBuilder-backto-FaaSBuilder" style="stroke:#181818;stroke-width:1.0;"/><polygon fill="none" points="1691.5,617.2,1685.5,635.2,1697.5,635.2,1691.5,617.2" style="stroke:#181818;stroke-width:1.0;"/></g><!--reverse link Wrapper to CaaSWrapper--><g id="link_Wrapper_CaaSWrapper"><path codeLine="79" d="M2946.039,811.571 C2987.399,841.581 3024.82,868.74 3066.23,898.78 " fill="none" id="Wrapper-backto-CaaSWrapper" style="stroke:#181818;stroke-width:1.0;"/><polygon fill="none" points="2931.47,801,2942.5153,816.4273,2949.5626,806.7146,2931.47,801" style="stroke:#181818;stroke-width:1.0;"/></g><!--reverse link Wrapper to FaaSWrapper--><g id="link_Wrapper_FaaSWrapper"><path codeLine="80" d="M2860.5,819 C2860.5,849.01 2860.5,868.74 2860.5,898.78 " fill="none" id="Wrapper-backto-FaaSWrapper" style="stroke:#181818;stroke-width:1.0;"/><polygon fill="none" points="2860.5,801,2854.5,819,2866.5,819,2860.5,801" style="stroke:#181818;stroke-width:1.0;"/></g><!--reverse link WorkerNode to CaaSWrapper--><g id="link_WorkerNode_CaaSWrapper"><path codeLine="82" d="M2982.932,590.485 C3051.012,604.835 3121.45,632.54 3164.5,696 C3205.4,756.31 3182.82,843.79 3161.3,898.88 " fill="none" id="WorkerNode-backto-CaaSWrapper" style="stroke:#181818;stroke-width:1.0;"/><polygon fill="#181818" points="2971.19,588.01,2976.236,593.1615,2982.932,590.485,2977.886,585.3335,2971.19,588.01" style="stroke:#181818;stroke-width:1.0;"/></g><!--link ProcessingBBtheDataConsumer to EdgeAPI--><g id="link_ProcessingBBtheDataConsumer_EdgeAPI"><path codeLine="84" d="M354.5,55.14 C354.5,76.28 354.5,102.08 354.5,127.75 " fill="none" id="ProcessingBBtheDataConsumer-to-EdgeAPI" style="stroke:#181818;stroke-width:1.0;"/><polygon fill="#181818" points="354.5,133.75,358.5,124.75,354.5,128.75,350.5,124.75,354.5,133.75" style="stroke:#181818;stroke-width:1.0;"/><text fill="#000000" font-family="sans-serif" font-size="13" lengthAdjust="spacing" textLength="258" x="355.5" y="99.897">requestEdgeProc(F, PD, C, Cons(F on PD), T)</text></g><!--link EdgeAPI to Catalog--><g id="link_EdgeAPI_Catalog"><path codeLine="85" d="M241.35,220.06 C188.27,247.8 136.5,290.29 136.5,350.5 C136.5,350.5 136.5,350.5 136.5,952.5 C136.5,1010.15 171.1304,1061.0785 203.4104,1097.3385 " fill="none" id="EdgeAPI-to-Catalog" style="stroke:#181818;stroke-width:1.0;"/><polygon fill="#181818" points="207.4,1101.82,204.4033,1092.4381,204.0754,1098.0855,198.428,1097.7575,207.4,1101.82" style="stroke:#181818;stroke-width:1.0;"/><text fill="#000000" font-family="sans-serif" font-size="13" lengthAdjust="spacing" textLength="108" x="137.5" y="661.897">getAccessInfo(PD)</text></g><!--link EdgeAPI to Catalog--><g id="link_EdgeAPI_Catalog"><path codeLine="86" d="M327.62,220.14 C308.62,254 286.5,303.5 286.5,350.5 C286.5,350.5 286.5,350.5 286.5,952.5 C286.5,1004.6 275.0311,1057.5167 264.6511,1096.0367 " fill="none" id="EdgeAPI-to-Catalog-1" style="stroke:#181818;stroke-width:1.0;"/><polygon fill="#181818" points="263.09,1101.83,269.2939,1094.1807,264.3909,1097.0022,261.5695,1092.0992,263.09,1101.83" style="stroke:#181818;stroke-width:1.0;"/><text fill="#000000" font-family="sans-serif" font-size="13" lengthAdjust="spacing" textLength="102" x="287.5" y="661.897">verifyFunction(A)</text></g><!--link EdgeAPI to PrivacyZoneMgr--><g id="link_EdgeAPI_PrivacyZoneMgr"><path codeLine="87" d="M373.84,220.26 C400.4,278.32 445.1231,376.0742 469.1231,428.5142 " fill="none" id="EdgeAPI-to-PrivacyZoneMgr" style="stroke:#181818;stroke-width:1.0;"/><polygon fill="#181818" points="471.62,433.97,471.5118,424.1217,469.5392,429.4235,464.2374,427.451,471.62,433.97" style="stroke:#181818;stroke-width:1.0;"/><text fill="#000000" font-family="sans-serif" font-size="13" lengthAdjust="spacing" textLength="111" x="397.5" y="264.897">getPZData(DP, PD)</text></g><!--link PrivacyZoneMgr to PrivacyPreservingPDC--><g id="link_PrivacyZoneMgr_PrivacyPreservingPDC"><path codeLine="88" d="M486.63,501.26 C488.97,579.43 507.37,775.89 630.5,850 C648.93,861.09 663.1301,868.6019 683.4501,877.4619 " fill="none" id="PrivacyZoneMgr-to-PrivacyPreservingPDC" style="stroke:#181818;stroke-width:1.0;"/><polygon fill="#181818" points="688.95,879.86,682.2988,872.5962,684.3667,877.8616,679.1014,879.9295,688.95,879.86" style="stroke:#181818;stroke-width:1.0;"/><text fill="#000000" font-family="sans-serif" font-size="13" lengthAdjust="spacing" textLength="111" x="511.5" y="661.897">getPZData(DP, PD)</text></g><!--link EdgeAPI to Scheduler--><g id="link_EdgeAPI_Scheduler"><path codeLine="90" d="M680.28,220.03 C881.26,245.96 1132.9393,278.4322 1337.8493,304.8722 " fill="none" id="EdgeAPI-to-Scheduler" style="stroke:#181818;stroke-width:1.0;"/><polygon fill="#181818" points="1343.8,305.64,1335.3859,300.5211,1338.8411,305.0001,1334.3621,308.4554,1343.8,305.64" style="stroke:#181818;stroke-width:1.0;"/><text fill="#000000" font-family="sans-serif" font-size="13" lengthAdjust="spacing" textLength="141" x="1023.5" y="264.897">requestEdgeProc(F, PD)</text></g><!--link Scheduler to ArtifactBuilder--><g id="link_Scheduler_ArtifactBuilder"><path codeLine="91" d="M1691.5,404.2 C1691.5,442.77 1691.5,488.8 1691.5,524.86 " fill="none" id="Scheduler-to-ArtifactBuilder" style="stroke:#181818;stroke-width:1.0;"/><polygon fill="#181818" points="1691.5,530.86,1695.5,521.86,1691.5,525.86,1687.5,521.86,1691.5,530.86" style="stroke:#181818;stroke-width:1.0;"/><text fill="#000000" font-family="sans-serif" font-size="13" lengthAdjust="spacing" textLength="228" x="1692.5" y="472.897">buildArtifact(F, PD, C, Cons(F on PD), T)</text></g><!--link ArtifactBuilder to PrivacyPreservingPDC--><g id="link_ArtifactBuilder_PrivacyPreservingPDC"><path codeLine="92" d="M1354.69,590.53 C1056.78,607.81 661.83,640.82 612.5,696 C581.39,730.79 586.39,762.32 612.5,801 C634.84,834.09 660.6773,856.854 695.3473,876.924 " fill="none" id="ArtifactBuilder-to-PrivacyPreservingPDC" style="stroke:#181818;stroke-width:1.0;"/><polygon fill="#181818" points="700.54,879.93,694.7549,871.9592,696.2128,877.425,690.747,878.8828,700.54,879.93" style="stroke:#181818;stroke-width:1.0;"/><text fill="#000000" font-family="sans-serif" font-size="13" lengthAdjust="spacing" textLength="170" x="613.5" y="753.897">requestFunction(Function F)</text></g><!--link PrivacyPreservingPDC to Catalog--><g id="link_PrivacyPreservingPDC_Catalog"><path codeLine="93" d="M679.81,1006.86 C617.42,1020.2 552.49,1035.7 492.5,1053 C445.38,1066.59 399.997,1082.9625 357.037,1099.7825 " fill="none" id="PrivacyPreservingPDC-to-Catalog" style="stroke:#181818;stroke-width:1.0;"/><polygon fill="#181818" points="351.45,1101.97,361.2889,1102.4135,356.1059,1100.1471,358.3722,1094.9641,351.45,1101.97" style="stroke:#181818;stroke-width:1.0;"/><text fill="#000000" font-family="sans-serif" font-size="13" lengthAdjust="spacing" textLength="170" x="493.5" y="1067.897">requestFunction(Function F)</text></g><!--link Scheduler to Scheduler--><g id="link_Scheduler_Scheduler"><path codeLine="95" d="M2039.18,339.41 C2060.91,342.26 2074,346.29 2074,351.5 C2074,356.71 2066.8591,359.9598 2045.1291,362.8098 " fill="none" id="Scheduler-to-Scheduler" style="stroke:#181818;stroke-width:1.0;"/><polygon fill="#181818" points="2039.18,363.59,2048.6237,366.3857,2044.1375,362.9398,2047.5834,358.4536,2039.18,363.59" style="stroke:#181818;stroke-width:1.0;"/><text fill="#000000" font-family="sans-serif" font-size="13" lengthAdjust="spacing" textLength="69" x="2080" y="356.897">schedule(A)</text></g><!--link Scheduler to WorkerNode--><g id="link_Scheduler_WorkerNode"><path codeLine="96" d="M1964.84,404.06 C2214.5,451.15 2565.174,517.2979 2743.744,550.9779 " fill="none" id="Scheduler-to-WorkerNode" style="stroke:#181818;stroke-width:1.0;"/><polygon fill="#181818" points="2749.64,552.09,2741.5373,546.4912,2744.7266,551.1633,2740.0546,554.3526,2749.64,552.09" style="stroke:#181818;stroke-width:1.0;"/><text fill="#000000" font-family="sans-serif" font-size="13" lengthAdjust="spacing" textLength="100" x="2449.5" y="472.897">deployArtifact(A)</text></g><!--link WorkerNode to Wrapper--><g id="link_WorkerNode_Wrapper"><path codeLine="97" d="M2860.5,607.85 C2860.5,632.68 2860.5,661.24 2860.5,689.77 " fill="none" id="WorkerNode-to-Wrapper" style="stroke:#181818;stroke-width:1.0;"/><polygon fill="#181818" points="2860.5,695.77,2864.5,686.77,2860.5,690.77,2856.5,686.77,2860.5,695.77" style="stroke:#181818;stroke-width:1.0;"/><text fill="#000000" font-family="sans-serif" font-size="13" lengthAdjust="spacing" textLength="35" x="2861.5" y="661.897">init(A)</text></g><!--link Wrapper to PrivacyPreservingPDC--><g id="link_Wrapper_PrivacyPreservingPDC"><path codeLine="98" d="M2770.91,795.45 C2765.1,797.55 2759.27,799.43 2753.5,801 C2684.07,819.95 1780.5928,890.3063 1293.2128,927.2663 " fill="none" id="Wrapper-to-PrivacyPreservingPDC" style="stroke:#181818;stroke-width:1.0;"/><polygon fill="#181818" points="1287.23,927.72,1296.5067,931.028,1292.2157,927.3419,1295.9018,923.0509,1287.23,927.72" style="stroke:#181818;stroke-width:1.0;"/><text fill="#000000" font-family="sans-serif" font-size="13" lengthAdjust="spacing" textLength="321" x="2457.5" y="845.897">requestData/wPrivacyPreserving(PD, C, Cons(F on PD)</text></g><!--link PrivacyPreservingPDC to Contract--><g id="link_PrivacyPreservingPDC_Contract"><path codeLine="99" d="M1190.67,1023.37 C1200.48,1032.12 1209.24,1041.96 1216.5,1053 C1226.7,1068.51 1224.0317,1081.3483 1213.0917,1097.0383 " fill="none" id="PrivacyPreservingPDC-to-Contract" style="stroke:#181818;stroke-width:1.0;"/><polygon fill="#181818" points="1209.66,1101.96,1218.0887,1096.8652,1212.5198,1097.8586,1211.5264,1092.2896,1209.66,1101.96" style="stroke:#181818;stroke-width:1.0;"/><text fill="#000000" font-family="sans-serif" font-size="13" lengthAdjust="spacing" textLength="132" x="1222.5" y="1067.897">verifyContract(DP, CP)</text></g><!--link PrivacyPreservingPDC to Contract--><g id="link_PrivacyPreservingPDC_Contract"><path codeLine="100" d="M900.5,1023.02 C890.53,1039.29 887.55,1056.4 899.5,1072 C909.97,1085.67 929.8175,1095.5686 961.2075,1105.2686 " fill="none" id="PrivacyPreservingPDC-to-Contract-1" style="stroke:#181818;stroke-width:1.0;"/><polygon fill="#181818" points="966.94,1107.04,959.5222,1100.5611,962.1629,1105.5638,957.1602,1108.2045,966.94,1107.04" style="stroke:#181818;stroke-width:1.0;"/><text fill="#000000" font-family="sans-serif" font-size="13" lengthAdjust="spacing" textLength="307" x="900.5" y="1067.897">verifyContract(DP, ProcessingBBtheDataConsumer)</text></g><!--link PrivacyPreservingPDC to Consent--><g id="link_PrivacyPreservingPDC_Consent"><path codeLine="101" d="M716.18,1023.03 C704.25,1031.87 693.24,1041.81 683.5,1053 C669.68,1068.88 665.7789,1086.3444 665.0489,1105.4644 " fill="none" id="PrivacyPreservingPDC-to-Consent" style="stroke:#181818;stroke-width:1.0;"/><polygon fill="#181818" points="664.82,1111.46,669.1605,1102.6192,665.0108,1106.4636,661.1663,1102.3139,664.82,1111.46" style="stroke:#181818;stroke-width:1.0;"/><text fill="#000000" font-family="sans-serif" font-size="13" lengthAdjust="spacing" textLength="198" x="684.5" y="1067.897">verifyConsent(DP, Cons(F on PD))</text></g><!--link Wrapper to Wrapper--><g id="link_Wrapper_Wrapper"><path codeLine="103" d="M2950.03,740.09 C2970.23,740.84 2985,743.65 2985,748.5 C2985,753.35 2976.2259,755.9374 2956.0259,756.6874 " fill="none" id="Wrapper-to-Wrapper" style="stroke:#181818;stroke-width:1.0;"/><polygon fill="#181818" points="2950.03,756.91,2959.1722,760.5733,2955.0266,756.7245,2958.8754,752.5788,2950.03,756.91" style="stroke:#181818;stroke-width:1.0;"/><text fill="#000000" font-family="sans-serif" font-size="13" lengthAdjust="spacing" textLength="63" x="2991" y="753.897">execute(A)</text></g><!--link Wrapper to Wrapper--><g id="link_Wrapper_Wrapper"><path codeLine="104" d="M2950.13,732.14 C3004.96,728.94 3060,734.39 3060,748.5 C3060,762.61 3010.9498,768.4096 2956.1198,765.2096 " fill="none" id="Wrapper-to-Wrapper-1" style="stroke:#181818;stroke-width:1.0;"/><polygon fill="#181818" points="2950.13,764.86,2958.8817,769.3776,2955.1215,765.1513,2959.3478,761.3912,2950.13,764.86" style="stroke:#181818;stroke-width:1.0;"/><text fill="#000000" font-family="sans-serif" font-size="13" lengthAdjust="spacing" textLength="74" x="3066" y="753.897">sendResult()</text></g><!--link EdgeAPI to EdgeAPI--><g id="link_EdgeAPI_EdgeAPI"><path codeLine="106" d="M702.18,166.22 C723.91,168.76 737,172.36 737,177 C737,181.64 729.8694,184.5434 708.1394,187.0834 " fill="none" id="EdgeAPI-to-EdgeAPI" style="stroke:#181818;stroke-width:1.0;"/><polygon fill="#181818" points="702.18,187.78,711.5835,190.7081,707.1462,187.1995,710.6547,182.7622,702.18,187.78" style="stroke:#181818;stroke-width:1.0;"/><text fill="#000000" font-family="sans-serif" font-size="13" lengthAdjust="spacing" textLength="74" x="743" y="182.397">sendResult()</text></g><!--SRC=[rLPDRvim6BxxL_W85T7kQ9f4O95ws8JMLfLwyy19K2dEZCaMPVdlimq6snWceadDJY3x_NgUzyDlLgAwXf_p7OxIUtW649xVCDkJ_08fhfkIyS-F1jTCYAIKPDwcgJ9Ma0fk0fWWXc3YBzHAQN5434lbD0bWJ2f6KSPWBFzhN37vzJQGAwI97y0eot1TFv9NNC577rn09kEMbhBJ2wdmbnqrmqzVSk5WXrdxvmb_F9PZaMCAazIEGxEQnAOfQQX3b2XJ5cvTHZFiBGPhMDqgsZhBYaQDpn4RAKy1fiUYslrlGAxEtZG2SVtXvuYPQz0eccEkKvAToQmH7e-wBTZxQajS72zAQn-QuR1cY3KrF69QR4zAPCnIN98cxq_YrB_2XZWGN3HluY0s8fD4pGOc9COsdtWYuDDu5hW8C9J7zSpPDcfvQ0SYSi2plLwpFJPGd7kfXsoFywQqBT_myDFy7KcHmxf3u27AYYqtDL0GTIVhfYX7v2bn-5tSAb47H3r8Vw65VpVhOuGUbk0Gdb1HSUaR0x9P2EHM4_9CqU5WO-YwlwWAvYd_C79D7VmBPmt3Kr9TA_5uyc_orpDBuVsyRzxL-pEXhvX-9JbsEi_neIIdFlEwWmi0nYIzMwsSAmC0Oc_u-7losfugKbHhJxU0LlP0qTThTWVcXKOq01hkEqi9p4twrUfJlzw6uyaSj4qGs3NFwrnf2GlgpG-jjrsiZMwvzlth7_R8bBCMrx1TTDfdJEmstAmbeccP2vvBr_0rl70J-7qmY0W5EtsXFKvcIBDrPyAUstsSAYR1S-eM89s1_hMCRDXQXOMZFlBr0fJINQM6NR_xVUt-7VBaKkfWTOOADRd3qGOd5h_qQjMPTfgtAH-Fq5xzqi3Uf2Tj6FCf73Oxazo1-dwEJWaO8zJeYc4c639_0000]--></g></svg>