<svg xmlns="http://www.w3.org/2000/svg" xmlns:xlink="http://www.w3.org/1999/xlink" contentStyleType="text/css" height="1911px" preserveAspectRatio="none" style="width:1853px;height:1911px;background:#FFFFFF;" version="1.1" viewBox="0 0 1853 1911" width="1853px" zoomAndPan="magnify"><defs/><g><rect fill="#FFA500" height="1892.5146" style="stroke:#181818;stroke-width:0.5;" width="113" x="1" y="6"/><text fill="#000000" font-family="sans-serif" font-size="13" font-weight="bold" lengthAdjust="spacing" textLength="102" x="6.5" y="19.897">Data Consumer</text><rect fill="#90EE90" height="1892.5146" style="stroke:#181818;stroke-width:0.5;" width="399.5" x="116" y="6"/><text fill="#000000" font-family="sans-serif" font-size="13" font-weight="bold" lengthAdjust="spacing" textLength="186" x="222.75" y="19.897">Data and Function Providers</text><rect fill="#D3D3D3" height="1892.5146" style="stroke:#181818;stroke-width:0.5;" width="315" x="517.5" y="6"/><text fill="#000000" font-family="sans-serif" font-size="13" font-weight="bold" lengthAdjust="spacing" textLength="58" x="646" y="19.897">PTX Core</text><rect fill="#ADD8E6" height="1892.5146" style="stroke:#181818;stroke-width:0.5;" width="1011" x="834.5" y="6"/><text fill="#000000" font-family="sans-serif" font-size="13" font-weight="bold" lengthAdjust="spacing" textLength="128" x="1276" y="19.897">Edge Computing BB</text><rect fill="#FFFFFF" height="428.8842" style="stroke:#181818;stroke-width:1.0;" width="10" x="1635.5" y="1332.7885"/><line style="stroke:#181818;stroke-width:0.5;stroke-dasharray:5.0,5.0;" x1="57" x2="57" y1="111.8419" y2="1811.3788"/><line style="stroke:#181818;stroke-width:0.5;stroke-dasharray:5.0,5.0;" x1="152" x2="152" y1="111.8419" y2="1811.3788"/><line style="stroke:#181818;stroke-width:0.5;stroke-dasharray:5.0,5.0;" x1="253" x2="253" y1="111.8419" y2="1811.3788"/><line style="stroke:#181818;stroke-width:0.5;stroke-dasharray:5.0,5.0;" x1="343" x2="343" y1="111.8419" y2="1811.3788"/><line style="stroke:#181818;stroke-width:0.5;stroke-dasharray:5.0,5.0;" x1="460.5" x2="460.5" y1="111.8419" y2="1811.3788"/><line style="stroke:#181818;stroke-width:0.5;stroke-dasharray:5.0,5.0;" x1="553.5" x2="553.5" y1="111.8419" y2="1811.3788"/><line style="stroke:#181818;stroke-width:0.5;stroke-dasharray:5.0,5.0;" x1="712.5" x2="712.5" y1="111.8419" y2="1811.3788"/><line style="stroke:#181818;stroke-width:0.5;stroke-dasharray:5.0,5.0;" x1="792.5" x2="792.5" y1="111.8419" y2="1811.3788"/><line style="stroke:#181818;stroke-width:0.5;stroke-dasharray:5.0,5.0;" x1="869.5" x2="869.5" y1="111.8419" y2="1811.3788"/><line style="stroke:#181818;stroke-width:0.5;stroke-dasharray:5.0,5.0;" x1="1065.5" x2="1065.5" y1="111.8419" y2="1811.3788"/><line style="stroke:#181818;stroke-width:0.5;stroke-dasharray:5.0,5.0;" x1="1261" x2="1261" y1="111.8419" y2="1811.3788"/><line style="stroke:#181818;stroke-width:0.5;stroke-dasharray:5.0,5.0;" x1="1367" x2="1367" y1="111.8419" y2="1811.3788"/><line style="stroke:#181818;stroke-width:0.5;stroke-dasharray:5.0,5.0;" x1="1537" x2="1537" y1="111.8419" y2="1811.3788"/><line style="stroke:#181818;stroke-width:0.5;stroke-dasharray:5.0,5.0;" x1="1640" x2="1640" y1="111.8419" y2="1811.3788"/><line style="stroke:#181818;stroke-width:0.5;stroke-dasharray:5.0,5.0;" x1="1792.5" x2="1792.5" y1="111.8419" y2="1811.3788"/><rect fill="#E2E2F0" height="52.1358" rx="2.5" ry="2.5" style="stroke:#181818;stroke-width:0.5;" width="105" x="5" y="58.706"/><text fill="#000000" font-family="sans-serif" font-size="14" lengthAdjust="spacing" textLength="91" x="12" y="80.672">ProcessingBB</text><text fill="#000000" font-family="sans-serif" font-size="14" lengthAdjust="spacing" textLength="89" x="13" y="99.7399">/w Connector</text><rect fill="#E2E2F0" height="52.1358" rx="2.5" ry="2.5" style="stroke:#181818;stroke-width:0.5;" width="105" x="5" y="1810.3788"/><text fill="#000000" font-family="sans-serif" font-size="14" lengthAdjust="spacing" textLength="91" x="12" y="1832.3447">ProcessingBB</text><text fill="#000000" font-family="sans-serif" font-size="14" lengthAdjust="spacing" textLength="89" x="13" y="1851.4126">/w Connector</text><text fill="#000000" font-family="sans-serif" font-size="14" lengthAdjust="spacing" textLength="58" x="120" y="88.672">Function</text><text fill="#000000" font-family="sans-serif" font-size="14" lengthAdjust="spacing" textLength="56" x="121" y="107.7399">Provider</text><path d="M134,37.706 C134,27.706 152,27.706 152,27.706 C152,27.706 170,27.706 170,37.706 L170,63.706 C170,73.706 152,73.706 152,73.706 C152,73.706 134,73.706 134,63.706 L134,37.706 " fill="#E2E2F0" style="stroke:#181818;stroke-width:1.5;"/><path d="M134,37.706 C134,47.706 152,47.706 152,47.706 C152,47.706 170,47.706 170,37.706 " fill="none" style="stroke:#181818;stroke-width:1.5;"/><text fill="#000000" font-family="sans-serif" font-size="14" lengthAdjust="spacing" textLength="58" x="120" y="1825.3447">Function</text><text fill="#000000" font-family="sans-serif" font-size="14" lengthAdjust="spacing" textLength="56" x="121" y="1844.4126">Provider</text><path d="M134,1858.5146 C134,1848.5146 152,1848.5146 152,1848.5146 C152,1848.5146 170,1848.5146 170,1858.5146 L170,1884.5146 C170,1894.5146 152,1894.5146 152,1894.5146 C152,1894.5146 134,1894.5146 134,1884.5146 L134,1858.5146 " fill="#E2E2F0" style="stroke:#181818;stroke-width:1.5;"/><path d="M134,1858.5146 C134,1868.5146 152,1868.5146 152,1868.5146 C152,1868.5146 170,1868.5146 170,1858.5146 " fill="none" style="stroke:#181818;stroke-width:1.5;"/><rect fill="#E2E2F0" height="33.0679" rx="2.5" ry="2.5" style="stroke:#181818;stroke-width:0.5;" width="98" x="204" y="77.7739"/><text fill="#000000" font-family="sans-serif" font-size="14" lengthAdjust="spacing" textLength="84" x="211" y="99.7399">ConnectorFP</text><rect fill="#E2E2F0" height="33.0679" rx="2.5" ry="2.5" style="stroke:#181818;stroke-width:0.5;" width="98" x="204" y="1810.3788"/><text fill="#000000" font-family="sans-serif" font-size="14" lengthAdjust="spacing" textLength="84" x="211" y="1832.3447">ConnectorFP</text><text fill="#000000" font-family="sans-serif" font-size="14" lengthAdjust="spacing" textLength="31" x="324.5" y="88.672">Data</text><text fill="#000000" font-family="sans-serif" font-size="14" lengthAdjust="spacing" textLength="56" x="312" y="107.7399">Provider</text><path d="M325,37.706 C325,27.706 343,27.706 343,27.706 C343,27.706 361,27.706 361,37.706 L361,63.706 C361,73.706 343,73.706 343,73.706 C343,73.706 325,73.706 325,63.706 L325,37.706 " fill="#E2E2F0" style="stroke:#181818;stroke-width:1.5;"/><path d="M325,37.706 C325,47.706 343,47.706 343,47.706 C343,47.706 361,47.706 361,37.706 " fill="none" style="stroke:#181818;stroke-width:1.5;"/><text fill="#000000" font-family="sans-serif" font-size="14" lengthAdjust="spacing" textLength="31" x="324.5" y="1825.3447">Data</text><text fill="#000000" font-family="sans-serif" font-size="14" lengthAdjust="spacing" textLength="56" x="312" y="1844.4126">Provider</text><path d="M325,1858.5146 C325,1848.5146 343,1848.5146 343,1848.5146 C343,1848.5146 361,1848.5146 361,1858.5146 L361,1884.5146 C361,1894.5146 343,1894.5146 343,1894.5146 C343,1894.5146 325,1894.5146 325,1884.5146 L325,1858.5146 " fill="#E2E2F0" style="stroke:#181818;stroke-width:1.5;"/><path d="M325,1858.5146 C325,1868.5146 343,1868.5146 343,1868.5146 C343,1868.5146 361,1868.5146 361,1858.5146 " fill="none" style="stroke:#181818;stroke-width:1.5;"/><rect fill="#E2E2F0" height="33.0679" rx="2.5" ry="2.5" style="stroke:#181818;stroke-width:0.5;" width="101" x="410.5" y="77.7739"/><text fill="#000000" font-family="sans-serif" font-size="14" lengthAdjust="spacing" textLength="87" x="417.5" y="99.7399">ConnectorDP</text><rect fill="#E2E2F0" height="33.0679" rx="2.5" ry="2.5" style="stroke:#181818;stroke-width:0.5;" width="101" x="410.5" y="1810.3788"/><text fill="#000000" font-family="sans-serif" font-size="14" lengthAdjust="spacing" textLength="87" x="417.5" y="1832.3447">ConnectorDP</text><rect fill="#E2E2F0" height="33.0679" rx="2.5" ry="2.5" style="stroke:#181818;stroke-width:0.5;" width="65" x="521.5" y="77.7739"/><text fill="#000000" font-family="sans-serif" font-size="14" lengthAdjust="spacing" textLength="51" x="528.5" y="99.7399">Catalog</text><rect fill="#E2E2F0" height="33.0679" rx="2.5" ry="2.5" style="stroke:#181818;stroke-width:0.5;" width="65" x="521.5" y="1810.3788"/><text fill="#000000" font-family="sans-serif" font-size="14" lengthAdjust="spacing" textLength="51" x="528.5" y="1832.3447">Catalog</text><rect fill="#E2E2F0" height="33.0679" rx="2.5" ry="2.5" style="stroke:#181818;stroke-width:0.5;" width="69" x="678.5" y="77.7739"/><text fill="#000000" font-family="sans-serif" font-size="14" lengthAdjust="spacing" textLength="55" x="685.5" y="99.7399">Consent</text><rect fill="#E2E2F0" height="33.0679" rx="2.5" ry="2.5" style="stroke:#181818;stroke-width:0.5;" width="69" x="678.5" y="1810.3788"/><text fill="#000000" font-family="sans-serif" font-size="14" lengthAdjust="spacing" textLength="55" x="685.5" y="1832.3447">Consent</text><rect fill="#E2E2F0" height="33.0679" rx="2.5" ry="2.5" style="stroke:#181818;stroke-width:0.5;" width="71" x="757.5" y="77.7739"/><text fill="#000000" font-family="sans-serif" font-size="14" lengthAdjust="spacing" textLength="57" x="764.5" y="99.7399">Contract</text><rect fill="#E2E2F0" height="33.0679" rx="2.5" ry="2.5" style="stroke:#181818;stroke-width:0.5;" width="71" x="757.5" y="1810.3788"/><text fill="#000000" font-family="sans-serif" font-size="14" lengthAdjust="spacing" textLength="57" x="764.5" y="1832.3447">Contract</text><text fill="#000000" font-family="sans-serif" font-size="14" lengthAdjust="spacing" textLength="56" x="838.5" y="107.7399">EdgeAPI</text><path d="M849,64.7739 L849,88.7739 M849,76.7739 L866,76.7739 " fill="none" style="stroke:#181818;stroke-width:0.5;"/><ellipse cx="878" cy="76.7739" fill="#E2E2F0" rx="12" ry="12" style="stroke:#181818;stroke-width:0.5;"/><text fill="#000000" font-family="sans-serif" font-size="14" lengthAdjust="spacing" textLength="56" x="838.5" y="1825.3447">EdgeAPI</text><path d="M849,1833.4467 L849,1857.4467 M849,1845.4467 L866,1845.4467 " fill="none" style="stroke:#181818;stroke-width:0.5;"/><ellipse cx="878" cy="1845.4467" fill="#E2E2F0" rx="12" ry="12" style="stroke:#181818;stroke-width:0.5;"/><rect fill="#E2E2F0" height="33.0679" rx="2.5" ry="2.5" style="stroke:#181818;stroke-width:0.5;" width="122" x="1004.5" y="77.7739"/><text fill="#000000" font-family="sans-serif" font-size="14" lengthAdjust="spacing" textLength="108" x="1011.5" y="99.7399">PrivacyZoneMgr</text><rect fill="#E2E2F0" height="33.0679" rx="2.5" ry="2.5" style="stroke:#181818;stroke-width:0.5;" width="122" x="1004.5" y="1810.3788"/><text fill="#000000" font-family="sans-serif" font-size="14" lengthAdjust="spacing" textLength="108" x="1011.5" y="1832.3447">PrivacyZoneMgr</text><rect fill="#E2E2F0" height="33.0679" rx="2.5" ry="2.5" style="stroke:#181818;stroke-width:0.5;" width="117" x="1203" y="77.7739"/><text fill="#000000" font-family="sans-serif" font-size="14" lengthAdjust="spacing" textLength="103" x="1210" y="99.7399">ConnectorEdge</text><rect fill="#E2E2F0" height="33.0679" rx="2.5" ry="2.5" style="stroke:#181818;stroke-width:0.5;" width="117" x="1203" y="1810.3788"/><text fill="#000000" font-family="sans-serif" font-size="14" lengthAdjust="spacing" textLength="103" x="1210" y="1832.3447">ConnectorEdge</text><text fill="#000000" font-family="sans-serif" font-size="14" lengthAdjust="spacing" textLength="68" x="1330" y="107.7399">Scheduler</text><ellipse cx="1367" cy="76.7739" fill="#E2E2F0" rx="12" ry="12" style="stroke:#181818;stroke-width:0.5;"/><polygon fill="#181818" points="1363,64.7739,1369,59.7739,1367,64.7739,1369,69.7739,1363,64.7739" style="stroke:#181818;stroke-width:1.0;"/><text fill="#000000" font-family="sans-serif" font-size="14" lengthAdjust="spacing" textLength="68" x="1330" y="1825.3447">Scheduler</text><ellipse cx="1367" cy="1845.4467" fill="#E2E2F0" rx="12" ry="12" style="stroke:#181818;stroke-width:0.5;"/><polygon fill="#181818" points="1363,1833.4467,1369,1828.4467,1367,1833.4467,1369,1838.4467,1363,1833.4467" style="stroke:#181818;stroke-width:1.0;"/><rect fill="#E2E2F0" height="33.0679" rx="2.5" ry="2.5" style="stroke:#181818;stroke-width:0.5;" width="112" x="1481" y="77.7739"/><text fill="#000000" font-family="sans-serif" font-size="14" lengthAdjust="spacing" textLength="98" x="1488" y="99.7399">ArtifactBuilder</text><rect fill="#E2E2F0" height="33.0679" rx="2.5" ry="2.5" style="stroke:#181818;stroke-width:0.5;" width="112" x="1481" y="1810.3788"/><text fill="#000000" font-family="sans-serif" font-size="14" lengthAdjust="spacing" textLength="98" x="1488" y="1832.3447">ArtifactBuilder</text><rect fill="#E2E2F0" height="33.0679" rx="2.5" ry="2.5" style="stroke:#181818;stroke-width:0.5;" width="73" x="1604" y="77.7739"/><text fill="#000000" font-family="sans-serif" font-size="14" lengthAdjust="spacing" textLength="59" x="1611" y="99.7399">Wrapper</text><rect fill="#E2E2F0" height="33.0679" rx="2.5" ry="2.5" style="stroke:#181818;stroke-width:0.5;" width="73" x="1604" y="1810.3788"/><text fill="#000000" font-family="sans-serif" font-size="14" lengthAdjust="spacing" textLength="59" x="1611" y="1832.3447">Wrapper</text><rect fill="#E2E2F0" height="33.0679" rx="2.5" ry="2.5" style="stroke:#181818;stroke-width:0.5;" width="98" x="1743.5" y="77.7739"/><text fill="#000000" font-family="sans-serif" font-size="14" lengthAdjust="spacing" textLength="84" x="1750.5" y="99.7399">WorkerNode</text><rect fill="#E2E2F0" height="33.0679" rx="2.5" ry="2.5" style="stroke:#181818;stroke-width:0.5;" width="98" x="1743.5" y="1810.3788"/><text fill="#000000" font-family="sans-serif" font-size="14" lengthAdjust="spacing" textLength="84" x="1750.5" y="1832.3447">WorkerNode</text><rect fill="#FFFFFF" height="428.8842" style="stroke:#181818;stroke-width:1.0;" width="10" x="1635.5" y="1332.7885"/><polygon fill="#FEFFDD" points="26,126.8419,824,126.8419,834,138.8419,824,151.8419,26,151.8419,16,138.8419,26,126.8419" style="stroke:#181818;stroke-width:0.5;"/><text fill="#000000" font-family="sans-serif" font-size="13" lengthAdjust="spacing" textLength="187" x="331.75" y="144.7389">Gathering Contracts &amp; Consent</text><polygon fill="#181818" points="857.5,177.2539,867.5,181.2539,857.5,185.2539,861.5,181.2539" style="stroke:#181818;stroke-width:1.0;"/><line style="stroke:#181818;stroke-width:1.0;" x1="57.5" x2="863.5" y1="181.2539" y2="181.2539"/><text fill="#000000" font-family="sans-serif" font-size="13" lengthAdjust="spacing" textLength="614" x="64.5" y="175.4449">requestEdgeProc(Function F, PrivateData PD, Contracts (Cd, Cf), Consent Cons(F on PD), AccessToken T)</text><polygon fill="#181818" points="565,208.9599,555,212.9599,565,216.9599,561,212.9599" style="stroke:#181818;stroke-width:1.0;"/><line style="stroke:#181818;stroke-width:1.0;" x1="559" x2="868.5" y1="212.9599" y2="212.9599"/><text fill="#000000" font-family="sans-serif" font-size="13" lengthAdjust="spacing" textLength="181" x="571" y="207.1509">getAccessInfo(PrivateData PD)</text><polygon fill="#181818" points="857.5,240.6659,867.5,244.6659,857.5,248.6659,861.5,244.6659" style="stroke:#181818;stroke-width:1.0;"/><line style="stroke:#181818;stroke-width:1.0;" x1="554" x2="863.5" y1="244.6659" y2="244.6659"/><text fill="#000000" font-family="sans-serif" font-size="13" lengthAdjust="spacing" textLength="277" x="561" y="238.8569">ID of DataProvider, AccessInfo of its Connector</text><rect fill="#EEEEEE" height="3" style="stroke:#EEEEEE;stroke-width:1.0;" width="1846.5" x="0" y="274.5189"/><line style="stroke:#000000;stroke-width:1.0;" x1="0" x2="1846.5" y1="274.5189" y2="274.5189"/><line style="stroke:#000000;stroke-width:1.0;" x1="0" x2="1846.5" y1="277.5189" y2="277.5189"/><rect fill="#EEEEEE" height="25.706" style="stroke:#000000;stroke-width:2.0;" width="205" x="820.75" y="262.6659"/><text fill="#000000" font-family="sans-serif" font-size="13" font-weight="bold" lengthAdjust="spacing" textLength="188" x="826.75" y="280.5629">Gathering Privacy Zone Data</text><polygon fill="#181818" points="1053.5,335.784,1063.5,339.784,1053.5,343.784,1057.5,339.784" style="stroke:#181818;stroke-width:1.0;"/><line style="stroke:#181818;stroke-width:1.0;" x1="869.5" x2="1059.5" y1="339.784" y2="339.784"/><text fill="#000000" font-family="sans-serif" font-size="13" lengthAdjust="spacing" textLength="169" x="876.5" y="316.2689">getPZData(DataProvider DP,</text><text fill="#000000" font-family="sans-serif" font-size="13" lengthAdjust="spacing" textLength="94" x="876.5" y="333.975">PrivateData PD)</text><polygon fill="#181818" points="1249.5,385.196,1259.5,389.196,1249.5,393.196,1253.5,389.196" style="stroke:#181818;stroke-width:1.0;"/><line style="stroke:#181818;stroke-width:1.0;" x1="1065.5" x2="1255.5" y1="389.196" y2="389.196"/><text fill="#000000" font-family="sans-serif" font-size="13" lengthAdjust="spacing" textLength="169" x="1072.5" y="365.681">getPZData(DataProvider DP,</text><text fill="#000000" font-family="sans-serif" font-size="13" lengthAdjust="spacing" textLength="94" x="1072.5" y="383.387">PrivateData PD)</text><polygon fill="#181818" points="472,416.902,462,420.902,472,424.902,468,420.902" style="stroke:#181818;stroke-width:1.0;"/><line style="stroke:#181818;stroke-width:1.0;" x1="466" x2="1260.5" y1="420.902" y2="420.902"/><text fill="#000000" font-family="sans-serif" font-size="13" lengthAdjust="spacing" textLength="266" x="478" y="415.093">getPZData(DataProvider DP, PrivateData PD)</text><polygon fill="#181818" points="781,466.314,791,470.314,781,474.314,785,470.314" style="stroke:#181818;stroke-width:1.0;"/><line style="stroke:#181818;stroke-width:1.0;" x1="461" x2="787" y1="470.314" y2="470.314"/><text fill="#000000" font-family="sans-serif" font-size="13" lengthAdjust="spacing" textLength="280" x="468" y="446.799">verify contracts (DataProvider, CloudProviders)</text><text fill="#000000" font-family="sans-serif" font-size="13" lengthAdjust="spacing" textLength="303" x="468" y="464.505">get list of contracted CPs, other privacy constraints</text><polygon fill="#181818" points="472,498.0201,462,502.0201,472,506.0201,468,502.0201" style="stroke:#181818;stroke-width:1.0;"/><line style="stroke:#181818;stroke-width:1.0;" x1="466" x2="792" y1="502.0201" y2="502.0201"/><text fill="#000000" font-family="sans-serif" font-size="13" lengthAdjust="spacing" textLength="259" x="478" y="496.2111">OK, list of CPs and other privacy constraints</text><polygon fill="#181818" points="1249.5,529.7261,1259.5,533.7261,1249.5,537.7261,1253.5,533.7261" style="stroke:#181818;stroke-width:1.0;"/><line style="stroke:#181818;stroke-width:1.0;" x1="461" x2="1255.5" y1="533.7261" y2="533.7261"/><text fill="#000000" font-family="sans-serif" font-size="13" lengthAdjust="spacing" textLength="368" x="468" y="527.9171">PrivacyZoneData PZData (of DataProvider DP, PrivateData PD)</text><polygon fill="#181818" points="1076.5,561.4321,1066.5,565.4321,1076.5,569.4321,1072.5,565.4321" style="stroke:#181818;stroke-width:1.0;"/><line style="stroke:#181818;stroke-width:1.0;" x1="1070.5" x2="1260.5" y1="565.4321" y2="565.4321"/><text fill="#000000" font-family="sans-serif" font-size="13" lengthAdjust="spacing" textLength="147" x="1082.5" y="559.6231">PrivacyZoneData PZData</text><polygon fill="#181818" points="880.5,593.1381,870.5,597.1381,880.5,601.1381,876.5,597.1381" style="stroke:#181818;stroke-width:1.0;"/><line style="stroke:#181818;stroke-width:1.0;" x1="874.5" x2="1064.5" y1="597.1381" y2="597.1381"/><text fill="#000000" font-family="sans-serif" font-size="13" lengthAdjust="spacing" textLength="147" x="886.5" y="591.3291">PrivacyZoneData PZData</text><rect fill="#EEEEEE" height="3" style="stroke:#EEEEEE;stroke-width:1.0;" width="1846.5" x="0" y="626.9911"/><line style="stroke:#000000;stroke-width:1.0;" x1="0" x2="1846.5" y1="626.9911" y2="626.9911"/><line style="stroke:#000000;stroke-width:1.0;" x1="0" x2="1846.5" y1="629.9911" y2="629.9911"/><rect fill="#EEEEEE" height="25.706" style="stroke:#000000;stroke-width:2.0;" width="223" x="811.75" y="615.1381"/><text fill="#000000" font-family="sans-serif" font-size="13" font-weight="bold" lengthAdjust="spacing" textLength="206" x="817.75" y="633.0351">Building and Deploying Artifact</text><polygon fill="#181818" points="1355,705.9622,1365,709.9622,1355,713.9622,1359,709.9622" style="stroke:#181818;stroke-width:1.0;"/><line style="stroke:#181818;stroke-width:1.0;" x1="869.5" x2="1361" y1="709.9622" y2="709.9622"/><text fill="#000000" font-family="sans-serif" font-size="13" lengthAdjust="spacing" textLength="269" x="876.5" y="668.7411">requestEdgeProc(Function F, PrivateData PD,</text><text fill="#000000" font-family="sans-serif" font-size="13" lengthAdjust="spacing" textLength="341" x="876.5" y="686.4472">Contracts (Cd, Cf), Consent Cons(F on PD), AccessToken T,</text><text fill="#000000" font-family="sans-serif" font-size="13" lengthAdjust="spacing" textLength="151" x="876.5" y="704.1532">PrivacyZoneData PZData)</text><polygon fill="#181818" points="1525,808.4923,1535,812.4923,1525,816.4923,1529,812.4923" style="stroke:#181818;stroke-width:1.0;"/><line style="stroke:#181818;stroke-width:1.0;" x1="1367" x2="1531" y1="812.4923" y2="812.4923"/><text fill="#000000" font-family="sans-serif" font-size="13" lengthAdjust="spacing" textLength="143" x="1374" y="735.8592">buildArtifact(Function F,</text><text fill="#000000" font-family="sans-serif" font-size="13" lengthAdjust="spacing" textLength="93" x="1374" y="753.5652">PrivateData PD,</text><text fill="#000000" font-family="sans-serif" font-size="13" lengthAdjust="spacing" textLength="106" x="1374" y="771.2712">Contracts (Cd, Cf),</text><text fill="#000000" font-family="sans-serif" font-size="13" lengthAdjust="spacing" textLength="140" x="1374" y="788.9772">Consent Cons(F on PD),</text><text fill="#000000" font-family="sans-serif" font-size="13" lengthAdjust="spacing" textLength="90" x="1374" y="806.6833">AccessToken T)</text><polygon fill="#181818" points="1272.5,840.1983,1262.5,844.1983,1272.5,848.1983,1268.5,844.1983" style="stroke:#181818;stroke-width:1.0;"/><line style="stroke:#181818;stroke-width:1.0;" x1="1266.5" x2="1536" y1="844.1983" y2="844.1983"/><text fill="#000000" font-family="sans-serif" font-size="13" lengthAdjust="spacing" textLength="170" x="1278.5" y="838.3893">requestFunction(Function F)</text><polygon fill="#181818" points="565,871.9043,555,875.9043,565,879.9043,561,875.9043" style="stroke:#181818;stroke-width:1.0;"/><line style="stroke:#181818;stroke-width:1.0;" x1="559" x2="1260.5" y1="875.9043" y2="875.9043"/><text fill="#000000" font-family="sans-serif" font-size="13" lengthAdjust="spacing" textLength="154" x="571" y="870.0953">getAccessInfo(Function F)</text><polygon fill="#181818" points="1249.5,903.6103,1259.5,907.6103,1249.5,911.6103,1253.5,907.6103" style="stroke:#181818;stroke-width:1.0;"/><line style="stroke:#181818;stroke-width:1.0;" x1="554" x2="1255.5" y1="907.6103" y2="907.6103"/><text fill="#000000" font-family="sans-serif" font-size="13" lengthAdjust="spacing" textLength="302" x="561" y="901.8013">ID of FunctionProvider, AccessInfo of its Connector</text><polygon fill="#181818" points="264,935.3163,254,939.3163,264,943.3163,260,939.3163" style="stroke:#181818;stroke-width:1.0;"/><line style="stroke:#181818;stroke-width:1.0;" x1="258" x2="1260.5" y1="939.3163" y2="939.3163"/><text fill="#000000" font-family="sans-serif" font-size="13" lengthAdjust="spacing" textLength="243" x="270" y="933.5073">requestFunction(Function F, Contract Cf)</text><polygon fill="#181818" points="781,967.0223,791,971.0223,781,975.0223,785,971.0223" style="stroke:#181818;stroke-width:1.0;"/><line style="stroke:#181818;stroke-width:1.0;" x1="253" x2="787" y1="971.0223" y2="971.0223"/><text fill="#000000" font-family="sans-serif" font-size="13" lengthAdjust="spacing" textLength="160" x="260" y="965.2133">verifyContract(Contract Cf)</text><polygon fill="#181818" points="264,998.7284,254,1002.7284,264,1006.7284,260,1002.7284" style="stroke:#181818;stroke-width:1.0;"/><line style="stroke:#181818;stroke-width:1.0;" x1="258" x2="792" y1="1002.7284" y2="1002.7284"/><text fill="#000000" font-family="sans-serif" font-size="13" lengthAdjust="spacing" textLength="18" x="270" y="996.9194">OK</text><polygon fill="#181818" points="163,1048.1404,153,1052.1404,163,1056.1404,159,1052.1404" style="stroke:#181818;stroke-width:1.0;"/><line style="stroke:#181818;stroke-width:1.0;" x1="157" x2="252" y1="1052.1404" y2="1052.1404"/><text fill="#000000" font-family="sans-serif" font-size="13" lengthAdjust="spacing" textLength="77" x="169" y="1028.6254">getFunction(</text><text fill="#000000" font-family="sans-serif" font-size="13" lengthAdjust="spacing" textLength="67" x="169" y="1046.3314">Function F)</text><polygon fill="#181818" points="241,1079.8464,251,1083.8464,241,1087.8464,245,1083.8464" style="stroke:#181818;stroke-width:1.0;"/><line style="stroke:#181818;stroke-width:1.0;" x1="152" x2="247" y1="1083.8464" y2="1083.8464"/><text fill="#000000" font-family="sans-serif" font-size="13" lengthAdjust="spacing" textLength="63" x="159" y="1078.0374">Function F</text><polygon fill="#181818" points="1249.5,1111.5524,1259.5,1115.5524,1249.5,1119.5524,1253.5,1115.5524" style="stroke:#181818;stroke-width:1.0;"/><line style="stroke:#181818;stroke-width:1.0;" x1="253" x2="1255.5" y1="1115.5524" y2="1115.5524"/><text fill="#000000" font-family="sans-serif" font-size="13" lengthAdjust="spacing" textLength="63" x="260" y="1109.7434">Function F</text><polygon fill="#181818" points="1525,1143.2584,1535,1147.2584,1525,1151.2584,1529,1147.2584" style="stroke:#181818;stroke-width:1.0;"/><line style="stroke:#181818;stroke-width:1.0;" x1="1261.5" x2="1531" y1="1147.2584" y2="1147.2584"/><text fill="#000000" font-family="sans-serif" font-size="13" lengthAdjust="spacing" textLength="63" x="1268.5" y="1141.4494">Function F</text><polygon fill="#181818" points="1378,1174.9645,1368,1178.9645,1378,1182.9645,1374,1178.9645" style="stroke:#181818;stroke-width:1.0;"/><line style="stroke:#181818;stroke-width:1.0;" x1="1372" x2="1536" y1="1178.9645" y2="1178.9645"/><text fill="#000000" font-family="sans-serif" font-size="13" lengthAdjust="spacing" textLength="91" x="1384" y="1173.1555">done, Artifact A</text><line style="stroke:#181818;stroke-width:1.0;" x1="1367" x2="1409" y1="1210.6705" y2="1210.6705"/><line style="stroke:#181818;stroke-width:1.0;" x1="1409" x2="1409" y1="1210.6705" y2="1223.6705"/><line style="stroke:#181818;stroke-width:1.0;" x1="1368" x2="1409" y1="1223.6705" y2="1223.6705"/><polygon fill="#181818" points="1378,1219.6705,1368,1223.6705,1378,1227.6705,1374,1223.6705" style="stroke:#181818;stroke-width:1.0;"/><text fill="#000000" font-family="sans-serif" font-size="13" lengthAdjust="spacing" textLength="115" x="1374" y="1204.8615">schedule(Artifact A)</text><polygon fill="#181818" points="1780.5,1251.3765,1790.5,1255.3765,1780.5,1259.3765,1784.5,1255.3765" style="stroke:#181818;stroke-width:1.0;"/><line style="stroke:#181818;stroke-width:1.0;" x1="1367" x2="1786.5" y1="1255.3765" y2="1255.3765"/><text fill="#000000" font-family="sans-serif" font-size="13" lengthAdjust="spacing" textLength="146" x="1374" y="1249.5675">deployArtifact(Artifact A)</text><rect fill="#EEEEEE" height="3" style="stroke:#EEEEEE;stroke-width:1.0;" width="1846.5" x="0" y="1285.2295"/><line style="stroke:#000000;stroke-width:1.0;" x1="0" x2="1846.5" y1="1285.2295" y2="1285.2295"/><line style="stroke:#000000;stroke-width:1.0;" x1="0" x2="1846.5" y1="1288.2295" y2="1288.2295"/><rect fill="#EEEEEE" height="25.706" style="stroke:#000000;stroke-width:2.0;" width="276" x="785.25" y="1273.3765"/><text fill="#000000" font-family="sans-serif" font-size="13" font-weight="bold" lengthAdjust="spacing" textLength="259" x="791.25" y="1291.2735">Executing the Function on Private Data</text><polygon fill="#181818" points="1656.5,1328.7885,1646.5,1332.7885,1656.5,1336.7885,1652.5,1332.7885" style="stroke:#181818;stroke-width:1.0;"/><line style="stroke:#181818;stroke-width:1.0;" x1="1650.5" x2="1791.5" y1="1332.7885" y2="1332.7885"/><text fill="#000000" font-family="sans-serif" font-size="13" lengthAdjust="spacing" textLength="81" x="1662.5" y="1326.9795">init(Artifact A)</text><polygon fill="#181818" points="1272.5,1378.2006,1262.5,1382.2006,1272.5,1386.2006,1268.5,1382.2006" style="stroke:#181818;stroke-width:1.0;"/><line style="stroke:#181818;stroke-width:1.0;" x1="1266.5" x2="1634.5" y1="1382.2006" y2="1382.2006"/><text fill="#000000" font-family="sans-serif" font-size="13" lengthAdjust="spacing" textLength="293" x="1278.5" y="1358.6855">requestData/wPrivacyPreserving(PrivateData PD,</text><text fill="#000000" font-family="sans-serif" font-size="13" lengthAdjust="spacing" textLength="310" x="1278.5" y="1376.3916">Contract Cd, Consent Cons(F on PD), AccessToken T)</text><polygon fill="#181818" points="472,1409.9066,462,1413.9066,472,1417.9066,468,1413.9066" style="stroke:#181818;stroke-width:1.0;"/><line style="stroke:#181818;stroke-width:1.0;" x1="466" x2="1260.5" y1="1413.9066" y2="1413.9066"/><text fill="#000000" font-family="sans-serif" font-size="13" lengthAdjust="spacing" textLength="514" x="478" y="1408.0976">requestData/wPrivacyPreserving(PrivateData PD, Contract Cd, Consent Cons(F on PD))</text><polygon fill="#181818" points="781,1441.6126,791,1445.6126,781,1449.6126,785,1445.6126" style="stroke:#181818;stroke-width:1.0;"/><line style="stroke:#181818;stroke-width:1.0;" x1="461" x2="787" y1="1445.6126" y2="1445.6126"/><text fill="#000000" font-family="sans-serif" font-size="13" lengthAdjust="spacing" textLength="164" x="468" y="1439.8036">verifyContract(Contract Cd)</text><polygon fill="#181818" points="472,1473.3186,462,1477.3186,472,1481.3186,468,1477.3186" style="stroke:#181818;stroke-width:1.0;"/><line style="stroke:#181818;stroke-width:1.0;" x1="466" x2="792" y1="1477.3186" y2="1477.3186"/><text fill="#000000" font-family="sans-serif" font-size="13" lengthAdjust="spacing" textLength="18" x="478" y="1471.5096">OK</text><polygon fill="#181818" points="701,1505.0246,711,1509.0246,701,1513.0246,705,1509.0246" style="stroke:#181818;stroke-width:1.0;"/><line style="stroke:#181818;stroke-width:1.0;" x1="461" x2="707" y1="1509.0246" y2="1509.0246"/><text fill="#000000" font-family="sans-serif" font-size="13" lengthAdjust="spacing" textLength="228" x="468" y="1503.2156">verifyConsent(Consent Cons(F on PD))</text><polygon fill="#181818" points="472,1536.7306,462,1540.7306,472,1544.7306,468,1540.7306" style="stroke:#181818;stroke-width:1.0;"/><line style="stroke:#181818;stroke-width:1.0;" x1="466" x2="712" y1="1540.7306" y2="1540.7306"/><text fill="#000000" font-family="sans-serif" font-size="13" lengthAdjust="spacing" textLength="18" x="478" y="1534.9216">OK</text><polygon fill="#181818" points="354,1586.1427,344,1590.1427,354,1594.1427,350,1590.1427" style="stroke:#181818;stroke-width:1.0;"/><line style="stroke:#181818;stroke-width:1.0;" x1="348" x2="460" y1="1590.1427" y2="1590.1427"/><text fill="#000000" font-family="sans-serif" font-size="13" lengthAdjust="spacing" textLength="52" x="360" y="1566.6277">getData(</text><text fill="#000000" font-family="sans-serif" font-size="13" lengthAdjust="spacing" textLength="94" x="360" y="1584.3337">PrivateData PD)</text><polygon fill="#181818" points="449,1617.8487,459,1621.8487,449,1625.8487,453,1621.8487" style="stroke:#181818;stroke-width:1.0;"/><line style="stroke:#181818;stroke-width:1.0;" x1="343" x2="455" y1="1621.8487" y2="1621.8487"/><text fill="#000000" font-family="sans-serif" font-size="13" lengthAdjust="spacing" textLength="90" x="350" y="1616.0397">PrivateData PD</text><polygon fill="#181818" points="1249.5,1649.5547,1259.5,1653.5547,1249.5,1657.5547,1253.5,1653.5547" style="stroke:#181818;stroke-width:1.0;"/><line style="stroke:#181818;stroke-width:1.0;" x1="461" x2="1255.5" y1="1653.5547" y2="1653.5547"/><text fill="#000000" font-family="sans-serif" font-size="13" lengthAdjust="spacing" textLength="350" x="468" y="1647.7457">PrivateData PD (privacy preserving sending of PrivateData)</text><polygon fill="#181818" points="1623.5,1681.2607,1633.5,1685.2607,1623.5,1689.2607,1627.5,1685.2607" style="stroke:#181818;stroke-width:1.0;"/><line style="stroke:#181818;stroke-width:1.0;" x1="1261.5" x2="1629.5" y1="1685.2607" y2="1685.2607"/><text fill="#000000" font-family="sans-serif" font-size="13" lengthAdjust="spacing" textLength="350" x="1268.5" y="1679.4517">PrivateData PD (privacy preserving sending of PrivateData)</text><line style="stroke:#181818;stroke-width:1.0;" x1="1645.5" x2="1687.5" y1="1716.9667" y2="1716.9667"/><line style="stroke:#181818;stroke-width:1.0;" x1="1687.5" x2="1687.5" y1="1716.9667" y2="1729.9667"/><line style="stroke:#181818;stroke-width:1.0;" x1="1646.5" x2="1687.5" y1="1729.9667" y2="1729.9667"/><polygon fill="#181818" points="1656.5,1725.9667,1646.5,1729.9667,1656.5,1733.9667,1652.5,1729.9667" style="stroke:#181818;stroke-width:1.0;"/><text fill="#000000" font-family="sans-serif" font-size="13" lengthAdjust="spacing" textLength="118" x="1652.5" y="1711.1577">execute(Function F)</text><polygon fill="#181818" points="880.5,1757.6728,870.5,1761.6728,880.5,1765.6728,876.5,1761.6728" style="stroke:#181818;stroke-width:1.0;"/><line style="stroke:#181818;stroke-width:1.0;" x1="874.5" x2="1639.5" y1="1761.6728" y2="1761.6728"/><text fill="#000000" font-family="sans-serif" font-size="13" lengthAdjust="spacing" textLength="48" x="886.5" y="1755.8638">Result R</text><line style="stroke:#A80036;stroke-width:2.0;" x1="1631.5" x2="1649.5" y1="1752.6728" y2="1770.6728"/><line style="stroke:#A80036;stroke-width:2.0;" x1="1631.5" x2="1649.5" y1="1770.6728" y2="1752.6728"/><polygon fill="#181818" points="68.5,1789.3788,58.5,1793.3788,68.5,1797.3788,64.5,1793.3788" style="stroke:#181818;stroke-width:1.0;"/><line style="stroke:#181818;stroke-width:1.0;" x1="62.5" x2="868.5" y1="1793.3788" y2="1793.3788"/><text fill="#000000" font-family="sans-serif" font-size="13" lengthAdjust="spacing" textLength="48" x="74.5" y="1787.5698">Result R</text><!--SRC=[fLPTJzim57tthxXYqfHAdVZOO5ib9b5A4Te74KFQXFgI9cw927RdE43__QwTsB6TjC3MbxREkUSUNzzpdJb_Wfr98XCuvQoixgdOWJUN8c5BIW0_gqJ8FCrN2PEm4mkUqhBCsN8ydh7THnN3Q2ev1YKbk8-1YumAE2IKPJ3dJsHk4oMuCgrOAdFELCn3ZiWIqtxBbxVoN53ATEeCmVEafB1Zq3Dcu3gVMJQBJSxzlOvogtCQ6z1Xa4D92_ZLKi1zi8LxOhWFWbt7rxyH9QYpnNMN1fCLVDbGlE_DKrByhW4VUW5I9Ab17ExvAiwo9KNC_QgIU48m7XivuwAgpthEAvObOWqAUX9VD4H7tLIno1-IT7t36Vs-DBKvEjnS6vsyXdsiwLAbbXVmCxsbMLNO2d_gPZl1dmlSsBZAY_OeFdU1lqIoMZbzq8FWuewA7pmpQlRtspAHMyObFdZ0TRUNXxQq8pXFv2qLge1chOItvcm8yIpmxekjv0W4_LFHKge51Ogi0wR3kfoIQdV4aw537Prc-7Sn6DhZLz_H59Hr9hXyagfyr_oEChWU49CFKvk66i6IoXfsmHOyyfCDYC5vQYycm1UU0KmgnQ6UvQZE7YyXnyTEQPhs0DKVcWJmiQijw1yjCRvHoCWptIGUWZAbhpY8Ldlr-koLT7wmouQEtigraGa3QvxQa2F0bieNwxhfwuFrQtjQy2gpit0mm_4heSXBgKfjecW6ft4v1Axg3AkcoFYqnCSvaoMn6JkxkFmwj7n8eeVmLfvW8rvvdGEezwxh0r7GCjjhPAhTwOL-zfvJRzjrGuZgIZqqL5Eg7K_egk1hzS_C5EnCjp7RQVGgnyxOlrhMDcH7_O2qOb1PE0H7C5U_pBAdBknnjT8dKA_sIPonOAw4sNkQeYcNqU48whFOXk7a1RM3ASnLZwVm_dzcH6ts-JJUghyToAfin0thSxbPYCAehZMdjJL3oiwBZIwJLJPZRfawu4w25jsZtQkhW-oMgzk13hodGLmlPTZRmzPq9tvlkyYo-HsruC09pXsEnDhHrWLka7B_sHDDw_STd7MjNltYgHrYhYVYiAeSpPl427AM-xJuLKSs66AmcpsXSkm-DZQF1IsfU41DqSOf0jgYBxhndxczNgS0dXSm8CzUSpq6o0PRxwOUIftPOLJ_emsApF8BcBtxITjAN-tTjm8Fs27sqUH55wQ5GsJkt9Kz2S0Dw6iAvvQ3xZdVjZN_WzNfsPQFQhDGRmWxmFQwlQ9bLKYu8Xcsbk1hQmNl5Szv4tP2_W80]--></g></svg>