<svg xmlns="http://www.w3.org/2000/svg" xmlns:xlink="http://www.w3.org/1999/xlink" contentStyleType="text/css" height="1799px" preserveAspectRatio="none" style="width:1887px;height:1799px;background:#FFFFFF;" version="1.1" viewBox="0 0 1887 1799" width="1887px" zoomAndPan="magnify"><defs/><g><rect fill="#90EE90" height="1780.3788" style="stroke:#181818;stroke-width:0.5;" width="216" x="1" y="6"/><text fill="#000000" font-family="sans-serif" font-size="13" font-weight="bold" lengthAdjust="spacing" textLength="90" x="64" y="19.897">Data Provider</text><rect fill="#D3D3D3" height="1780.3788" style="stroke:#181818;stroke-width:0.5;" width="233" x="347" y="6"/><text fill="#000000" font-family="sans-serif" font-size="13" font-weight="bold" lengthAdjust="spacing" textLength="58" x="434.5" y="19.897">PTX Core</text><rect fill="#FFA500" height="1780.3788" style="stroke:#181818;stroke-width:0.5;" width="113" x="582" y="6"/><text fill="#000000" font-family="sans-serif" font-size="13" font-weight="bold" lengthAdjust="spacing" textLength="102" x="587.5" y="19.897">Data Consumer</text><rect fill="#ADD8E6" height="1780.3788" style="stroke:#181818;stroke-width:0.5;" width="1076" x="803.5" y="6"/><text fill="#000000" font-family="sans-serif" font-size="13" font-weight="bold" lengthAdjust="spacing" textLength="128" x="1277.5" y="19.897">Edge Computing BB</text><rect fill="#FFFFFF" height="464.2963" style="stroke:#181818;stroke-width:1.0;" width="10" x="1668.5" y="1204.3086"/><line style="stroke:#181818;stroke-width:0.5;stroke-dasharray:5.0,5.0;" x1="51" x2="51" y1="92.7739" y2="1718.3109"/><line style="stroke:#181818;stroke-width:0.5;stroke-dasharray:5.0,5.0;" x1="171" x2="171" y1="92.7739" y2="1718.3109"/><line style="stroke:#181818;stroke-width:0.5;stroke-dasharray:5.0,5.0;" x1="386" x2="386" y1="92.7739" y2="1718.3109"/><line style="stroke:#181818;stroke-width:0.5;stroke-dasharray:5.0,5.0;" x1="466" x2="466" y1="92.7739" y2="1718.3109"/><line style="stroke:#181818;stroke-width:0.5;stroke-dasharray:5.0,5.0;" x1="543" x2="543" y1="92.7739" y2="1718.3109"/><line style="stroke:#181818;stroke-width:0.5;stroke-dasharray:5.0,5.0;" x1="638" x2="638" y1="92.7739" y2="1718.3109"/><line style="stroke:#181818;stroke-width:0.5;stroke-dasharray:5.0,5.0;" x1="838.5" x2="838.5" y1="92.7739" y2="1718.3109"/><line style="stroke:#181818;stroke-width:0.5;stroke-dasharray:5.0,5.0;" x1="1057.5" x2="1057.5" y1="92.7739" y2="1718.3109"/><line style="stroke:#181818;stroke-width:0.5;stroke-dasharray:5.0,5.0;" x1="1276" x2="1276" y1="92.7739" y2="1718.3109"/><line style="stroke:#181818;stroke-width:0.5;stroke-dasharray:5.0,5.0;" x1="1382" x2="1382" y1="92.7739" y2="1718.3109"/><line style="stroke:#181818;stroke-width:0.5;stroke-dasharray:5.0,5.0;" x1="1571" x2="1571" y1="92.7739" y2="1718.3109"/><line style="stroke:#181818;stroke-width:0.5;stroke-dasharray:5.0,5.0;" x1="1673" x2="1673" y1="92.7739" y2="1718.3109"/><line style="stroke:#181818;stroke-width:0.5;stroke-dasharray:5.0,5.0;" x1="1826.5" x2="1826.5" y1="92.7739" y2="1718.3109"/><text fill="#000000" font-family="sans-serif" font-size="14" lengthAdjust="spacing" textLength="87" x="5" y="88.672">DataProvider</text><path d="M33.5,37.706 C33.5,27.706 51.5,27.706 51.5,27.706 C51.5,27.706 69.5,27.706 69.5,37.706 L69.5,63.706 C69.5,73.706 51.5,73.706 51.5,73.706 C51.5,73.706 33.5,73.706 33.5,63.706 L33.5,37.706 " fill="#E2E2F0" style="stroke:#181818;stroke-width:1.5;"/><path d="M33.5,37.706 C33.5,47.706 51.5,47.706 51.5,47.706 C51.5,47.706 69.5,47.706 69.5,37.706 " fill="none" style="stroke:#181818;stroke-width:1.5;"/><text fill="#000000" font-family="sans-serif" font-size="14" lengthAdjust="spacing" textLength="87" x="5" y="1732.2768">DataProvider</text><path d="M33.5,1746.3788 C33.5,1736.3788 51.5,1736.3788 51.5,1736.3788 C51.5,1736.3788 69.5,1736.3788 69.5,1746.3788 L69.5,1772.3788 C69.5,1782.3788 51.5,1782.3788 51.5,1782.3788 C51.5,1782.3788 33.5,1782.3788 33.5,1772.3788 L33.5,1746.3788 " fill="#E2E2F0" style="stroke:#181818;stroke-width:1.5;"/><path d="M33.5,1746.3788 C33.5,1756.3788 51.5,1756.3788 51.5,1756.3788 C51.5,1756.3788 69.5,1756.3788 69.5,1746.3788 " fill="none" style="stroke:#181818;stroke-width:1.5;"/><rect fill="#E2E2F0" height="33.0679" rx="2.5" ry="2.5" style="stroke:#181818;stroke-width:0.5;" width="83" x="130" y="58.706"/><text fill="#000000" font-family="sans-serif" font-size="14" lengthAdjust="spacing" textLength="69" x="137" y="80.672">Connector</text><rect fill="#E2E2F0" height="33.0679" rx="2.5" ry="2.5" style="stroke:#181818;stroke-width:0.5;" width="83" x="130" y="1717.3109"/><text fill="#000000" font-family="sans-serif" font-size="14" lengthAdjust="spacing" textLength="69" x="137" y="1739.2768">Connector</text><rect fill="#E2E2F0" height="33.0679" rx="2.5" ry="2.5" style="stroke:#181818;stroke-width:0.5;" width="71" x="351" y="58.706"/><text fill="#000000" font-family="sans-serif" font-size="14" lengthAdjust="spacing" textLength="57" x="358" y="80.672">Contract</text><rect fill="#E2E2F0" height="33.0679" rx="2.5" ry="2.5" style="stroke:#181818;stroke-width:0.5;" width="71" x="351" y="1717.3109"/><text fill="#000000" font-family="sans-serif" font-size="14" lengthAdjust="spacing" textLength="57" x="358" y="1739.2768">Contract</text><rect fill="#E2E2F0" height="33.0679" rx="2.5" ry="2.5" style="stroke:#181818;stroke-width:0.5;" width="69" x="432" y="58.706"/><text fill="#000000" font-family="sans-serif" font-size="14" lengthAdjust="spacing" textLength="55" x="439" y="80.672">Consent</text><rect fill="#E2E2F0" height="33.0679" rx="2.5" ry="2.5" style="stroke:#181818;stroke-width:0.5;" width="69" x="432" y="1717.3109"/><text fill="#000000" font-family="sans-serif" font-size="14" lengthAdjust="spacing" textLength="55" x="439" y="1739.2768">Consent</text><rect fill="#E2E2F0" height="33.0679" rx="2.5" ry="2.5" style="stroke:#181818;stroke-width:0.5;" width="65" x="511" y="58.706"/><text fill="#000000" font-family="sans-serif" font-size="14" lengthAdjust="spacing" textLength="51" x="518" y="80.672">Catalog</text><rect fill="#E2E2F0" height="33.0679" rx="2.5" ry="2.5" style="stroke:#181818;stroke-width:0.5;" width="65" x="511" y="1717.3109"/><text fill="#000000" font-family="sans-serif" font-size="14" lengthAdjust="spacing" textLength="51" x="518" y="1739.2768">Catalog</text><rect fill="#E2E2F0" height="33.0679" rx="2.5" ry="2.5" style="stroke:#181818;stroke-width:0.5;" width="105" x="586" y="58.706"/><text fill="#000000" font-family="sans-serif" font-size="14" lengthAdjust="spacing" textLength="91" x="593" y="80.672">ProcessingBB</text><rect fill="#E2E2F0" height="33.0679" rx="2.5" ry="2.5" style="stroke:#181818;stroke-width:0.5;" width="105" x="586" y="1717.3109"/><text fill="#000000" font-family="sans-serif" font-size="14" lengthAdjust="spacing" textLength="91" x="593" y="1739.2768">ProcessingBB</text><text fill="#000000" font-family="sans-serif" font-size="14" lengthAdjust="spacing" textLength="56" x="807.5" y="88.672">EdgeAPI</text><path d="M818,45.706 L818,69.706 M818,57.706 L835,57.706 " fill="none" style="stroke:#181818;stroke-width:0.5;"/><ellipse cx="847" cy="57.706" fill="#E2E2F0" rx="12" ry="12" style="stroke:#181818;stroke-width:0.5;"/><text fill="#000000" font-family="sans-serif" font-size="14" lengthAdjust="spacing" textLength="56" x="807.5" y="1732.2768">EdgeAPI</text><path d="M818,1740.3788 L818,1764.3788 M818,1752.3788 L835,1752.3788 " fill="none" style="stroke:#181818;stroke-width:0.5;"/><ellipse cx="847" cy="1752.3788" fill="#E2E2F0" rx="12" ry="12" style="stroke:#181818;stroke-width:0.5;"/><rect fill="#E2E2F0" height="33.0679" rx="2.5" ry="2.5" style="stroke:#181818;stroke-width:0.5;" width="122" x="996.5" y="58.706"/><text fill="#000000" font-family="sans-serif" font-size="14" lengthAdjust="spacing" textLength="108" x="1003.5" y="80.672">PrivacyZoneMgr</text><rect fill="#E2E2F0" height="33.0679" rx="2.5" ry="2.5" style="stroke:#181818;stroke-width:0.5;" width="122" x="996.5" y="1717.3109"/><text fill="#000000" font-family="sans-serif" font-size="14" lengthAdjust="spacing" textLength="108" x="1003.5" y="1739.2768">PrivacyZoneMgr</text><rect fill="#E2E2F0" height="33.0679" rx="2.5" ry="2.5" style="stroke:#181818;stroke-width:0.5;" width="117" x="1218" y="58.706"/><text fill="#000000" font-family="sans-serif" font-size="14" lengthAdjust="spacing" textLength="103" x="1225" y="80.672">ConnectorEdge</text><rect fill="#E2E2F0" height="33.0679" rx="2.5" ry="2.5" style="stroke:#181818;stroke-width:0.5;" width="117" x="1218" y="1717.3109"/><text fill="#000000" font-family="sans-serif" font-size="14" lengthAdjust="spacing" textLength="103" x="1225" y="1739.2768">ConnectorEdge</text><text fill="#000000" font-family="sans-serif" font-size="14" lengthAdjust="spacing" textLength="68" x="1345" y="88.672">Scheduler</text><ellipse cx="1382" cy="57.706" fill="#E2E2F0" rx="12" ry="12" style="stroke:#181818;stroke-width:0.5;"/><polygon fill="#181818" points="1378,45.706,1384,40.706,1382,45.706,1384,50.706,1378,45.706" style="stroke:#181818;stroke-width:1.0;"/><text fill="#000000" font-family="sans-serif" font-size="14" lengthAdjust="spacing" textLength="68" x="1345" y="1732.2768">Scheduler</text><ellipse cx="1382" cy="1752.3788" fill="#E2E2F0" rx="12" ry="12" style="stroke:#181818;stroke-width:0.5;"/><polygon fill="#181818" points="1378,1740.3788,1384,1735.3788,1382,1740.3788,1384,1745.3788,1378,1740.3788" style="stroke:#181818;stroke-width:1.0;"/><rect fill="#E2E2F0" height="33.0679" rx="2.5" ry="2.5" style="stroke:#181818;stroke-width:0.5;" width="112" x="1515" y="58.706"/><text fill="#000000" font-family="sans-serif" font-size="14" lengthAdjust="spacing" textLength="98" x="1522" y="80.672">ArtifactBuilder</text><rect fill="#E2E2F0" height="33.0679" rx="2.5" ry="2.5" style="stroke:#181818;stroke-width:0.5;" width="112" x="1515" y="1717.3109"/><text fill="#000000" font-family="sans-serif" font-size="14" lengthAdjust="spacing" textLength="98" x="1522" y="1739.2768">ArtifactBuilder</text><rect fill="#E2E2F0" height="33.0679" rx="2.5" ry="2.5" style="stroke:#181818;stroke-width:0.5;" width="73" x="1637" y="58.706"/><text fill="#000000" font-family="sans-serif" font-size="14" lengthAdjust="spacing" textLength="59" x="1644" y="80.672">Wrapper</text><rect fill="#E2E2F0" height="33.0679" rx="2.5" ry="2.5" style="stroke:#181818;stroke-width:0.5;" width="73" x="1637" y="1717.3109"/><text fill="#000000" font-family="sans-serif" font-size="14" lengthAdjust="spacing" textLength="59" x="1644" y="1739.2768">Wrapper</text><rect fill="#E2E2F0" height="33.0679" rx="2.5" ry="2.5" style="stroke:#181818;stroke-width:0.5;" width="98" x="1777.5" y="58.706"/><text fill="#000000" font-family="sans-serif" font-size="14" lengthAdjust="spacing" textLength="84" x="1784.5" y="80.672">WorkerNode</text><rect fill="#E2E2F0" height="33.0679" rx="2.5" ry="2.5" style="stroke:#181818;stroke-width:0.5;" width="98" x="1777.5" y="1717.3109"/><text fill="#000000" font-family="sans-serif" font-size="14" lengthAdjust="spacing" textLength="84" x="1784.5" y="1739.2768">WorkerNode</text><rect fill="#FFFFFF" height="464.2963" style="stroke:#181818;stroke-width:1.0;" width="10" x="1668.5" y="1204.3086"/><polygon fill="#181818" points="826.5,175.598,836.5,179.598,826.5,183.598,830.5,179.598" style="stroke:#181818;stroke-width:1.0;"/><line style="stroke:#181818;stroke-width:1.0;" x1="638.5" x2="832.5" y1="179.598" y2="179.598"/><text fill="#000000" font-family="sans-serif" font-size="13" lengthAdjust="spacing" textLength="173" x="645.5" y="120.6709">requestEdgeProc(Function F,</text><text fill="#000000" font-family="sans-serif" font-size="13" lengthAdjust="spacing" textLength="162" x="645.5" y="138.377">PrivateData PD, Contract C,</text><text fill="#000000" font-family="sans-serif" font-size="13" lengthAdjust="spacing" textLength="140" x="645.5" y="156.083">Consent Cons(F on PD),</text><text fill="#000000" font-family="sans-serif" font-size="13" lengthAdjust="spacing" textLength="90" x="645.5" y="173.789">AccessToken T)</text><polygon fill="#181818" points="554.5,207.304,544.5,211.304,554.5,215.304,550.5,211.304" style="stroke:#181818;stroke-width:1.0;"/><line style="stroke:#181818;stroke-width:1.0;" x1="548.5" x2="837.5" y1="211.304" y2="211.304"/><text fill="#000000" font-family="sans-serif" font-size="13" lengthAdjust="spacing" textLength="139" x="560.5" y="205.495">getAccessInfo(Data PD)</text><polygon fill="#181818" points="826.5,239.01,836.5,243.01,826.5,247.01,830.5,243.01" style="stroke:#181818;stroke-width:1.0;"/><line style="stroke:#181818;stroke-width:1.0;" x1="543.5" x2="832.5" y1="243.01" y2="243.01"/><text fill="#000000" font-family="sans-serif" font-size="13" lengthAdjust="spacing" textLength="160" x="550.5" y="237.201">AccessInfo of DataProvider</text><rect fill="#EEEEEE" height="3" style="stroke:#EEEEEE;stroke-width:1.0;" width="1880.5" x="0" y="272.863"/><line style="stroke:#000000;stroke-width:1.0;" x1="0" x2="1880.5" y1="272.863" y2="272.863"/><line style="stroke:#000000;stroke-width:1.0;" x1="0" x2="1880.5" y1="275.863" y2="275.863"/><rect fill="#EEEEEE" height="25.706" style="stroke:#000000;stroke-width:2.0;" width="205" x="837.75" y="261.01"/><text fill="#000000" font-family="sans-serif" font-size="13" font-weight="bold" lengthAdjust="spacing" textLength="188" x="843.75" y="278.907">Gathering Privacy Zone Data</text><polygon fill="#181818" points="1045.5,334.1281,1055.5,338.1281,1045.5,342.1281,1049.5,338.1281" style="stroke:#181818;stroke-width:1.0;"/><line style="stroke:#181818;stroke-width:1.0;" x1="838.5" x2="1051.5" y1="338.1281" y2="338.1281"/><text fill="#000000" font-family="sans-serif" font-size="13" lengthAdjust="spacing" textLength="169" x="845.5" y="314.6131">getPZData(DataProvider DP,</text><text fill="#000000" font-family="sans-serif" font-size="13" lengthAdjust="spacing" textLength="94" x="845.5" y="332.3191">PrivateData PD)</text><polygon fill="#181818" points="1264.5,383.5401,1274.5,387.5401,1264.5,391.5401,1268.5,387.5401" style="stroke:#181818;stroke-width:1.0;"/><line style="stroke:#181818;stroke-width:1.0;" x1="1057.5" x2="1270.5" y1="387.5401" y2="387.5401"/><text fill="#000000" font-family="sans-serif" font-size="13" lengthAdjust="spacing" textLength="169" x="1064.5" y="364.0251">getPZData(DataProvider DP,</text><text fill="#000000" font-family="sans-serif" font-size="13" lengthAdjust="spacing" textLength="94" x="1064.5" y="381.7311">PrivateData PD)</text><polygon fill="#181818" points="182.5,415.2461,172.5,419.2461,182.5,423.2461,178.5,419.2461" style="stroke:#181818;stroke-width:1.0;"/><line style="stroke:#181818;stroke-width:1.0;" x1="176.5" x2="1275.5" y1="419.2461" y2="419.2461"/><text fill="#000000" font-family="sans-serif" font-size="13" lengthAdjust="spacing" textLength="266" x="188.5" y="413.4371">getPZData(DataProvider DP, PrivateData PD)</text><polygon fill="#181818" points="374.5,464.6582,384.5,468.6582,374.5,472.6582,378.5,468.6582" style="stroke:#181818;stroke-width:1.0;"/><line style="stroke:#181818;stroke-width:1.0;" x1="171.5" x2="380.5" y1="468.6582" y2="468.6582"/><text fill="#000000" font-family="sans-serif" font-size="13" lengthAdjust="spacing" textLength="181" x="178.5" y="445.1431">verify contracts (DataProvider,</text><text fill="#000000" font-family="sans-serif" font-size="13" lengthAdjust="spacing" textLength="96" x="178.5" y="462.8492">CloudProviders)</text><polygon fill="#181818" points="182.5,496.3642,172.5,500.3642,182.5,504.3642,178.5,500.3642" style="stroke:#181818;stroke-width:1.0;"/><line style="stroke:#181818;stroke-width:1.0;" x1="176.5" x2="385.5" y1="500.3642" y2="500.3642"/><text fill="#000000" font-family="sans-serif" font-size="13" lengthAdjust="spacing" textLength="81" x="188.5" y="494.5552">OK, list of CPs</text><polygon fill="#181818" points="1264.5,545.7762,1274.5,549.7762,1264.5,553.7762,1268.5,549.7762" style="stroke:#181818;stroke-width:1.0;"/><line style="stroke:#181818;stroke-width:1.0;" x1="171.5" x2="1270.5" y1="549.7762" y2="549.7762"/><text fill="#000000" font-family="sans-serif" font-size="13" lengthAdjust="spacing" textLength="184" x="178.5" y="526.2612">PZData (including list of CPs) of</text><text fill="#000000" font-family="sans-serif" font-size="13" lengthAdjust="spacing" textLength="195" x="181.5" y="543.9672">DataProvider DP, PrivateData PD</text><polygon fill="#181818" points="1068.5,595.1882,1058.5,599.1882,1068.5,603.1882,1064.5,599.1882" style="stroke:#181818;stroke-width:1.0;"/><line style="stroke:#181818;stroke-width:1.0;" x1="1062.5" x2="1275.5" y1="599.1882" y2="599.1882"/><text fill="#000000" font-family="sans-serif" font-size="13" lengthAdjust="spacing" textLength="184" x="1074.5" y="575.6732">PZData (including list of CPs) of</text><text fill="#000000" font-family="sans-serif" font-size="13" lengthAdjust="spacing" textLength="195" x="1074.5" y="593.3792">DataProvider DP, PrivateData PD</text><polygon fill="#181818" points="849.5,644.6003,839.5,648.6003,849.5,652.6003,845.5,648.6003" style="stroke:#181818;stroke-width:1.0;"/><line style="stroke:#181818;stroke-width:1.0;" x1="843.5" x2="1056.5" y1="648.6003" y2="648.6003"/><text fill="#000000" font-family="sans-serif" font-size="13" lengthAdjust="spacing" textLength="184" x="855.5" y="625.0853">PZData (including list of CPs) of</text><text fill="#000000" font-family="sans-serif" font-size="13" lengthAdjust="spacing" textLength="195" x="855.5" y="642.7913">DataProvider DP, PrivateData PD</text><rect fill="#EEEEEE" height="3" style="stroke:#EEEEEE;stroke-width:1.0;" width="1880.5" x="0" y="678.4533"/><line style="stroke:#000000;stroke-width:1.0;" x1="0" x2="1880.5" y1="678.4533" y2="678.4533"/><line style="stroke:#000000;stroke-width:1.0;" x1="0" x2="1880.5" y1="681.4533" y2="681.4533"/><rect fill="#EEEEEE" height="25.706" style="stroke:#000000;stroke-width:2.0;" width="223" x="828.75" y="666.6003"/><text fill="#000000" font-family="sans-serif" font-size="13" font-weight="bold" lengthAdjust="spacing" textLength="206" x="834.75" y="684.4973">Building and Deploying Artifact</text><polygon fill="#181818" points="1370,739.7183,1380,743.7183,1370,747.7183,1374,743.7183" style="stroke:#181818;stroke-width:1.0;"/><line style="stroke:#181818;stroke-width:1.0;" x1="838.5" x2="1376" y1="743.7183" y2="743.7183"/><text fill="#000000" font-family="sans-serif" font-size="13" lengthAdjust="spacing" textLength="269" x="845.5" y="720.2033">requestEdgeProc(Function F, PrivateData PD,</text><text fill="#000000" font-family="sans-serif" font-size="13" lengthAdjust="spacing" textLength="302" x="845.5" y="737.9093">Contract C, Consent Cons(F on PD), AccessToken T)</text><polygon fill="#181818" points="1559,824.5424,1569,828.5424,1559,832.5424,1563,828.5424" style="stroke:#181818;stroke-width:1.0;"/><line style="stroke:#181818;stroke-width:1.0;" x1="1382" x2="1565" y1="828.5424" y2="828.5424"/><text fill="#000000" font-family="sans-serif" font-size="13" lengthAdjust="spacing" textLength="143" x="1389" y="769.6153">buildArtifact(Function F,</text><text fill="#000000" font-family="sans-serif" font-size="13" lengthAdjust="spacing" textLength="162" x="1389" y="787.3214">PrivateData PD, Contract C,</text><text fill="#000000" font-family="sans-serif" font-size="13" lengthAdjust="spacing" textLength="140" x="1389" y="805.0274">Consent Cons(F on PD),</text><text fill="#000000" font-family="sans-serif" font-size="13" lengthAdjust="spacing" textLength="90" x="1389" y="822.7334">AccessToken T)</text><polygon fill="#181818" points="1287.5,856.2484,1277.5,860.2484,1287.5,864.2484,1283.5,860.2484" style="stroke:#181818;stroke-width:1.0;"/><line style="stroke:#181818;stroke-width:1.0;" x1="1281.5" x2="1570" y1="860.2484" y2="860.2484"/><text fill="#000000" font-family="sans-serif" font-size="13" lengthAdjust="spacing" textLength="170" x="1293.5" y="854.4394">requestFunction(Function F)</text><polygon fill="#181818" points="182.5,887.9544,172.5,891.9544,182.5,895.9544,178.5,891.9544" style="stroke:#181818;stroke-width:1.0;"/><line style="stroke:#181818;stroke-width:1.0;" x1="176.5" x2="1275.5" y1="891.9544" y2="891.9544"/><text fill="#000000" font-family="sans-serif" font-size="13" lengthAdjust="spacing" textLength="170" x="188.5" y="886.1454">requestFunction(Function F)</text><polygon fill="#181818" points="531.5,919.6604,541.5,923.6604,531.5,927.6604,535.5,923.6604" style="stroke:#181818;stroke-width:1.0;"/><line style="stroke:#181818;stroke-width:1.0;" x1="171.5" x2="537.5" y1="923.6604" y2="923.6604"/><text fill="#000000" font-family="sans-serif" font-size="13" lengthAdjust="spacing" textLength="170" x="178.5" y="917.8514">requestFunction(Function F)</text><polygon fill="#181818" points="182.5,951.3665,172.5,955.3665,182.5,959.3665,178.5,955.3665" style="stroke:#181818;stroke-width:1.0;"/><line style="stroke:#181818;stroke-width:1.0;" x1="176.5" x2="542.5" y1="955.3665" y2="955.3665"/><text fill="#000000" font-family="sans-serif" font-size="13" lengthAdjust="spacing" textLength="60" x="188.5" y="949.5575">function F</text><polygon fill="#181818" points="1264.5,983.0725,1274.5,987.0725,1264.5,991.0725,1268.5,987.0725" style="stroke:#181818;stroke-width:1.0;"/><line style="stroke:#181818;stroke-width:1.0;" x1="171.5" x2="1270.5" y1="987.0725" y2="987.0725"/><text fill="#000000" font-family="sans-serif" font-size="13" lengthAdjust="spacing" textLength="60" x="178.5" y="981.2635">function F</text><polygon fill="#181818" points="1559,1014.7785,1569,1018.7785,1559,1022.7785,1563,1018.7785" style="stroke:#181818;stroke-width:1.0;"/><line style="stroke:#181818;stroke-width:1.0;" x1="1276.5" x2="1565" y1="1018.7785" y2="1018.7785"/><text fill="#000000" font-family="sans-serif" font-size="13" lengthAdjust="spacing" textLength="60" x="1283.5" y="1012.9695">function F</text><polygon fill="#181818" points="1393,1046.4845,1383,1050.4845,1393,1054.4845,1389,1050.4845" style="stroke:#181818;stroke-width:1.0;"/><line style="stroke:#181818;stroke-width:1.0;" x1="1387" x2="1570" y1="1050.4845" y2="1050.4845"/><text fill="#000000" font-family="sans-serif" font-size="13" lengthAdjust="spacing" textLength="91" x="1399" y="1044.6755">done, Artifact A</text><line style="stroke:#181818;stroke-width:1.0;" x1="1382" x2="1424" y1="1082.1905" y2="1082.1905"/><line style="stroke:#181818;stroke-width:1.0;" x1="1424" x2="1424" y1="1082.1905" y2="1095.1905"/><line style="stroke:#181818;stroke-width:1.0;" x1="1383" x2="1424" y1="1095.1905" y2="1095.1905"/><polygon fill="#181818" points="1393,1091.1905,1383,1095.1905,1393,1099.1905,1389,1095.1905" style="stroke:#181818;stroke-width:1.0;"/><text fill="#000000" font-family="sans-serif" font-size="13" lengthAdjust="spacing" textLength="115" x="1389" y="1076.3815">schedule(Artifact A)</text><polygon fill="#181818" points="1814.5,1122.8965,1824.5,1126.8965,1814.5,1130.8965,1818.5,1126.8965" style="stroke:#181818;stroke-width:1.0;"/><line style="stroke:#181818;stroke-width:1.0;" x1="1382" x2="1820.5" y1="1126.8965" y2="1126.8965"/><text fill="#000000" font-family="sans-serif" font-size="13" lengthAdjust="spacing" textLength="146" x="1389" y="1121.0875">deployArtifact(Artifact A)</text><rect fill="#EEEEEE" height="3" style="stroke:#EEEEEE;stroke-width:1.0;" width="1880.5" x="0" y="1156.7496"/><line style="stroke:#000000;stroke-width:1.0;" x1="0" x2="1880.5" y1="1156.7496" y2="1156.7496"/><line style="stroke:#000000;stroke-width:1.0;" x1="0" x2="1880.5" y1="1159.7496" y2="1159.7496"/><rect fill="#EEEEEE" height="25.706" style="stroke:#000000;stroke-width:2.0;" width="276" x="802.25" y="1144.8965"/><text fill="#000000" font-family="sans-serif" font-size="13" font-weight="bold" lengthAdjust="spacing" textLength="259" x="808.25" y="1162.7936">Executing the Function on Private Data</text><polygon fill="#181818" points="1689.5,1200.3086,1679.5,1204.3086,1689.5,1208.3086,1685.5,1204.3086" style="stroke:#181818;stroke-width:1.0;"/><line style="stroke:#181818;stroke-width:1.0;" x1="1683.5" x2="1825.5" y1="1204.3086" y2="1204.3086"/><text fill="#000000" font-family="sans-serif" font-size="13" lengthAdjust="spacing" textLength="81" x="1695.5" y="1198.4996">init(Artifact A)</text><polygon fill="#181818" points="1287.5,1249.7206,1277.5,1253.7206,1287.5,1257.7206,1283.5,1253.7206" style="stroke:#181818;stroke-width:1.0;"/><line style="stroke:#181818;stroke-width:1.0;" x1="1281.5" x2="1667.5" y1="1253.7206" y2="1253.7206"/><text fill="#000000" font-family="sans-serif" font-size="13" lengthAdjust="spacing" textLength="293" x="1293.5" y="1230.2056">requestData/wPrivacyPreserving(PrivateData PD,</text><text fill="#000000" font-family="sans-serif" font-size="13" lengthAdjust="spacing" textLength="302" x="1293.5" y="1247.9116">Contract C, Consent Cons(F on PD), AccessToken T)</text><polygon fill="#181818" points="182.5,1299.1326,172.5,1303.1326,182.5,1307.1326,178.5,1303.1326" style="stroke:#181818;stroke-width:1.0;"/><line style="stroke:#181818;stroke-width:1.0;" x1="176.5" x2="1275.5" y1="1303.1326" y2="1303.1326"/><text fill="#000000" font-family="sans-serif" font-size="13" lengthAdjust="spacing" textLength="293" x="188.5" y="1279.6176">requestData/wPrivacyPreserving(PrivateData PD,</text><text fill="#000000" font-family="sans-serif" font-size="13" lengthAdjust="spacing" textLength="210" x="188.5" y="1297.3236">Contract C, Consent Cons(F on PD))</text><polygon fill="#181818" points="374.5,1348.5447,384.5,1352.5447,374.5,1356.5447,378.5,1352.5447" style="stroke:#181818;stroke-width:1.0;"/><line style="stroke:#181818;stroke-width:1.0;" x1="171.5" x2="380.5" y1="1352.5447" y2="1352.5447"/><text fill="#000000" font-family="sans-serif" font-size="13" lengthAdjust="spacing" textLength="191" x="178.5" y="1329.0297">verifyContract(DataProvider DP,</text><text fill="#000000" font-family="sans-serif" font-size="13" lengthAdjust="spacing" textLength="178" x="178.5" y="1346.7357">DataConsumer ProcessingBB)</text><polygon fill="#181818" points="182.5,1380.2507,172.5,1384.2507,182.5,1388.2507,178.5,1384.2507" style="stroke:#181818;stroke-width:1.0;"/><line style="stroke:#181818;stroke-width:1.0;" x1="176.5" x2="385.5" y1="1384.2507" y2="1384.2507"/><text fill="#000000" font-family="sans-serif" font-size="13" lengthAdjust="spacing" textLength="18" x="188.5" y="1378.4417">OK</text><polygon fill="#181818" points="454.5,1429.6627,464.5,1433.6627,454.5,1437.6627,458.5,1433.6627" style="stroke:#181818;stroke-width:1.0;"/><line style="stroke:#181818;stroke-width:1.0;" x1="171.5" x2="460.5" y1="1433.6627" y2="1433.6627"/><text fill="#000000" font-family="sans-serif" font-size="13" lengthAdjust="spacing" textLength="236" x="178.5" y="1410.1477">verifyConsent(DataProvider DP, User U,</text><text fill="#000000" font-family="sans-serif" font-size="13" lengthAdjust="spacing" textLength="163" x="178.5" y="1427.8537">PrivateData PD, Function F)</text><polygon fill="#181818" points="182.5,1461.3687,172.5,1465.3687,182.5,1469.3687,178.5,1465.3687" style="stroke:#181818;stroke-width:1.0;"/><line style="stroke:#181818;stroke-width:1.0;" x1="176.5" x2="465.5" y1="1465.3687" y2="1465.3687"/><text fill="#000000" font-family="sans-serif" font-size="13" lengthAdjust="spacing" textLength="18" x="188.5" y="1459.5597">OK</text><polygon fill="#181818" points="62.5,1493.0748,52.5,1497.0748,62.5,1501.0748,58.5,1497.0748" style="stroke:#181818;stroke-width:1.0;"/><line style="stroke:#181818;stroke-width:1.0;" x1="56.5" x2="170.5" y1="1497.0748" y2="1497.0748"/><text fill="#000000" font-family="sans-serif" font-size="13" lengthAdjust="spacing" textLength="96" x="68.5" y="1491.2658">getData(Data D)</text><polygon fill="#181818" points="159.5,1524.7808,169.5,1528.7808,159.5,1532.7808,163.5,1528.7808" style="stroke:#181818;stroke-width:1.0;"/><line style="stroke:#181818;stroke-width:1.0;" x1="51.5" x2="165.5" y1="1528.7808" y2="1528.7808"/><text fill="#000000" font-family="sans-serif" font-size="13" lengthAdjust="spacing" textLength="40" x="58.5" y="1522.9718">Data D</text><polygon fill="#181818" points="1264.5,1556.4868,1274.5,1560.4868,1264.5,1564.4868,1268.5,1560.4868" style="stroke:#181818;stroke-width:1.0;"/><line style="stroke:#181818;stroke-width:1.0;" x1="171.5" x2="1270.5" y1="1560.4868" y2="1560.4868"/><text fill="#000000" font-family="sans-serif" font-size="13" lengthAdjust="spacing" textLength="300" x="178.5" y="1554.6778">Data D (privacy preserving sending of PrivateData)</text><polygon fill="#181818" points="1656.5,1588.1928,1666.5,1592.1928,1656.5,1596.1928,1660.5,1592.1928" style="stroke:#181818;stroke-width:1.0;"/><line style="stroke:#181818;stroke-width:1.0;" x1="1276.5" x2="1662.5" y1="1592.1928" y2="1592.1928"/><text fill="#000000" font-family="sans-serif" font-size="13" lengthAdjust="spacing" textLength="300" x="1283.5" y="1586.3838">Data D (privacy preserving sending of PrivateData)</text><line style="stroke:#181818;stroke-width:1.0;" x1="1678.5" x2="1720.5" y1="1623.8988" y2="1623.8988"/><line style="stroke:#181818;stroke-width:1.0;" x1="1720.5" x2="1720.5" y1="1623.8988" y2="1636.8988"/><line style="stroke:#181818;stroke-width:1.0;" x1="1679.5" x2="1720.5" y1="1636.8988" y2="1636.8988"/><polygon fill="#181818" points="1689.5,1632.8988,1679.5,1636.8988,1689.5,1640.8988,1685.5,1636.8988" style="stroke:#181818;stroke-width:1.0;"/><text fill="#000000" font-family="sans-serif" font-size="13" lengthAdjust="spacing" textLength="119" x="1685.5" y="1618.0898">execute(Function A)</text><polygon fill="#181818" points="849.5,1664.6048,839.5,1668.6048,849.5,1672.6048,845.5,1668.6048" style="stroke:#181818;stroke-width:1.0;"/><line style="stroke:#181818;stroke-width:1.0;" x1="843.5" x2="1672.5" y1="1668.6048" y2="1668.6048"/><text fill="#000000" font-family="sans-serif" font-size="13" lengthAdjust="spacing" textLength="34" x="855.5" y="1662.7958">result</text><line style="stroke:#A80036;stroke-width:2.0;" x1="1664.5" x2="1682.5" y1="1659.6048" y2="1677.6048"/><line style="stroke:#A80036;stroke-width:2.0;" x1="1664.5" x2="1682.5" y1="1677.6048" y2="1659.6048"/><polygon fill="#181818" points="649.5,1696.3109,639.5,1700.3109,649.5,1704.3109,645.5,1700.3109" style="stroke:#181818;stroke-width:1.0;"/><line style="stroke:#181818;stroke-width:1.0;" x1="643.5" x2="837.5" y1="1700.3109" y2="1700.3109"/><text fill="#000000" font-family="sans-serif" font-size="13" lengthAdjust="spacing" textLength="34" x="655.5" y="1694.5019">result</text><!--SRC=[jLRRJjmm47skls94NxBILeMsq7ObAksoW50lH2ge5U8b5s-827RgEDlTlwylSMmd8KihoWF9EcVEZ6VEZ1tJ3Umj8nv1oEWwJp7RWvTVykoEdpEC2GBnbuhFSLHXa3W30yha_uDz1IaZnlCaBoF2uOGIWXDE3UJDFi8aXPXk51J5qcLuzLC06NQyROUOE8iItX2z7VHLOT823li04N91imRmpeOIjnkN7FM3slWbYqY6UoHYpmckgfnaYqN3TDXXEaqpB9WUofeB62mMPcEBejQ4CQr96h4jIEWyl6Y8ZaOIg4WrxFt-G5JvEagsDvJWhvb9zf5EGI8pHmludjpXj2xQSdteqyp5wqeaUL7dXQthnpxm1ulAqYdy08AoUyo-qTH4VN1Wq_G2UMbyzQbDn0mO_bNZYii52GhEQfBmd18ucy8jKHlbMAjqERMoE95VZGJaCpW3OHGk9_B3F97UhkWz9d0rGSQRS6n4COCCSmsx82iQD1uco02y82qGwChh1OIEZ-4yudUOoU8tXG5P6OK3yTdrtwcS2YEyaSZ0Qx5bsD_-17MivNuymVmbdM_iieqpFShJSEWIpM0jahBQQaMAbGeyAbN1WjQfMQWKapRk17FvUGf5Nd6P_fEmwddqSg33XY0dIL6diYoEwKG-Rmdis5G_DxtAFSNDBY_zWbhHFGU_LAVgRcaUYNPSuhAWM_dBDBzGg2jGEpR6UxFJcQePszPyf34xRMbT2R_TMJI3MBwPvVyo5xe-1xJKfC1uTyBOqJvFClGdqgY97KkkbrKB6M-98Po9kfzv1psG8bSXgH3kr4ffZloYkj2gUGyikYC1vmmHp4geRVbT8odgqmrEz7ahHY-qcPAbrj8mqnSvhD97SvBD82UvJoiUshB188DzN1RIn-lVJHE735UOhKLCmJCqnrF4zNpkHLB7XxXPw1q6UWQPYvHtNneRvprtAYR7c_pTFtcknHRXUcW2TFfBqUtmwh6h0wyzxa2SQjxd3fN6eF6cqo08okPIKBOL0X6U6ibYY3iR6QYwrUi_i3a2jZnOTGwsqsNk0TsRMLKN7AL2Q8nkswxmBZFEhQur-0C0]--></g></svg>