<svg xmlns="http://www.w3.org/2000/svg" xmlns:xlink="http://www.w3.org/1999/xlink" contentStyleType="text/css" height="1021px" preserveAspectRatio="none" style="width:1507px;height:1021px;background:#FFFFFF;" version="1.1" viewBox="0 0 1507 1021" width="1507px" zoomAndPan="magnify"><defs/><g><line style="stroke:#181818;stroke-width:0.5;stroke-dasharray:5.0,5.0;" x1="57" x2="57" y1="70.0679" y2="940.4243"/><line style="stroke:#181818;stroke-width:0.5;stroke-dasharray:5.0,5.0;" x1="166" x2="166" y1="70.0679" y2="940.4243"/><line style="stroke:#181818;stroke-width:0.5;stroke-dasharray:5.0,5.0;" x1="264" x2="264" y1="70.0679" y2="940.4243"/><line style="stroke:#181818;stroke-width:0.5;stroke-dasharray:5.0,5.0;" x1="568" x2="568" y1="70.0679" y2="940.4243"/><line style="stroke:#181818;stroke-width:0.5;stroke-dasharray:5.0,5.0;" x1="646" x2="646" y1="70.0679" y2="940.4243"/><line style="stroke:#181818;stroke-width:0.5;stroke-dasharray:5.0,5.0;" x1="830.5" x2="830.5" y1="70.0679" y2="940.4243"/><line style="stroke:#181818;stroke-width:0.5;stroke-dasharray:5.0,5.0;" x1="1019.5" x2="1019.5" y1="70.0679" y2="940.4243"/><line style="stroke:#181818;stroke-width:0.5;stroke-dasharray:5.0,5.0;" x1="1127.5" x2="1127.5" y1="70.0679" y2="940.4243"/><line style="stroke:#181818;stroke-width:0.5;stroke-dasharray:5.0,5.0;" x1="1254.5" x2="1254.5" y1="70.0679" y2="940.4243"/><line style="stroke:#181818;stroke-width:0.5;stroke-dasharray:5.0,5.0;" x1="1356.5" x2="1356.5" y1="70.0679" y2="940.4243"/><line style="stroke:#181818;stroke-width:0.5;stroke-dasharray:5.0,5.0;" x1="1452.5" x2="1452.5" y1="70.0679" y2="940.4243"/><rect fill="#E2E2F0" height="33.0679" rx="2.5" ry="2.5" style="stroke:#181818;stroke-width:0.5;" width="105" x="5" y="36"/><text fill="#000000" font-family="sans-serif" font-size="14" lengthAdjust="spacing" textLength="91" x="12" y="57.9659">ProcessingBB</text><rect fill="#E2E2F0" height="33.0679" rx="2.5" ry="2.5" style="stroke:#181818;stroke-width:0.5;" width="105" x="5" y="939.4243"/><text fill="#000000" font-family="sans-serif" font-size="14" lengthAdjust="spacing" textLength="91" x="12" y="961.3903">ProcessingBB</text><text fill="#000000" font-family="sans-serif" font-size="14" lengthAdjust="spacing" textLength="87" x="120" y="65.9659">DataProvider</text><path d="M148.5,15 C148.5,5 166.5,5 166.5,5 C166.5,5 184.5,5 184.5,15 L184.5,41 C184.5,51 166.5,51 166.5,51 C166.5,51 148.5,51 148.5,41 L148.5,15 " fill="#E2E2F0" style="stroke:#181818;stroke-width:1.5;"/><path d="M148.5,15 C148.5,25 166.5,25 166.5,25 C166.5,25 184.5,25 184.5,15 " fill="none" style="stroke:#181818;stroke-width:1.5;"/><text fill="#000000" font-family="sans-serif" font-size="14" lengthAdjust="spacing" textLength="87" x="120" y="954.3903">DataProvider</text><path d="M148.5,968.4923 C148.5,958.4923 166.5,958.4923 166.5,958.4923 C166.5,958.4923 184.5,958.4923 184.5,968.4923 L184.5,994.4923 C184.5,1004.4923 166.5,1004.4923 166.5,1004.4923 C166.5,1004.4923 148.5,1004.4923 148.5,994.4923 L148.5,968.4923 " fill="#E2E2F0" style="stroke:#181818;stroke-width:1.5;"/><path d="M148.5,968.4923 C148.5,978.4923 166.5,978.4923 166.5,978.4923 C166.5,978.4923 184.5,978.4923 184.5,968.4923 " fill="none" style="stroke:#181818;stroke-width:1.5;"/><rect fill="#E2E2F0" height="33.0679" rx="2.5" ry="2.5" style="stroke:#181818;stroke-width:0.5;" width="83" x="223" y="36"/><text fill="#000000" font-family="sans-serif" font-size="14" lengthAdjust="spacing" textLength="69" x="230" y="57.9659">Connector</text><rect fill="#E2E2F0" height="33.0679" rx="2.5" ry="2.5" style="stroke:#181818;stroke-width:0.5;" width="83" x="223" y="939.4243"/><text fill="#000000" font-family="sans-serif" font-size="14" lengthAdjust="spacing" textLength="69" x="230" y="961.3903">Connector</text><rect fill="#E2E2F0" height="33.0679" rx="2.5" ry="2.5" style="stroke:#181818;stroke-width:0.5;" width="71" x="533" y="36"/><text fill="#000000" font-family="sans-serif" font-size="14" lengthAdjust="spacing" textLength="57" x="540" y="57.9659">Contract</text><rect fill="#E2E2F0" height="33.0679" rx="2.5" ry="2.5" style="stroke:#181818;stroke-width:0.5;" width="71" x="533" y="939.4243"/><text fill="#000000" font-family="sans-serif" font-size="14" lengthAdjust="spacing" textLength="57" x="540" y="961.3903">Contract</text><rect fill="#E2E2F0" height="33.0679" rx="2.5" ry="2.5" style="stroke:#181818;stroke-width:0.5;" width="65" x="614" y="36"/><text fill="#000000" font-family="sans-serif" font-size="14" lengthAdjust="spacing" textLength="51" x="621" y="57.9659">Catalog</text><rect fill="#E2E2F0" height="33.0679" rx="2.5" ry="2.5" style="stroke:#181818;stroke-width:0.5;" width="65" x="614" y="939.4243"/><text fill="#000000" font-family="sans-serif" font-size="14" lengthAdjust="spacing" textLength="51" x="621" y="961.3903">Catalog</text><text fill="#000000" font-family="sans-serif" font-size="14" lengthAdjust="spacing" textLength="56" x="799.5" y="65.9659">EdgeAPI</text><path d="M810,23 L810,47 M810,35 L827,35 " fill="none" style="stroke:#181818;stroke-width:0.5;"/><ellipse cx="839" cy="35" fill="#E2E2F0" rx="12" ry="12" style="stroke:#181818;stroke-width:0.5;"/><text fill="#000000" font-family="sans-serif" font-size="14" lengthAdjust="spacing" textLength="56" x="799.5" y="954.3903">EdgeAPI</text><path d="M810,962.4923 L810,986.4923 M810,974.4923 L827,974.4923 " fill="none" style="stroke:#181818;stroke-width:0.5;"/><ellipse cx="839" cy="974.4923" fill="#E2E2F0" rx="12" ry="12" style="stroke:#181818;stroke-width:0.5;"/><rect fill="#E2E2F0" height="33.0679" rx="2.5" ry="2.5" style="stroke:#181818;stroke-width:0.5;" width="122" x="958.5" y="36"/><text fill="#000000" font-family="sans-serif" font-size="14" lengthAdjust="spacing" textLength="108" x="965.5" y="57.9659">PrivacyZoneMgr</text><rect fill="#E2E2F0" height="33.0679" rx="2.5" ry="2.5" style="stroke:#181818;stroke-width:0.5;" width="122" x="958.5" y="939.4243"/><text fill="#000000" font-family="sans-serif" font-size="14" lengthAdjust="spacing" textLength="108" x="965.5" y="961.3903">PrivacyZoneMgr</text><text fill="#000000" font-family="sans-serif" font-size="14" lengthAdjust="spacing" textLength="68" x="1090.5" y="65.9659">Scheduler</text><ellipse cx="1127.5" cy="35" fill="#E2E2F0" rx="12" ry="12" style="stroke:#181818;stroke-width:0.5;"/><polygon fill="#181818" points="1123.5,23,1129.5,18,1127.5,23,1129.5,28,1123.5,23" style="stroke:#181818;stroke-width:1.0;"/><text fill="#000000" font-family="sans-serif" font-size="14" lengthAdjust="spacing" textLength="68" x="1090.5" y="954.3903">Scheduler</text><ellipse cx="1127.5" cy="974.4923" fill="#E2E2F0" rx="12" ry="12" style="stroke:#181818;stroke-width:0.5;"/><polygon fill="#181818" points="1123.5,962.4923,1129.5,957.4923,1127.5,962.4923,1129.5,967.4923,1123.5,962.4923" style="stroke:#181818;stroke-width:1.0;"/><rect fill="#E2E2F0" height="33.0679" rx="2.5" ry="2.5" style="stroke:#181818;stroke-width:0.5;" width="112" x="1198.5" y="36"/><text fill="#000000" font-family="sans-serif" font-size="14" lengthAdjust="spacing" textLength="98" x="1205.5" y="57.9659">ArtifactBuilder</text><rect fill="#E2E2F0" height="33.0679" rx="2.5" ry="2.5" style="stroke:#181818;stroke-width:0.5;" width="112" x="1198.5" y="939.4243"/><text fill="#000000" font-family="sans-serif" font-size="14" lengthAdjust="spacing" textLength="98" x="1205.5" y="961.3903">ArtifactBuilder</text><rect fill="#E2E2F0" height="33.0679" rx="2.5" ry="2.5" style="stroke:#181818;stroke-width:0.5;" width="73" x="1320.5" y="36"/><text fill="#000000" font-family="sans-serif" font-size="14" lengthAdjust="spacing" textLength="59" x="1327.5" y="57.9659">Wrapper</text><rect fill="#E2E2F0" height="33.0679" rx="2.5" ry="2.5" style="stroke:#181818;stroke-width:0.5;" width="73" x="1320.5" y="939.4243"/><text fill="#000000" font-family="sans-serif" font-size="14" lengthAdjust="spacing" textLength="59" x="1327.5" y="961.3903">Wrapper</text><rect fill="#E2E2F0" height="33.0679" rx="2.5" ry="2.5" style="stroke:#181818;stroke-width:0.5;" width="98" x="1403.5" y="36"/><text fill="#000000" font-family="sans-serif" font-size="14" lengthAdjust="spacing" textLength="84" x="1410.5" y="57.9659">WorkerNode</text><rect fill="#E2E2F0" height="33.0679" rx="2.5" ry="2.5" style="stroke:#181818;stroke-width:0.5;" width="98" x="1403.5" y="939.4243"/><text fill="#000000" font-family="sans-serif" font-size="14" lengthAdjust="spacing" textLength="84" x="1410.5" y="961.3903">WorkerNode</text><polygon fill="#181818" points="818.5,99.7739,828.5,103.7739,818.5,107.7739,822.5,103.7739" style="stroke:#181818;stroke-width:1.0;"/><line style="stroke:#181818;stroke-width:1.0;" x1="57.5" x2="824.5" y1="103.7739" y2="103.7739"/><text fill="#000000" font-family="sans-serif" font-size="13" lengthAdjust="spacing" textLength="133" x="64.5" y="97.9649">requestEdgeProc(F, D)</text><polygon fill="#181818" points="657.5,131.4799,647.5,135.4799,657.5,139.4799,653.5,135.4799" style="stroke:#181818;stroke-width:1.0;"/><line style="stroke:#181818;stroke-width:1.0;" x1="651.5" x2="829.5" y1="135.4799" y2="135.4799"/><text fill="#000000" font-family="sans-serif" font-size="13" lengthAdjust="spacing" textLength="100" x="663.5" y="129.6709">getAccessInfo(D)</text><polygon fill="#181818" points="818.5,163.186,828.5,167.186,818.5,171.186,822.5,167.186" style="stroke:#181818;stroke-width:1.0;"/><line style="stroke:#181818;stroke-width:1.0;" x1="646.5" x2="824.5" y1="167.186" y2="167.186"/><text fill="#000000" font-family="sans-serif" font-size="13" lengthAdjust="spacing" textLength="160" x="653.5" y="161.377">AccessInfo of DataProvider</text><polygon fill="#181818" points="657.5,194.892,647.5,198.892,657.5,202.892,653.5,198.892" style="stroke:#181818;stroke-width:1.0;"/><line style="stroke:#181818;stroke-width:1.0;" x1="651.5" x2="829.5" y1="198.892" y2="198.892"/><text fill="#000000" font-family="sans-serif" font-size="13" lengthAdjust="spacing" textLength="102" x="663.5" y="193.083">verifyFunction(A)</text><polygon fill="#181818" points="818.5,226.598,828.5,230.598,818.5,234.598,822.5,230.598" style="stroke:#181818;stroke-width:1.0;"/><line style="stroke:#181818;stroke-width:1.0;" x1="646.5" x2="824.5" y1="230.598" y2="230.598"/><text fill="#000000" font-family="sans-serif" font-size="13" lengthAdjust="spacing" textLength="18" x="653.5" y="224.789">OK</text><polygon fill="#181818" points="1007.5,258.304,1017.5,262.304,1007.5,266.304,1011.5,262.304" style="stroke:#181818;stroke-width:1.0;"/><line style="stroke:#181818;stroke-width:1.0;" x1="830.5" x2="1013.5" y1="262.304" y2="262.304"/><text fill="#000000" font-family="sans-serif" font-size="13" lengthAdjust="spacing" textLength="165" x="837.5" y="256.495">getPZData(DataProvider, D)</text><polygon fill="#181818" points="275.5,290.01,265.5,294.01,275.5,298.01,271.5,294.01" style="stroke:#181818;stroke-width:1.0;"/><line style="stroke:#181818;stroke-width:1.0;" x1="269.5" x2="1018.5" y1="294.01" y2="294.01"/><text fill="#000000" font-family="sans-serif" font-size="13" lengthAdjust="spacing" textLength="165" x="281.5" y="288.201">getPZData(DataProvider, D)</text><polygon fill="#181818" points="556.5,321.716,566.5,325.716,556.5,329.716,560.5,325.716" style="stroke:#181818;stroke-width:1.0;"/><line style="stroke:#181818;stroke-width:1.0;" x1="264.5" x2="562.5" y1="325.716" y2="325.716"/><text fill="#000000" font-family="sans-serif" font-size="13" lengthAdjust="spacing" textLength="280" x="271.5" y="319.907">verify contracts (DataProvider, CloudProviders)</text><polygon fill="#181818" points="275.5,353.4221,265.5,357.4221,275.5,361.4221,271.5,357.4221" style="stroke:#181818;stroke-width:1.0;"/><line style="stroke:#181818;stroke-width:1.0;" x1="269.5" x2="567.5" y1="357.4221" y2="357.4221"/><text fill="#000000" font-family="sans-serif" font-size="13" lengthAdjust="spacing" textLength="81" x="281.5" y="351.6131">OK, list of CPs</text><polygon fill="#181818" points="1007.5,385.1281,1017.5,389.1281,1007.5,393.1281,1011.5,389.1281" style="stroke:#181818;stroke-width:1.0;"/><line style="stroke:#181818;stroke-width:1.0;" x1="264.5" x2="1013.5" y1="389.1281" y2="389.1281"/><text fill="#000000" font-family="sans-serif" font-size="13" lengthAdjust="spacing" textLength="155" x="271.5" y="383.3191">PZData of DataProvider, D</text><polygon fill="#181818" points="841.5,416.8341,831.5,420.8341,841.5,424.8341,837.5,420.8341" style="stroke:#181818;stroke-width:1.0;"/><line style="stroke:#181818;stroke-width:1.0;" x1="835.5" x2="1018.5" y1="420.8341" y2="420.8341"/><text fill="#000000" font-family="sans-serif" font-size="13" lengthAdjust="spacing" textLength="155" x="847.5" y="415.0251">PZData of DataProvider, D</text><polygon fill="#181818" points="1115.5,448.5401,1125.5,452.5401,1115.5,456.5401,1119.5,452.5401" style="stroke:#181818;stroke-width:1.0;"/><line style="stroke:#181818;stroke-width:1.0;" x1="830.5" x2="1121.5" y1="452.5401" y2="452.5401"/><text fill="#000000" font-family="sans-serif" font-size="13" lengthAdjust="spacing" textLength="133" x="837.5" y="446.7311">requestEdgeProc(F, D)</text><polygon fill="#181818" points="1242.5,480.2461,1252.5,484.2461,1242.5,488.2461,1246.5,484.2461" style="stroke:#181818;stroke-width:1.0;"/><line style="stroke:#181818;stroke-width:1.0;" x1="1127.5" x2="1248.5" y1="484.2461" y2="484.2461"/><text fill="#000000" font-family="sans-serif" font-size="13" lengthAdjust="spacing" textLength="103" x="1134.5" y="478.4371">buildArtifact(F, D)</text><polygon fill="#181818" points="1138.5,511.9521,1128.5,515.9521,1138.5,519.9521,1134.5,515.9521" style="stroke:#181818;stroke-width:1.0;"/><line style="stroke:#181818;stroke-width:1.0;" x1="1132.5" x2="1253.5" y1="515.9521" y2="515.9521"/><text fill="#000000" font-family="sans-serif" font-size="13" lengthAdjust="spacing" textLength="91" x="1144.5" y="510.1431">done, Artifact A</text><line style="stroke:#181818;stroke-width:1.0;" x1="1127.5" x2="1169.5" y1="547.6582" y2="547.6582"/><line style="stroke:#181818;stroke-width:1.0;" x1="1169.5" x2="1169.5" y1="547.6582" y2="560.6582"/><line style="stroke:#181818;stroke-width:1.0;" x1="1128.5" x2="1169.5" y1="560.6582" y2="560.6582"/><polygon fill="#181818" points="1138.5,556.6582,1128.5,560.6582,1138.5,564.6582,1134.5,560.6582" style="stroke:#181818;stroke-width:1.0;"/><text fill="#000000" font-family="sans-serif" font-size="13" lengthAdjust="spacing" textLength="69" x="1134.5" y="541.8492">schedule(A)</text><polygon fill="#181818" points="1440.5,588.3642,1450.5,592.3642,1440.5,596.3642,1444.5,592.3642" style="stroke:#181818;stroke-width:1.0;"/><line style="stroke:#181818;stroke-width:1.0;" x1="1127.5" x2="1446.5" y1="592.3642" y2="592.3642"/><text fill="#000000" font-family="sans-serif" font-size="13" lengthAdjust="spacing" textLength="100" x="1134.5" y="586.5552">deployArtifact(A)</text><polygon fill="#181818" points="1368,620.0702,1358,624.0702,1368,628.0702,1364,624.0702" style="stroke:#181818;stroke-width:1.0;"/><line style="stroke:#181818;stroke-width:1.0;" x1="1362" x2="1451.5" y1="624.0702" y2="624.0702"/><text fill="#000000" font-family="sans-serif" font-size="13" lengthAdjust="spacing" textLength="35" x="1374" y="618.2612">init(A)</text><polygon fill="#181818" points="275.5,651.7762,265.5,655.7762,275.5,659.7762,271.5,655.7762" style="stroke:#181818;stroke-width:1.0;"/><line style="stroke:#181818;stroke-width:1.0;" x1="269.5" x2="1356" y1="655.7762" y2="655.7762"/><text fill="#000000" font-family="sans-serif" font-size="13" lengthAdjust="spacing" textLength="244" x="281.5" y="649.9672">requestData/wPrivacyPreserving(Data D)</text><polygon fill="#181818" points="556.5,683.4822,566.5,687.4822,556.5,691.4822,560.5,687.4822" style="stroke:#181818;stroke-width:1.0;"/><line style="stroke:#181818;stroke-width:1.0;" x1="264.5" x2="562.5" y1="687.4822" y2="687.4822"/><text fill="#000000" font-family="sans-serif" font-size="13" lengthAdjust="spacing" textLength="116" x="271.5" y="681.6732">verifyContract(D, C)</text><polygon fill="#181818" points="275.5,715.1882,265.5,719.1882,275.5,723.1882,271.5,719.1882" style="stroke:#181818;stroke-width:1.0;"/><line style="stroke:#181818;stroke-width:1.0;" x1="269.5" x2="567.5" y1="719.1882" y2="719.1882"/><text fill="#000000" font-family="sans-serif" font-size="13" lengthAdjust="spacing" textLength="18" x="281.5" y="713.3792">OK</text><polygon fill="#181818" points="177.5,746.8943,167.5,750.8943,177.5,754.8943,173.5,750.8943" style="stroke:#181818;stroke-width:1.0;"/><line style="stroke:#181818;stroke-width:1.0;" x1="171.5" x2="263.5" y1="750.8943" y2="750.8943"/><text fill="#000000" font-family="sans-serif" font-size="13" lengthAdjust="spacing" textLength="65" x="183.5" y="745.0853">getData(D)</text><polygon fill="#181818" points="252.5,778.6003,262.5,782.6003,252.5,786.6003,256.5,782.6003" style="stroke:#181818;stroke-width:1.0;"/><line style="stroke:#181818;stroke-width:1.0;" x1="166.5" x2="258.5" y1="782.6003" y2="782.6003"/><text fill="#000000" font-family="sans-serif" font-size="13" lengthAdjust="spacing" textLength="40" x="173.5" y="776.7913">Data D</text><polygon fill="#181818" points="1345,810.3063,1355,814.3063,1345,818.3063,1349,814.3063" style="stroke:#181818;stroke-width:1.0;"/><line style="stroke:#181818;stroke-width:1.0;" x1="264.5" x2="1351" y1="814.3063" y2="814.3063"/><text fill="#000000" font-family="sans-serif" font-size="13" lengthAdjust="spacing" textLength="212" x="271.5" y="808.4973">Data D (privacy preserving sending)</text><line style="stroke:#181818;stroke-width:1.0;" x1="1357" x2="1399" y1="846.0123" y2="846.0123"/><line style="stroke:#181818;stroke-width:1.0;" x1="1399" x2="1399" y1="846.0123" y2="859.0123"/><line style="stroke:#181818;stroke-width:1.0;" x1="1358" x2="1399" y1="859.0123" y2="859.0123"/><polygon fill="#181818" points="1368,855.0123,1358,859.0123,1368,863.0123,1364,859.0123" style="stroke:#181818;stroke-width:1.0;"/><text fill="#000000" font-family="sans-serif" font-size="13" lengthAdjust="spacing" textLength="63" x="1364" y="840.2033">execute(A)</text><polygon fill="#181818" points="841.5,886.7183,831.5,890.7183,841.5,894.7183,837.5,890.7183" style="stroke:#181818;stroke-width:1.0;"/><line style="stroke:#181818;stroke-width:1.0;" x1="835.5" x2="1356" y1="890.7183" y2="890.7183"/><text fill="#000000" font-family="sans-serif" font-size="13" lengthAdjust="spacing" textLength="34" x="847.5" y="884.9093">result</text><polygon fill="#181818" points="68.5,918.4243,58.5,922.4243,68.5,926.4243,64.5,922.4243" style="stroke:#181818;stroke-width:1.0;"/><line style="stroke:#181818;stroke-width:1.0;" x1="62.5" x2="829.5" y1="922.4243" y2="922.4243"/><text fill="#000000" font-family="sans-serif" font-size="13" lengthAdjust="spacing" textLength="34" x="74.5" y="916.6153">result</text><!--SRC=[XLJBRjim4BphA_Qe00wgD7twK42s6o08sWZ8eK1kDBbMYGgaGb9k_FSbHL8IcJWzcURCpkwEHkg9CfpodWW3ZP8KjUQYtMn0AeOAhgg24KFsH2FixC5IZjm17dvV5Vr2O2k5G6faXAzVm4OHQWBw8KEjV2VR07wiYc8l1y68Ei5trcBTt0ReKrhNA7uazFGe1VveO-VFLK5TDzd10_sDREYccR-avRKz7knGcu5tys9VKz8lHVf-0g-g39Ng3wgVac4aMDkAnCtBRzCIQr3uDA0sxiAHofiLx2wAY5jgj68DBPgQEfbRSP2bPKKe4Pmf80_9SofUbpsYueVJpI2euLAKzHdT-xkaFdDwdAvvTEtAPSzncuphka_XUBDmflaQdvWuCj1meo4htNPoOF6l7dLyQTRw_cu57TV6ERLjTDhlnOP-ojnLE-Wh2yw-dQzQsZa7yrmaPeQbvq5TmzwTudKeoLbP7sR7NKrIKASjbamTpYuS2McHTgk7VITFqmoMku0TERmuQ-22UppSP8yb6E3yUlStUDierAYEzWqQd_N_qn4loftDmriHI7MI3ziOJX_DYo91CXK_Kgeqh-jHA7k_2lJJBg1HCFkRM34NuZFImM1crVBZeOVEfA_buaCp4Vu1]--></g></svg>