<svg xmlns="http://www.w3.org/2000/svg" xmlns:xlink="http://www.w3.org/1999/xlink" contentStyleType="text/css" height="1502px" preserveAspectRatio="none" style="width:2457px;height:1502px;background:#FFFFFF;" version="1.1" viewBox="0 0 2457 1502" width="2457px" zoomAndPan="magnify"><defs/><g><rect fill="#90EE90" height="1483.9066" style="stroke:#181818;stroke-width:0.5;" width="216" x="1" y="6"/><text fill="#000000" font-family="sans-serif" font-size="13" font-weight="bold" lengthAdjust="spacing" textLength="90" x="64" y="19.897">Data Provider</text><rect fill="#D3D3D3" height="1483.9066" style="stroke:#181818;stroke-width:0.5;" width="233" x="528" y="6"/><text fill="#000000" font-family="sans-serif" font-size="13" font-weight="bold" lengthAdjust="spacing" textLength="58" x="615.5" y="19.897">PTX Core</text><rect fill="#90EE90" height="1483.9066" style="stroke:#181818;stroke-width:0.5;" width="113" x="763" y="6"/><text fill="#000000" font-family="sans-serif" font-size="13" font-weight="bold" lengthAdjust="spacing" textLength="102" x="768.5" y="19.897">Data Consumer</text><rect fill="#ADD8E6" height="1483.9066" style="stroke:#181818;stroke-width:0.5;" width="1338" x="1113.5" y="6"/><text fill="#000000" font-family="sans-serif" font-size="13" font-weight="bold" lengthAdjust="spacing" textLength="128" x="1718.5" y="19.897">Edge Computing BB</text><line style="stroke:#181818;stroke-width:0.5;stroke-dasharray:5.0,5.0;" x1="51" x2="51" y1="92.7739" y2="1421.8387"/><line style="stroke:#181818;stroke-width:0.5;stroke-dasharray:5.0,5.0;" x1="171" x2="171" y1="92.7739" y2="1421.8387"/><line style="stroke:#181818;stroke-width:0.5;stroke-dasharray:5.0,5.0;" x1="567" x2="567" y1="92.7739" y2="1421.8387"/><line style="stroke:#181818;stroke-width:0.5;stroke-dasharray:5.0,5.0;" x1="647" x2="647" y1="92.7739" y2="1421.8387"/><line style="stroke:#181818;stroke-width:0.5;stroke-dasharray:5.0,5.0;" x1="724" x2="724" y1="92.7739" y2="1421.8387"/><line style="stroke:#181818;stroke-width:0.5;stroke-dasharray:5.0,5.0;" x1="819" x2="819" y1="92.7739" y2="1421.8387"/><line style="stroke:#181818;stroke-width:0.5;stroke-dasharray:5.0,5.0;" x1="1148.5" x2="1148.5" y1="92.7739" y2="1421.8387"/><line style="stroke:#181818;stroke-width:0.5;stroke-dasharray:5.0,5.0;" x1="1438.5" x2="1438.5" y1="92.7739" y2="1421.8387"/><line style="stroke:#181818;stroke-width:0.5;stroke-dasharray:5.0,5.0;" x1="1728" x2="1728" y1="92.7739" y2="1421.8387"/><line style="stroke:#181818;stroke-width:0.5;stroke-dasharray:5.0,5.0;" x1="1834" x2="1834" y1="92.7739" y2="1421.8387"/><line style="stroke:#181818;stroke-width:0.5;stroke-dasharray:5.0,5.0;" x1="2163" x2="2163" y1="92.7739" y2="1421.8387"/><line style="stroke:#181818;stroke-width:0.5;stroke-dasharray:5.0,5.0;" x1="2265" x2="2265" y1="92.7739" y2="1421.8387"/><line style="stroke:#181818;stroke-width:0.5;stroke-dasharray:5.0,5.0;" x1="2398.5" x2="2398.5" y1="92.7739" y2="1421.8387"/><text fill="#000000" font-family="sans-serif" font-size="14" lengthAdjust="spacing" textLength="87" x="5" y="88.672">DataProvider</text><path d="M33.5,37.706 C33.5,27.706 51.5,27.706 51.5,27.706 C51.5,27.706 69.5,27.706 69.5,37.706 L69.5,63.706 C69.5,73.706 51.5,73.706 51.5,73.706 C51.5,73.706 33.5,73.706 33.5,63.706 L33.5,37.706 " fill="#E2E2F0" style="stroke:#181818;stroke-width:1.5;"/><path d="M33.5,37.706 C33.5,47.706 51.5,47.706 51.5,47.706 C51.5,47.706 69.5,47.706 69.5,37.706 " fill="none" style="stroke:#181818;stroke-width:1.5;"/><text fill="#000000" font-family="sans-serif" font-size="14" lengthAdjust="spacing" textLength="87" x="5" y="1435.8046">DataProvider</text><path d="M33.5,1449.9066 C33.5,1439.9066 51.5,1439.9066 51.5,1439.9066 C51.5,1439.9066 69.5,1439.9066 69.5,1449.9066 L69.5,1475.9066 C69.5,1485.9066 51.5,1485.9066 51.5,1485.9066 C51.5,1485.9066 33.5,1485.9066 33.5,1475.9066 L33.5,1449.9066 " fill="#E2E2F0" style="stroke:#181818;stroke-width:1.5;"/><path d="M33.5,1449.9066 C33.5,1459.9066 51.5,1459.9066 51.5,1459.9066 C51.5,1459.9066 69.5,1459.9066 69.5,1449.9066 " fill="none" style="stroke:#181818;stroke-width:1.5;"/><rect fill="#E2E2F0" height="33.0679" rx="2.5" ry="2.5" style="stroke:#181818;stroke-width:0.5;" width="83" x="130" y="58.706"/><text fill="#000000" font-family="sans-serif" font-size="14" lengthAdjust="spacing" textLength="69" x="137" y="80.672">Connector</text><rect fill="#E2E2F0" height="33.0679" rx="2.5" ry="2.5" style="stroke:#181818;stroke-width:0.5;" width="83" x="130" y="1420.8387"/><text fill="#000000" font-family="sans-serif" font-size="14" lengthAdjust="spacing" textLength="69" x="137" y="1442.8046">Connector</text><rect fill="#E2E2F0" height="33.0679" rx="2.5" ry="2.5" style="stroke:#181818;stroke-width:0.5;" width="71" x="532" y="58.706"/><text fill="#000000" font-family="sans-serif" font-size="14" lengthAdjust="spacing" textLength="57" x="539" y="80.672">Contract</text><rect fill="#E2E2F0" height="33.0679" rx="2.5" ry="2.5" style="stroke:#181818;stroke-width:0.5;" width="71" x="532" y="1420.8387"/><text fill="#000000" font-family="sans-serif" font-size="14" lengthAdjust="spacing" textLength="57" x="539" y="1442.8046">Contract</text><rect fill="#E2E2F0" height="33.0679" rx="2.5" ry="2.5" style="stroke:#181818;stroke-width:0.5;" width="69" x="613" y="58.706"/><text fill="#000000" font-family="sans-serif" font-size="14" lengthAdjust="spacing" textLength="55" x="620" y="80.672">Consent</text><rect fill="#E2E2F0" height="33.0679" rx="2.5" ry="2.5" style="stroke:#181818;stroke-width:0.5;" width="69" x="613" y="1420.8387"/><text fill="#000000" font-family="sans-serif" font-size="14" lengthAdjust="spacing" textLength="55" x="620" y="1442.8046">Consent</text><rect fill="#E2E2F0" height="33.0679" rx="2.5" ry="2.5" style="stroke:#181818;stroke-width:0.5;" width="65" x="692" y="58.706"/><text fill="#000000" font-family="sans-serif" font-size="14" lengthAdjust="spacing" textLength="51" x="699" y="80.672">Catalog</text><rect fill="#E2E2F0" height="33.0679" rx="2.5" ry="2.5" style="stroke:#181818;stroke-width:0.5;" width="65" x="692" y="1420.8387"/><text fill="#000000" font-family="sans-serif" font-size="14" lengthAdjust="spacing" textLength="51" x="699" y="1442.8046">Catalog</text><rect fill="#E2E2F0" height="33.0679" rx="2.5" ry="2.5" style="stroke:#181818;stroke-width:0.5;" width="105" x="767" y="58.706"/><text fill="#000000" font-family="sans-serif" font-size="14" lengthAdjust="spacing" textLength="91" x="774" y="80.672">ProcessingBB</text><rect fill="#E2E2F0" height="33.0679" rx="2.5" ry="2.5" style="stroke:#181818;stroke-width:0.5;" width="105" x="767" y="1420.8387"/><text fill="#000000" font-family="sans-serif" font-size="14" lengthAdjust="spacing" textLength="91" x="774" y="1442.8046">ProcessingBB</text><text fill="#000000" font-family="sans-serif" font-size="14" lengthAdjust="spacing" textLength="56" x="1117.5" y="88.672">EdgeAPI</text><path d="M1128,45.706 L1128,69.706 M1128,57.706 L1145,57.706 " fill="none" style="stroke:#181818;stroke-width:0.5;"/><ellipse cx="1157" cy="57.706" fill="#E2E2F0" rx="12" ry="12" style="stroke:#181818;stroke-width:0.5;"/><text fill="#000000" font-family="sans-serif" font-size="14" lengthAdjust="spacing" textLength="56" x="1117.5" y="1435.8046">EdgeAPI</text><path d="M1128,1443.9066 L1128,1467.9066 M1128,1455.9066 L1145,1455.9066 " fill="none" style="stroke:#181818;stroke-width:0.5;"/><ellipse cx="1157" cy="1455.9066" fill="#E2E2F0" rx="12" ry="12" style="stroke:#181818;stroke-width:0.5;"/><rect fill="#E2E2F0" height="33.0679" rx="2.5" ry="2.5" style="stroke:#181818;stroke-width:0.5;" width="122" x="1377.5" y="58.706"/><text fill="#000000" font-family="sans-serif" font-size="14" lengthAdjust="spacing" textLength="108" x="1384.5" y="80.672">PrivacyZoneMgr</text><rect fill="#E2E2F0" height="33.0679" rx="2.5" ry="2.5" style="stroke:#181818;stroke-width:0.5;" width="122" x="1377.5" y="1420.8387"/><text fill="#000000" font-family="sans-serif" font-size="14" lengthAdjust="spacing" textLength="108" x="1384.5" y="1442.8046">PrivacyZoneMgr</text><rect fill="#E2E2F0" height="33.0679" rx="2.5" ry="2.5" style="stroke:#181818;stroke-width:0.5;" width="117" x="1670" y="58.706"/><text fill="#000000" font-family="sans-serif" font-size="14" lengthAdjust="spacing" textLength="103" x="1677" y="80.672">ConnectorEdge</text><rect fill="#E2E2F0" height="33.0679" rx="2.5" ry="2.5" style="stroke:#181818;stroke-width:0.5;" width="117" x="1670" y="1420.8387"/><text fill="#000000" font-family="sans-serif" font-size="14" lengthAdjust="spacing" textLength="103" x="1677" y="1442.8046">ConnectorEdge</text><text fill="#000000" font-family="sans-serif" font-size="14" lengthAdjust="spacing" textLength="68" x="1797" y="88.672">Scheduler</text><ellipse cx="1834" cy="57.706" fill="#E2E2F0" rx="12" ry="12" style="stroke:#181818;stroke-width:0.5;"/><polygon fill="#181818" points="1830,45.706,1836,40.706,1834,45.706,1836,50.706,1830,45.706" style="stroke:#181818;stroke-width:1.0;"/><text fill="#000000" font-family="sans-serif" font-size="14" lengthAdjust="spacing" textLength="68" x="1797" y="1435.8046">Scheduler</text><ellipse cx="1834" cy="1455.9066" fill="#E2E2F0" rx="12" ry="12" style="stroke:#181818;stroke-width:0.5;"/><polygon fill="#181818" points="1830,1443.9066,1836,1438.9066,1834,1443.9066,1836,1448.9066,1830,1443.9066" style="stroke:#181818;stroke-width:1.0;"/><rect fill="#E2E2F0" height="33.0679" rx="2.5" ry="2.5" style="stroke:#181818;stroke-width:0.5;" width="112" x="2107" y="58.706"/><text fill="#000000" font-family="sans-serif" font-size="14" lengthAdjust="spacing" textLength="98" x="2114" y="80.672">ArtifactBuilder</text><rect fill="#E2E2F0" height="33.0679" rx="2.5" ry="2.5" style="stroke:#181818;stroke-width:0.5;" width="112" x="2107" y="1420.8387"/><text fill="#000000" font-family="sans-serif" font-size="14" lengthAdjust="spacing" textLength="98" x="2114" y="1442.8046">ArtifactBuilder</text><rect fill="#E2E2F0" height="33.0679" rx="2.5" ry="2.5" style="stroke:#181818;stroke-width:0.5;" width="73" x="2229" y="58.706"/><text fill="#000000" font-family="sans-serif" font-size="14" lengthAdjust="spacing" textLength="59" x="2236" y="80.672">Wrapper</text><rect fill="#E2E2F0" height="33.0679" rx="2.5" ry="2.5" style="stroke:#181818;stroke-width:0.5;" width="73" x="2229" y="1420.8387"/><text fill="#000000" font-family="sans-serif" font-size="14" lengthAdjust="spacing" textLength="59" x="2236" y="1442.8046">Wrapper</text><rect fill="#E2E2F0" height="33.0679" rx="2.5" ry="2.5" style="stroke:#181818;stroke-width:0.5;" width="98" x="2349.5" y="58.706"/><text fill="#000000" font-family="sans-serif" font-size="14" lengthAdjust="spacing" textLength="84" x="2356.5" y="80.672">WorkerNode</text><rect fill="#E2E2F0" height="33.0679" rx="2.5" ry="2.5" style="stroke:#181818;stroke-width:0.5;" width="98" x="2349.5" y="1420.8387"/><text fill="#000000" font-family="sans-serif" font-size="14" lengthAdjust="spacing" textLength="84" x="2356.5" y="1442.8046">WorkerNode</text><polygon fill="#181818" points="1136.5,140.186,1146.5,144.186,1136.5,148.186,1140.5,144.186" style="stroke:#181818;stroke-width:1.0;"/><line style="stroke:#181818;stroke-width:1.0;" x1="819.5" x2="1142.5" y1="144.186" y2="144.186"/><text fill="#000000" font-family="sans-serif" font-size="13" lengthAdjust="spacing" textLength="269" x="826.5" y="120.6709">requestEdgeProc(Function F, PrivateData PD,</text><text fill="#000000" font-family="sans-serif" font-size="13" lengthAdjust="spacing" textLength="302" x="829.5" y="138.377">Contract C, Consent Cons(F on PD), AccessToken T)</text><polygon fill="#181818" points="735.5,171.892,725.5,175.892,735.5,179.892,731.5,175.892" style="stroke:#181818;stroke-width:1.0;"/><line style="stroke:#181818;stroke-width:1.0;" x1="729.5" x2="1147.5" y1="175.892" y2="175.892"/><text fill="#000000" font-family="sans-serif" font-size="13" lengthAdjust="spacing" textLength="139" x="741.5" y="170.083">getAccessInfo(Data PD)</text><polygon fill="#181818" points="1136.5,203.598,1146.5,207.598,1136.5,211.598,1140.5,207.598" style="stroke:#181818;stroke-width:1.0;"/><line style="stroke:#181818;stroke-width:1.0;" x1="724.5" x2="1142.5" y1="207.598" y2="207.598"/><text fill="#000000" font-family="sans-serif" font-size="13" lengthAdjust="spacing" textLength="160" x="731.5" y="201.789">AccessInfo of DataProvider</text><polygon fill="#181818" points="1426.5,235.304,1436.5,239.304,1426.5,243.304,1430.5,239.304" style="stroke:#181818;stroke-width:1.0;"/><line style="stroke:#181818;stroke-width:1.0;" x1="1148.5" x2="1432.5" y1="239.304" y2="239.304"/><text fill="#000000" font-family="sans-serif" font-size="13" lengthAdjust="spacing" textLength="266" x="1155.5" y="233.495">getPZData(DataProvider DP, PrivateData PD)</text><polygon fill="#181818" points="1716.5,267.01,1726.5,271.01,1716.5,275.01,1720.5,271.01" style="stroke:#181818;stroke-width:1.0;"/><line style="stroke:#181818;stroke-width:1.0;" x1="1438.5" x2="1722.5" y1="271.01" y2="271.01"/><text fill="#000000" font-family="sans-serif" font-size="13" lengthAdjust="spacing" textLength="266" x="1445.5" y="265.201">getPZData(DataProvider DP, PrivateData PD)</text><polygon fill="#181818" points="182.5,298.716,172.5,302.716,182.5,306.716,178.5,302.716" style="stroke:#181818;stroke-width:1.0;"/><line style="stroke:#181818;stroke-width:1.0;" x1="176.5" x2="1727.5" y1="302.716" y2="302.716"/><text fill="#000000" font-family="sans-serif" font-size="13" lengthAdjust="spacing" textLength="266" x="188.5" y="296.907">getPZData(DataProvider DP, PrivateData PD)</text><polygon fill="#181818" points="555.5,330.4221,565.5,334.4221,555.5,338.4221,559.5,334.4221" style="stroke:#181818;stroke-width:1.0;"/><line style="stroke:#181818;stroke-width:1.0;" x1="171.5" x2="561.5" y1="334.4221" y2="334.4221"/><text fill="#000000" font-family="sans-serif" font-size="13" lengthAdjust="spacing" textLength="280" x="178.5" y="328.6131">verify contracts (DataProvider, CloudProviders)</text><polygon fill="#181818" points="182.5,362.1281,172.5,366.1281,182.5,370.1281,178.5,366.1281" style="stroke:#181818;stroke-width:1.0;"/><line style="stroke:#181818;stroke-width:1.0;" x1="176.5" x2="566.5" y1="366.1281" y2="366.1281"/><text fill="#000000" font-family="sans-serif" font-size="13" lengthAdjust="spacing" textLength="81" x="188.5" y="360.3191">OK, list of CPs</text><polygon fill="#181818" points="1716.5,411.5401,1726.5,415.5401,1716.5,419.5401,1720.5,415.5401" style="stroke:#181818;stroke-width:1.0;"/><line style="stroke:#181818;stroke-width:1.0;" x1="171.5" x2="1722.5" y1="415.5401" y2="415.5401"/><text fill="#000000" font-family="sans-serif" font-size="13" lengthAdjust="spacing" textLength="184" x="178.5" y="392.0251">PZData (including list of CPs) of</text><text fill="#000000" font-family="sans-serif" font-size="13" lengthAdjust="spacing" textLength="195" x="181.5" y="409.7311">DataProvider DP, PrivateData PD</text><polygon fill="#181818" points="1449.5,460.9521,1439.5,464.9521,1449.5,468.9521,1445.5,464.9521" style="stroke:#181818;stroke-width:1.0;"/><line style="stroke:#181818;stroke-width:1.0;" x1="1443.5" x2="1727.5" y1="464.9521" y2="464.9521"/><text fill="#000000" font-family="sans-serif" font-size="13" lengthAdjust="spacing" textLength="184" x="1455.5" y="441.4371">PZData (including list of CPs) of</text><text fill="#000000" font-family="sans-serif" font-size="13" lengthAdjust="spacing" textLength="195" x="1458.5" y="459.1431">DataProvider DP, PrivateData PD</text><polygon fill="#181818" points="1159.5,510.3642,1149.5,514.3642,1159.5,518.3642,1155.5,514.3642" style="stroke:#181818;stroke-width:1.0;"/><line style="stroke:#181818;stroke-width:1.0;" x1="1153.5" x2="1437.5" y1="514.3642" y2="514.3642"/><text fill="#000000" font-family="sans-serif" font-size="13" lengthAdjust="spacing" textLength="184" x="1165.5" y="490.8492">PZData (including list of CPs) of</text><text fill="#000000" font-family="sans-serif" font-size="13" lengthAdjust="spacing" textLength="195" x="1168.5" y="508.5552">DataProvider DP, PrivateData PD</text><polygon fill="#181818" points="1822,559.7762,1832,563.7762,1822,567.7762,1826,563.7762" style="stroke:#181818;stroke-width:1.0;"/><line style="stroke:#181818;stroke-width:1.0;" x1="1148.5" x2="1828" y1="563.7762" y2="563.7762"/><text fill="#000000" font-family="sans-serif" font-size="13" lengthAdjust="spacing" textLength="269" x="1155.5" y="540.2612">requestEdgeProc(Function F, PrivateData PD,</text><text fill="#000000" font-family="sans-serif" font-size="13" lengthAdjust="spacing" textLength="302" x="1158.5" y="557.9672">Contract C, Consent Cons(F on PD), AccessToken T)</text><polygon fill="#181818" points="2151,609.1882,2161,613.1882,2151,617.1882,2155,613.1882" style="stroke:#181818;stroke-width:1.0;"/><line style="stroke:#181818;stroke-width:1.0;" x1="1834" x2="2157" y1="613.1882" y2="613.1882"/><text fill="#000000" font-family="sans-serif" font-size="13" lengthAdjust="spacing" textLength="239" x="1841" y="589.6732">buildArtifact(Function F, PrivateData PD,</text><text fill="#000000" font-family="sans-serif" font-size="13" lengthAdjust="spacing" textLength="302" x="1844" y="607.3792">Contract C, Consent Cons(F on PD), AccessToken T)</text><polygon fill="#181818" points="1739.5,640.8943,1729.5,644.8943,1739.5,648.8943,1735.5,644.8943" style="stroke:#181818;stroke-width:1.0;"/><line style="stroke:#181818;stroke-width:1.0;" x1="1733.5" x2="2162" y1="644.8943" y2="644.8943"/><text fill="#000000" font-family="sans-serif" font-size="13" lengthAdjust="spacing" textLength="170" x="1745.5" y="639.0853">requestFunction(Function F)</text><polygon fill="#181818" points="182.5,672.6003,172.5,676.6003,182.5,680.6003,178.5,676.6003" style="stroke:#181818;stroke-width:1.0;"/><line style="stroke:#181818;stroke-width:1.0;" x1="176.5" x2="1727.5" y1="676.6003" y2="676.6003"/><text fill="#000000" font-family="sans-serif" font-size="13" lengthAdjust="spacing" textLength="170" x="188.5" y="670.7913">requestFunction(Function F)</text><polygon fill="#181818" points="712.5,704.3063,722.5,708.3063,712.5,712.3063,716.5,708.3063" style="stroke:#181818;stroke-width:1.0;"/><line style="stroke:#181818;stroke-width:1.0;" x1="171.5" x2="718.5" y1="708.3063" y2="708.3063"/><text fill="#000000" font-family="sans-serif" font-size="13" lengthAdjust="spacing" textLength="170" x="178.5" y="702.4973">requestFunction(Function F)</text><polygon fill="#181818" points="182.5,736.0123,172.5,740.0123,182.5,744.0123,178.5,740.0123" style="stroke:#181818;stroke-width:1.0;"/><line style="stroke:#181818;stroke-width:1.0;" x1="176.5" x2="723.5" y1="740.0123" y2="740.0123"/><text fill="#000000" font-family="sans-serif" font-size="13" lengthAdjust="spacing" textLength="60" x="188.5" y="734.2033">function F</text><polygon fill="#181818" points="1716.5,767.7183,1726.5,771.7183,1716.5,775.7183,1720.5,771.7183" style="stroke:#181818;stroke-width:1.0;"/><line style="stroke:#181818;stroke-width:1.0;" x1="171.5" x2="1722.5" y1="771.7183" y2="771.7183"/><text fill="#000000" font-family="sans-serif" font-size="13" lengthAdjust="spacing" textLength="60" x="178.5" y="765.9093">function F</text><polygon fill="#181818" points="2151,799.4243,2161,803.4243,2151,807.4243,2155,803.4243" style="stroke:#181818;stroke-width:1.0;"/><line style="stroke:#181818;stroke-width:1.0;" x1="1728.5" x2="2157" y1="803.4243" y2="803.4243"/><text fill="#000000" font-family="sans-serif" font-size="13" lengthAdjust="spacing" textLength="60" x="1735.5" y="797.6153">function F</text><polygon fill="#181818" points="1845,831.1304,1835,835.1304,1845,839.1304,1841,835.1304" style="stroke:#181818;stroke-width:1.0;"/><line style="stroke:#181818;stroke-width:1.0;" x1="1839" x2="2162" y1="835.1304" y2="835.1304"/><text fill="#000000" font-family="sans-serif" font-size="13" lengthAdjust="spacing" textLength="91" x="1851" y="829.3214">done, Artifact A</text><line style="stroke:#181818;stroke-width:1.0;" x1="1834" x2="1876" y1="866.8364" y2="866.8364"/><line style="stroke:#181818;stroke-width:1.0;" x1="1876" x2="1876" y1="866.8364" y2="879.8364"/><line style="stroke:#181818;stroke-width:1.0;" x1="1835" x2="1876" y1="879.8364" y2="879.8364"/><polygon fill="#181818" points="1845,875.8364,1835,879.8364,1845,883.8364,1841,879.8364" style="stroke:#181818;stroke-width:1.0;"/><text fill="#000000" font-family="sans-serif" font-size="13" lengthAdjust="spacing" textLength="115" x="1841" y="861.0274">schedule(Artifact A)</text><polygon fill="#181818" points="2386.5,907.5424,2396.5,911.5424,2386.5,915.5424,2390.5,911.5424" style="stroke:#181818;stroke-width:1.0;"/><line style="stroke:#181818;stroke-width:1.0;" x1="1834" x2="2392.5" y1="911.5424" y2="911.5424"/><text fill="#000000" font-family="sans-serif" font-size="13" lengthAdjust="spacing" textLength="146" x="1841" y="905.7334">deployArtifact(Artifact A)</text><polygon fill="#181818" points="2276.5,939.2484,2266.5,943.2484,2276.5,947.2484,2272.5,943.2484" style="stroke:#181818;stroke-width:1.0;"/><line style="stroke:#181818;stroke-width:1.0;" x1="2270.5" x2="2397.5" y1="943.2484" y2="943.2484"/><text fill="#000000" font-family="sans-serif" font-size="13" lengthAdjust="spacing" textLength="81" x="2282.5" y="937.4394">init(Artifact A)</text><polygon fill="#181818" points="1739.5,988.6604,1729.5,992.6604,1739.5,996.6604,1735.5,992.6604" style="stroke:#181818;stroke-width:1.0;"/><line style="stroke:#181818;stroke-width:1.0;" x1="1733.5" x2="2264.5" y1="992.6604" y2="992.6604"/><text fill="#000000" font-family="sans-serif" font-size="13" lengthAdjust="spacing" textLength="293" x="1745.5" y="969.1454">requestData/wPrivacyPreserving(PrivateData PD,</text><text fill="#000000" font-family="sans-serif" font-size="13" lengthAdjust="spacing" textLength="210" x="1748.5" y="986.8514">Contract C, Consent Cons(F on PD))</text><polygon fill="#181818" points="182.5,1038.0725,172.5,1042.0725,182.5,1046.0725,178.5,1042.0725" style="stroke:#181818;stroke-width:1.0;"/><line style="stroke:#181818;stroke-width:1.0;" x1="176.5" x2="1727.5" y1="1042.0725" y2="1042.0725"/><text fill="#000000" font-family="sans-serif" font-size="13" lengthAdjust="spacing" textLength="293" x="188.5" y="1018.5575">requestData/wPrivacyPreserving(PrivateData PD,</text><text fill="#000000" font-family="sans-serif" font-size="13" lengthAdjust="spacing" textLength="210" x="191.5" y="1036.2635">Contract C, Consent Cons(F on PD))</text><polygon fill="#181818" points="555.5,1069.7785,565.5,1073.7785,555.5,1077.7785,559.5,1073.7785" style="stroke:#181818;stroke-width:1.0;"/><line style="stroke:#181818;stroke-width:1.0;" x1="171.5" x2="561.5" y1="1073.7785" y2="1073.7785"/><text fill="#000000" font-family="sans-serif" font-size="13" lengthAdjust="spacing" textLength="372" x="178.5" y="1067.9695">verifyContract(DataProvider DP, DataConsumer ProcessingBB)</text><polygon fill="#181818" points="182.5,1101.4845,172.5,1105.4845,182.5,1109.4845,178.5,1105.4845" style="stroke:#181818;stroke-width:1.0;"/><line style="stroke:#181818;stroke-width:1.0;" x1="176.5" x2="566.5" y1="1105.4845" y2="1105.4845"/><text fill="#000000" font-family="sans-serif" font-size="13" lengthAdjust="spacing" textLength="18" x="188.5" y="1099.6755">OK</text><polygon fill="#181818" points="635.5,1133.1905,645.5,1137.1905,635.5,1141.1905,639.5,1137.1905" style="stroke:#181818;stroke-width:1.0;"/><line style="stroke:#181818;stroke-width:1.0;" x1="171.5" x2="641.5" y1="1137.1905" y2="1137.1905"/><text fill="#000000" font-family="sans-serif" font-size="13" lengthAdjust="spacing" textLength="402" x="178.5" y="1131.3815">verifyConsent(DataProvider DP, User U, PrivateData PD, Function F)</text><polygon fill="#181818" points="182.5,1164.8965,172.5,1168.8965,182.5,1172.8965,178.5,1168.8965" style="stroke:#181818;stroke-width:1.0;"/><line style="stroke:#181818;stroke-width:1.0;" x1="176.5" x2="646.5" y1="1168.8965" y2="1168.8965"/><text fill="#000000" font-family="sans-serif" font-size="13" lengthAdjust="spacing" textLength="18" x="188.5" y="1163.0875">OK</text><polygon fill="#181818" points="62.5,1196.6026,52.5,1200.6026,62.5,1204.6026,58.5,1200.6026" style="stroke:#181818;stroke-width:1.0;"/><line style="stroke:#181818;stroke-width:1.0;" x1="56.5" x2="170.5" y1="1200.6026" y2="1200.6026"/><text fill="#000000" font-family="sans-serif" font-size="13" lengthAdjust="spacing" textLength="96" x="68.5" y="1194.7936">getData(Data D)</text><polygon fill="#181818" points="159.5,1228.3086,169.5,1232.3086,159.5,1236.3086,163.5,1232.3086" style="stroke:#181818;stroke-width:1.0;"/><line style="stroke:#181818;stroke-width:1.0;" x1="51.5" x2="165.5" y1="1232.3086" y2="1232.3086"/><text fill="#000000" font-family="sans-serif" font-size="13" lengthAdjust="spacing" textLength="40" x="58.5" y="1226.4996">Data D</text><polygon fill="#181818" points="1716.5,1260.0146,1726.5,1264.0146,1716.5,1268.0146,1720.5,1264.0146" style="stroke:#181818;stroke-width:1.0;"/><line style="stroke:#181818;stroke-width:1.0;" x1="171.5" x2="1722.5" y1="1264.0146" y2="1264.0146"/><text fill="#000000" font-family="sans-serif" font-size="13" lengthAdjust="spacing" textLength="300" x="178.5" y="1258.2056">Data D (privacy preserving sending of PrivateData)</text><polygon fill="#181818" points="2253.5,1291.7206,2263.5,1295.7206,2253.5,1299.7206,2257.5,1295.7206" style="stroke:#181818;stroke-width:1.0;"/><line style="stroke:#181818;stroke-width:1.0;" x1="1728.5" x2="2259.5" y1="1295.7206" y2="1295.7206"/><text fill="#000000" font-family="sans-serif" font-size="13" lengthAdjust="spacing" textLength="300" x="1735.5" y="1289.9116">Data D (privacy preserving sending of PrivateData)</text><line style="stroke:#181818;stroke-width:1.0;" x1="2265.5" x2="2307.5" y1="1327.4266" y2="1327.4266"/><line style="stroke:#181818;stroke-width:1.0;" x1="2307.5" x2="2307.5" y1="1327.4266" y2="1340.4266"/><line style="stroke:#181818;stroke-width:1.0;" x1="2266.5" x2="2307.5" y1="1340.4266" y2="1340.4266"/><polygon fill="#181818" points="2276.5,1336.4266,2266.5,1340.4266,2276.5,1344.4266,2272.5,1340.4266" style="stroke:#181818;stroke-width:1.0;"/><text fill="#000000" font-family="sans-serif" font-size="13" lengthAdjust="spacing" textLength="119" x="2272.5" y="1321.6176">execute(Function A)</text><polygon fill="#181818" points="1159.5,1368.1326,1149.5,1372.1326,1159.5,1376.1326,1155.5,1372.1326" style="stroke:#181818;stroke-width:1.0;"/><line style="stroke:#181818;stroke-width:1.0;" x1="1153.5" x2="2264.5" y1="1372.1326" y2="1372.1326"/><text fill="#000000" font-family="sans-serif" font-size="13" lengthAdjust="spacing" textLength="34" x="1165.5" y="1366.3236">result</text><polygon fill="#181818" points="830.5,1399.8387,820.5,1403.8387,830.5,1407.8387,826.5,1403.8387" style="stroke:#181818;stroke-width:1.0;"/><line style="stroke:#181818;stroke-width:1.0;" x1="824.5" x2="1147.5" y1="1403.8387" y2="1403.8387"/><text fill="#000000" font-family="sans-serif" font-size="13" lengthAdjust="spacing" textLength="34" x="836.5" y="1398.0297">result</text><!--SRC=[jLRBZjCm55sJhxWQDgbKH0lC05qWzK7HY5SaEWADsEHnsx4cOmV7AUtVOoTnR2UX7QhIHPCun-VSTnon7LmiGX52mDcM9CWluEadihaJ7pWYzK3-4law2dC4XTCmO5pzZqSb90kv8379GYfWpYZ5M30DUJ7oa2OGiLq9zI8b6Qn-I217IstVnoHu68kQw6MlLewq0Lns0TBab6rgm2jZIjGuhZYAXpx7RIBfTunvJkXcDglPBbjixvCDIhQ7h10I1hEPPfob1PQ44Ije4l8zAEWqkAw9hWu4iIIjOAz7FLQHRHZlRnd5pniTyAig3B6A7alXMto7IP4sANlJfPdAsxKCzAmWgSdjsoxmEm-pp4f-3uBnU-HVMAAj7ezDc9vuJXYVlMi2CG6ElmhCXLfG87zPq5WGHc4vhDmKMDNfOlYJcjAO3viYK5T_2N9Bi1WCOHehfHMxHmghWQULfAWkYWbiK5ImQxfcViq_y3J0CT00WQsTNl1iybPAIetWLi5zftyMGTklWTVQgqnrwk2VoDojDjU9F3L75VS9R96JzRugCxcIWqCbqvAo8j6FUSbJRMsPylNZ45AI2nNLUP1tz1p_AwF19pHEYqIrcRLreAwoE8wur8rC9sTdaUbcqnJJMGJiiZDT_lzRoMX9uVRic42axlJosSNRUZr5KlklbIqJZdJ5epQw4-JW5ZD6R9Lr0pbSwtquRNKtwXQw9qHsUIIo88SD0qmzDw4sDA_lVODkfT-Qzv8PivJjczJRcooSsbL_HoP0A6a1wrT_pwigd-U_w-uAEER8jxA3_1Egwt7rS5R18_DKBtJdibhGPnNdE79ej7RKIfCiCVNSrRgHBi9Dfs6XrH0bsH5DXxlyy3IV7P1V5-TrYwh2U8Uxf0A1drNfWQp93qZpoj4gfwdbI4_EJJcUm6OLhE717SQ5G3CEtCgsZprvaGht064TaHh07m00]--></g></svg>