<svg xmlns="http://www.w3.org/2000/svg" xmlns:xlink="http://www.w3.org/1999/xlink" contentStyleType="text/css" height="1148px" preserveAspectRatio="none" style="width:3001px;height:1148px;background:#FFFFFF;" version="1.1" viewBox="0 0 3001 1148" width="3001px" zoomAndPan="magnify"><defs/><g><line style="stroke:#181818;stroke-width:0.5;stroke-dasharray:5.0,5.0;" x1="51" x2="51" y1="70.0679" y2="1067.2484"/><line style="stroke:#181818;stroke-width:0.5;stroke-dasharray:5.0,5.0;" x1="171" x2="171" y1="70.0679" y2="1067.2484"/><line style="stroke:#181818;stroke-width:0.5;stroke-dasharray:5.0,5.0;" x1="649" x2="649" y1="70.0679" y2="1067.2484"/><line style="stroke:#181818;stroke-width:0.5;stroke-dasharray:5.0,5.0;" x1="729" x2="729" y1="70.0679" y2="1067.2484"/><line style="stroke:#181818;stroke-width:0.5;stroke-dasharray:5.0,5.0;" x1="806" x2="806" y1="70.0679" y2="1067.2484"/><line style="stroke:#181818;stroke-width:0.5;stroke-dasharray:5.0,5.0;" x1="947" x2="947" y1="70.0679" y2="1067.2484"/><line style="stroke:#181818;stroke-width:0.5;stroke-dasharray:5.0,5.0;" x1="1545" x2="1545" y1="70.0679" y2="1067.2484"/><line style="stroke:#181818;stroke-width:0.5;stroke-dasharray:5.0,5.0;" x1="1951" x2="1951" y1="70.0679" y2="1067.2484"/><line style="stroke:#181818;stroke-width:0.5;stroke-dasharray:5.0,5.0;" x1="2143" x2="2143" y1="70.0679" y2="1067.2484"/><line style="stroke:#181818;stroke-width:0.5;stroke-dasharray:5.0,5.0;" x1="2711" x2="2711" y1="70.0679" y2="1067.2484"/><line style="stroke:#181818;stroke-width:0.5;stroke-dasharray:5.0,5.0;" x1="2813" x2="2813" y1="70.0679" y2="1067.2484"/><line style="stroke:#181818;stroke-width:0.5;stroke-dasharray:5.0,5.0;" x1="2946.5" x2="2946.5" y1="70.0679" y2="1067.2484"/><text fill="#000000" font-family="sans-serif" font-size="14" lengthAdjust="spacing" textLength="87" x="5" y="65.9659">DataProvider</text><path d="M33.5,15 C33.5,5 51.5,5 51.5,5 C51.5,5 69.5,5 69.5,15 L69.5,41 C69.5,51 51.5,51 51.5,51 C51.5,51 33.5,51 33.5,41 L33.5,15 " fill="#E2E2F0" style="stroke:#181818;stroke-width:1.5;"/><path d="M33.5,15 C33.5,25 51.5,25 51.5,25 C51.5,25 69.5,25 69.5,15 " fill="none" style="stroke:#181818;stroke-width:1.5;"/><text fill="#000000" font-family="sans-serif" font-size="14" lengthAdjust="spacing" textLength="87" x="5" y="1081.2143">DataProvider</text><path d="M33.5,1095.3163 C33.5,1085.3163 51.5,1085.3163 51.5,1085.3163 C51.5,1085.3163 69.5,1085.3163 69.5,1095.3163 L69.5,1121.3163 C69.5,1131.3163 51.5,1131.3163 51.5,1131.3163 C51.5,1131.3163 33.5,1131.3163 33.5,1121.3163 L33.5,1095.3163 " fill="#E2E2F0" style="stroke:#181818;stroke-width:1.5;"/><path d="M33.5,1095.3163 C33.5,1105.3163 51.5,1105.3163 51.5,1105.3163 C51.5,1105.3163 69.5,1105.3163 69.5,1095.3163 " fill="none" style="stroke:#181818;stroke-width:1.5;"/><rect fill="#E2E2F0" height="33.0679" rx="2.5" ry="2.5" style="stroke:#181818;stroke-width:0.5;" width="83" x="130" y="36"/><text fill="#000000" font-family="sans-serif" font-size="14" lengthAdjust="spacing" textLength="69" x="137" y="57.9659">Connector</text><rect fill="#E2E2F0" height="33.0679" rx="2.5" ry="2.5" style="stroke:#181818;stroke-width:0.5;" width="83" x="130" y="1066.2484"/><text fill="#000000" font-family="sans-serif" font-size="14" lengthAdjust="spacing" textLength="69" x="137" y="1088.2143">Connector</text><rect fill="#E2E2F0" height="33.0679" rx="2.5" ry="2.5" style="stroke:#181818;stroke-width:0.5;" width="71" x="614" y="36"/><text fill="#000000" font-family="sans-serif" font-size="14" lengthAdjust="spacing" textLength="57" x="621" y="57.9659">Contract</text><rect fill="#E2E2F0" height="33.0679" rx="2.5" ry="2.5" style="stroke:#181818;stroke-width:0.5;" width="71" x="614" y="1066.2484"/><text fill="#000000" font-family="sans-serif" font-size="14" lengthAdjust="spacing" textLength="57" x="621" y="1088.2143">Contract</text><rect fill="#E2E2F0" height="33.0679" rx="2.5" ry="2.5" style="stroke:#181818;stroke-width:0.5;" width="69" x="695" y="36"/><text fill="#000000" font-family="sans-serif" font-size="14" lengthAdjust="spacing" textLength="55" x="702" y="57.9659">Consent</text><rect fill="#E2E2F0" height="33.0679" rx="2.5" ry="2.5" style="stroke:#181818;stroke-width:0.5;" width="69" x="695" y="1066.2484"/><text fill="#000000" font-family="sans-serif" font-size="14" lengthAdjust="spacing" textLength="55" x="702" y="1088.2143">Consent</text><rect fill="#E2E2F0" height="33.0679" rx="2.5" ry="2.5" style="stroke:#181818;stroke-width:0.5;" width="65" x="774" y="36"/><text fill="#000000" font-family="sans-serif" font-size="14" lengthAdjust="spacing" textLength="51" x="781" y="57.9659">Catalog</text><rect fill="#E2E2F0" height="33.0679" rx="2.5" ry="2.5" style="stroke:#181818;stroke-width:0.5;" width="65" x="774" y="1066.2484"/><text fill="#000000" font-family="sans-serif" font-size="14" lengthAdjust="spacing" textLength="51" x="781" y="1088.2143">Catalog</text><rect fill="#E2E2F0" height="33.0679" rx="2.5" ry="2.5" style="stroke:#181818;stroke-width:0.5;" width="196" x="849" y="36"/><text fill="#000000" font-family="sans-serif" font-size="14" lengthAdjust="spacing" textLength="182" x="856" y="57.9659">ProcessingBBtheConsumer</text><rect fill="#E2E2F0" height="33.0679" rx="2.5" ry="2.5" style="stroke:#181818;stroke-width:0.5;" width="196" x="849" y="1066.2484"/><text fill="#000000" font-family="sans-serif" font-size="14" lengthAdjust="spacing" textLength="182" x="856" y="1088.2143">ProcessingBBtheConsumer</text><text fill="#000000" font-family="sans-serif" font-size="14" lengthAdjust="spacing" textLength="56" x="1514" y="65.9659">EdgeAPI</text><path d="M1524.5,23 L1524.5,47 M1524.5,35 L1541.5,35 " fill="none" style="stroke:#181818;stroke-width:0.5;"/><ellipse cx="1553.5" cy="35" fill="#E2E2F0" rx="12" ry="12" style="stroke:#181818;stroke-width:0.5;"/><text fill="#000000" font-family="sans-serif" font-size="14" lengthAdjust="spacing" textLength="56" x="1514" y="1081.2143">EdgeAPI</text><path d="M1524.5,1089.3163 L1524.5,1113.3163 M1524.5,1101.3163 L1541.5,1101.3163 " fill="none" style="stroke:#181818;stroke-width:0.5;"/><ellipse cx="1553.5" cy="1101.3163" fill="#E2E2F0" rx="12" ry="12" style="stroke:#181818;stroke-width:0.5;"/><rect fill="#E2E2F0" height="33.0679" rx="2.5" ry="2.5" style="stroke:#181818;stroke-width:0.5;" width="122" x="1890" y="36"/><text fill="#000000" font-family="sans-serif" font-size="14" lengthAdjust="spacing" textLength="108" x="1897" y="57.9659">PrivacyZoneMgr</text><rect fill="#E2E2F0" height="33.0679" rx="2.5" ry="2.5" style="stroke:#181818;stroke-width:0.5;" width="122" x="1890" y="1066.2484"/><text fill="#000000" font-family="sans-serif" font-size="14" lengthAdjust="spacing" textLength="108" x="1897" y="1088.2143">PrivacyZoneMgr</text><text fill="#000000" font-family="sans-serif" font-size="14" lengthAdjust="spacing" textLength="68" x="2106" y="65.9659">Scheduler</text><ellipse cx="2143" cy="35" fill="#E2E2F0" rx="12" ry="12" style="stroke:#181818;stroke-width:0.5;"/><polygon fill="#181818" points="2139,23,2145,18,2143,23,2145,28,2139,23" style="stroke:#181818;stroke-width:1.0;"/><text fill="#000000" font-family="sans-serif" font-size="14" lengthAdjust="spacing" textLength="68" x="2106" y="1081.2143">Scheduler</text><ellipse cx="2143" cy="1101.3163" fill="#E2E2F0" rx="12" ry="12" style="stroke:#181818;stroke-width:0.5;"/><polygon fill="#181818" points="2139,1089.3163,2145,1084.3163,2143,1089.3163,2145,1094.3163,2139,1089.3163" style="stroke:#181818;stroke-width:1.0;"/><rect fill="#E2E2F0" height="33.0679" rx="2.5" ry="2.5" style="stroke:#181818;stroke-width:0.5;" width="112" x="2655" y="36"/><text fill="#000000" font-family="sans-serif" font-size="14" lengthAdjust="spacing" textLength="98" x="2662" y="57.9659">ArtifactBuilder</text><rect fill="#E2E2F0" height="33.0679" rx="2.5" ry="2.5" style="stroke:#181818;stroke-width:0.5;" width="112" x="2655" y="1066.2484"/><text fill="#000000" font-family="sans-serif" font-size="14" lengthAdjust="spacing" textLength="98" x="2662" y="1088.2143">ArtifactBuilder</text><rect fill="#E2E2F0" height="33.0679" rx="2.5" ry="2.5" style="stroke:#181818;stroke-width:0.5;" width="73" x="2777" y="36"/><text fill="#000000" font-family="sans-serif" font-size="14" lengthAdjust="spacing" textLength="59" x="2784" y="57.9659">Wrapper</text><rect fill="#E2E2F0" height="33.0679" rx="2.5" ry="2.5" style="stroke:#181818;stroke-width:0.5;" width="73" x="2777" y="1066.2484"/><text fill="#000000" font-family="sans-serif" font-size="14" lengthAdjust="spacing" textLength="59" x="2784" y="1088.2143">Wrapper</text><rect fill="#E2E2F0" height="33.0679" rx="2.5" ry="2.5" style="stroke:#181818;stroke-width:0.5;" width="98" x="2897.5" y="36"/><text fill="#000000" font-family="sans-serif" font-size="14" lengthAdjust="spacing" textLength="84" x="2904.5" y="57.9659">WorkerNode</text><rect fill="#E2E2F0" height="33.0679" rx="2.5" ry="2.5" style="stroke:#181818;stroke-width:0.5;" width="98" x="2897.5" y="1066.2484"/><text fill="#000000" font-family="sans-serif" font-size="14" lengthAdjust="spacing" textLength="84" x="2904.5" y="1088.2143">WorkerNode</text><polygon fill="#181818" points="1533,99.7739,1543,103.7739,1533,107.7739,1537,103.7739" style="stroke:#181818;stroke-width:1.0;"/><line style="stroke:#181818;stroke-width:1.0;" x1="947" x2="1539" y1="103.7739" y2="103.7739"/><text fill="#000000" font-family="sans-serif" font-size="13" lengthAdjust="spacing" textLength="574" x="954" y="97.9649">requestEdgeProc(Function F, PrivateData PD, Contract C, Consent Cons(F on PD), AccessToken T)</text><polygon fill="#181818" points="817.5,131.4799,807.5,135.4799,817.5,139.4799,813.5,135.4799" style="stroke:#181818;stroke-width:1.0;"/><line style="stroke:#181818;stroke-width:1.0;" x1="811.5" x2="1544" y1="135.4799" y2="135.4799"/><text fill="#000000" font-family="sans-serif" font-size="13" lengthAdjust="spacing" textLength="139" x="823.5" y="129.6709">getAccessInfo(Data PD)</text><polygon fill="#181818" points="1533,163.186,1543,167.186,1533,171.186,1537,167.186" style="stroke:#181818;stroke-width:1.0;"/><line style="stroke:#181818;stroke-width:1.0;" x1="806.5" x2="1539" y1="167.186" y2="167.186"/><text fill="#000000" font-family="sans-serif" font-size="13" lengthAdjust="spacing" textLength="160" x="813.5" y="161.377">AccessInfo of DataProvider</text><polygon fill="#181818" points="1939,194.892,1949,198.892,1939,202.892,1943,198.892" style="stroke:#181818;stroke-width:1.0;"/><line style="stroke:#181818;stroke-width:1.0;" x1="1545" x2="1945" y1="198.892" y2="198.892"/><text fill="#000000" font-family="sans-serif" font-size="13" lengthAdjust="spacing" textLength="266" x="1552" y="193.083">getPZData(DataProvider DP, PrivateData PD)</text><polygon fill="#181818" points="182.5,226.598,172.5,230.598,182.5,234.598,178.5,230.598" style="stroke:#181818;stroke-width:1.0;"/><line style="stroke:#181818;stroke-width:1.0;" x1="176.5" x2="1950" y1="230.598" y2="230.598"/><text fill="#000000" font-family="sans-serif" font-size="13" lengthAdjust="spacing" textLength="266" x="188.5" y="224.789">getPZData(DataProvider DP, PrivateData PD)</text><polygon fill="#181818" points="637.5,258.304,647.5,262.304,637.5,266.304,641.5,262.304" style="stroke:#181818;stroke-width:1.0;"/><line style="stroke:#181818;stroke-width:1.0;" x1="171.5" x2="643.5" y1="262.304" y2="262.304"/><text fill="#000000" font-family="sans-serif" font-size="13" lengthAdjust="spacing" textLength="280" x="178.5" y="256.495">verify contracts (DataProvider, CloudProviders)</text><polygon fill="#181818" points="182.5,290.01,172.5,294.01,182.5,298.01,178.5,294.01" style="stroke:#181818;stroke-width:1.0;"/><line style="stroke:#181818;stroke-width:1.0;" x1="176.5" x2="648.5" y1="294.01" y2="294.01"/><text fill="#000000" font-family="sans-serif" font-size="13" lengthAdjust="spacing" textLength="81" x="188.5" y="288.201">OK, list of CPs</text><polygon fill="#181818" points="1939,321.716,1949,325.716,1939,329.716,1943,325.716" style="stroke:#181818;stroke-width:1.0;"/><line style="stroke:#181818;stroke-width:1.0;" x1="171.5" x2="1945" y1="325.716" y2="325.716"/><text fill="#000000" font-family="sans-serif" font-size="13" lengthAdjust="spacing" textLength="382" x="178.5" y="319.907">PZData (including list of CPs) of DataProvider DP, PrivateData PD</text><polygon fill="#181818" points="1556,353.4221,1546,357.4221,1556,361.4221,1552,357.4221" style="stroke:#181818;stroke-width:1.0;"/><line style="stroke:#181818;stroke-width:1.0;" x1="1550" x2="1950" y1="357.4221" y2="357.4221"/><text fill="#000000" font-family="sans-serif" font-size="13" lengthAdjust="spacing" textLength="382" x="1562" y="351.6131">PZData (including list of CPs) of DataProvider DP, PrivateData PD</text><polygon fill="#181818" points="2131,385.1281,2141,389.1281,2131,393.1281,2135,389.1281" style="stroke:#181818;stroke-width:1.0;"/><line style="stroke:#181818;stroke-width:1.0;" x1="1545" x2="2137" y1="389.1281" y2="389.1281"/><text fill="#000000" font-family="sans-serif" font-size="13" lengthAdjust="spacing" textLength="574" x="1552" y="383.3191">requestEdgeProc(Function F, PrivateData PD, Contract C, Consent Cons(F on PD), AccessToken T)</text><polygon fill="#181818" points="2699,416.8341,2709,420.8341,2699,424.8341,2703,420.8341" style="stroke:#181818;stroke-width:1.0;"/><line style="stroke:#181818;stroke-width:1.0;" x1="2143" x2="2705" y1="420.8341" y2="420.8341"/><text fill="#000000" font-family="sans-serif" font-size="13" lengthAdjust="spacing" textLength="544" x="2150" y="415.0251">buildArtifact(Function F, PrivateData PD, Contract C, Consent Cons(F on PD), AccessToken T)</text><polygon fill="#181818" points="182.5,448.5401,172.5,452.5401,182.5,456.5401,178.5,452.5401" style="stroke:#181818;stroke-width:1.0;"/><line style="stroke:#181818;stroke-width:1.0;" x1="176.5" x2="2710" y1="452.5401" y2="452.5401"/><text fill="#000000" font-family="sans-serif" font-size="13" lengthAdjust="spacing" textLength="170" x="188.5" y="446.7311">requestFunction(Function F)</text><polygon fill="#181818" points="794.5,480.2461,804.5,484.2461,794.5,488.2461,798.5,484.2461" style="stroke:#181818;stroke-width:1.0;"/><line style="stroke:#181818;stroke-width:1.0;" x1="171.5" x2="800.5" y1="484.2461" y2="484.2461"/><text fill="#000000" font-family="sans-serif" font-size="13" lengthAdjust="spacing" textLength="170" x="178.5" y="478.4371">requestFunction(Function F)</text><polygon fill="#181818" points="182.5,511.9521,172.5,515.9521,182.5,519.9521,178.5,515.9521" style="stroke:#181818;stroke-width:1.0;"/><line style="stroke:#181818;stroke-width:1.0;" x1="176.5" x2="805.5" y1="515.9521" y2="515.9521"/><text fill="#000000" font-family="sans-serif" font-size="13" lengthAdjust="spacing" textLength="60" x="188.5" y="510.1431">function F</text><polygon fill="#181818" points="2699,543.6582,2709,547.6582,2699,551.6582,2703,547.6582" style="stroke:#181818;stroke-width:1.0;"/><line style="stroke:#181818;stroke-width:1.0;" x1="171.5" x2="2705" y1="547.6582" y2="547.6582"/><text fill="#000000" font-family="sans-serif" font-size="13" lengthAdjust="spacing" textLength="60" x="178.5" y="541.8492">function F</text><polygon fill="#181818" points="2154,575.3642,2144,579.3642,2154,583.3642,2150,579.3642" style="stroke:#181818;stroke-width:1.0;"/><line style="stroke:#181818;stroke-width:1.0;" x1="2148" x2="2710" y1="579.3642" y2="579.3642"/><text fill="#000000" font-family="sans-serif" font-size="13" lengthAdjust="spacing" textLength="91" x="2160" y="573.5552">done, Artifact A</text><line style="stroke:#181818;stroke-width:1.0;" x1="2143" x2="2185" y1="611.0702" y2="611.0702"/><line style="stroke:#181818;stroke-width:1.0;" x1="2185" x2="2185" y1="611.0702" y2="624.0702"/><line style="stroke:#181818;stroke-width:1.0;" x1="2144" x2="2185" y1="624.0702" y2="624.0702"/><polygon fill="#181818" points="2154,620.0702,2144,624.0702,2154,628.0702,2150,624.0702" style="stroke:#181818;stroke-width:1.0;"/><text fill="#000000" font-family="sans-serif" font-size="13" lengthAdjust="spacing" textLength="115" x="2150" y="605.2612">schedule(Artifact A)</text><polygon fill="#181818" points="2934.5,651.7762,2944.5,655.7762,2934.5,659.7762,2938.5,655.7762" style="stroke:#181818;stroke-width:1.0;"/><line style="stroke:#181818;stroke-width:1.0;" x1="2143" x2="2940.5" y1="655.7762" y2="655.7762"/><text fill="#000000" font-family="sans-serif" font-size="13" lengthAdjust="spacing" textLength="146" x="2150" y="649.9672">deployArtifact(Artifact A)</text><polygon fill="#181818" points="2824.5,683.4822,2814.5,687.4822,2824.5,691.4822,2820.5,687.4822" style="stroke:#181818;stroke-width:1.0;"/><line style="stroke:#181818;stroke-width:1.0;" x1="2818.5" x2="2945.5" y1="687.4822" y2="687.4822"/><text fill="#000000" font-family="sans-serif" font-size="13" lengthAdjust="spacing" textLength="81" x="2830.5" y="681.6732">init(Artifact A)</text><polygon fill="#181818" points="182.5,715.1882,172.5,719.1882,182.5,723.1882,178.5,719.1882" style="stroke:#181818;stroke-width:1.0;"/><line style="stroke:#181818;stroke-width:1.0;" x1="176.5" x2="2812.5" y1="719.1882" y2="719.1882"/><text fill="#000000" font-family="sans-serif" font-size="13" lengthAdjust="spacing" textLength="506" x="188.5" y="713.3792">requestData/wPrivacyPreserving(PrivateData PD, Contract C, Consent Cons(F on PD))</text><polygon fill="#181818" points="637.5,746.8943,647.5,750.8943,637.5,754.8943,641.5,750.8943" style="stroke:#181818;stroke-width:1.0;"/><line style="stroke:#181818;stroke-width:1.0;" x1="171.5" x2="643.5" y1="750.8943" y2="750.8943"/><text fill="#000000" font-family="sans-serif" font-size="13" lengthAdjust="spacing" textLength="454" x="178.5" y="745.0853">verifyContract(DataProvider DP, DataConsumer ProcessingBBtheConsumer)</text><polygon fill="#181818" points="182.5,778.6003,172.5,782.6003,182.5,786.6003,178.5,782.6003" style="stroke:#181818;stroke-width:1.0;"/><line style="stroke:#181818;stroke-width:1.0;" x1="176.5" x2="648.5" y1="782.6003" y2="782.6003"/><text fill="#000000" font-family="sans-serif" font-size="13" lengthAdjust="spacing" textLength="18" x="188.5" y="776.7913">OK</text><polygon fill="#181818" points="717.5,810.3063,727.5,814.3063,717.5,818.3063,721.5,814.3063" style="stroke:#181818;stroke-width:1.0;"/><line style="stroke:#181818;stroke-width:1.0;" x1="171.5" x2="723.5" y1="814.3063" y2="814.3063"/><text fill="#000000" font-family="sans-serif" font-size="13" lengthAdjust="spacing" textLength="402" x="178.5" y="808.4973">verifyConsent(DataProvider DP, User U, PrivateData PD, Function F)</text><polygon fill="#181818" points="182.5,842.0123,172.5,846.0123,182.5,850.0123,178.5,846.0123" style="stroke:#181818;stroke-width:1.0;"/><line style="stroke:#181818;stroke-width:1.0;" x1="176.5" x2="728.5" y1="846.0123" y2="846.0123"/><text fill="#000000" font-family="sans-serif" font-size="13" lengthAdjust="spacing" textLength="18" x="188.5" y="840.2033">OK</text><polygon fill="#181818" points="62.5,873.7183,52.5,877.7183,62.5,881.7183,58.5,877.7183" style="stroke:#181818;stroke-width:1.0;"/><line style="stroke:#181818;stroke-width:1.0;" x1="56.5" x2="170.5" y1="877.7183" y2="877.7183"/><text fill="#000000" font-family="sans-serif" font-size="13" lengthAdjust="spacing" textLength="96" x="68.5" y="871.9093">getData(Data D)</text><polygon fill="#181818" points="159.5,905.4243,169.5,909.4243,159.5,913.4243,163.5,909.4243" style="stroke:#181818;stroke-width:1.0;"/><line style="stroke:#181818;stroke-width:1.0;" x1="51.5" x2="165.5" y1="909.4243" y2="909.4243"/><text fill="#000000" font-family="sans-serif" font-size="13" lengthAdjust="spacing" textLength="40" x="58.5" y="903.6153">Data D</text><polygon fill="#181818" points="2801.5,937.1304,2811.5,941.1304,2801.5,945.1304,2805.5,941.1304" style="stroke:#181818;stroke-width:1.0;"/><line style="stroke:#181818;stroke-width:1.0;" x1="171.5" x2="2807.5" y1="941.1304" y2="941.1304"/><text fill="#000000" font-family="sans-serif" font-size="13" lengthAdjust="spacing" textLength="300" x="178.5" y="935.3214">Data D (privacy preserving sending of PrivateData)</text><line style="stroke:#181818;stroke-width:1.0;" x1="2813.5" x2="2855.5" y1="972.8364" y2="972.8364"/><line style="stroke:#181818;stroke-width:1.0;" x1="2855.5" x2="2855.5" y1="972.8364" y2="985.8364"/><line style="stroke:#181818;stroke-width:1.0;" x1="2814.5" x2="2855.5" y1="985.8364" y2="985.8364"/><polygon fill="#181818" points="2824.5,981.8364,2814.5,985.8364,2824.5,989.8364,2820.5,985.8364" style="stroke:#181818;stroke-width:1.0;"/><text fill="#000000" font-family="sans-serif" font-size="13" lengthAdjust="spacing" textLength="119" x="2820.5" y="967.0274">execute(Function A)</text><polygon fill="#181818" points="1556,1013.5424,1546,1017.5424,1556,1021.5424,1552,1017.5424" style="stroke:#181818;stroke-width:1.0;"/><line style="stroke:#181818;stroke-width:1.0;" x1="1550" x2="2812.5" y1="1017.5424" y2="1017.5424"/><text fill="#000000" font-family="sans-serif" font-size="13" lengthAdjust="spacing" textLength="34" x="1562" y="1011.7334">result</text><polygon fill="#181818" points="958,1045.2484,948,1049.2484,958,1053.2484,954,1049.2484" style="stroke:#181818;stroke-width:1.0;"/><line style="stroke:#181818;stroke-width:1.0;" x1="952" x2="1544" y1="1049.2484" y2="1049.2484"/><text fill="#000000" font-family="sans-serif" font-size="13" lengthAdjust="spacing" textLength="34" x="964" y="1043.4394">result</text><!--SRC=[jLN9Rjim4BthA-Oe0IhgBkcYGm4lDH0KRGKaGO7SP6hi4559bQJS-kzBQk4c9qNGzc9Bd9dtPkODHtMbgbqb4JRweHJyI6iKm8NvVR58saeeIcXRCGLhpXWInIVpovbPYOgeqVfgPfN8hF4YD6hkXXz6u-imKYT5K4hA3gkLkaC3r7stELuiacJ7ErPNuWGVwmCkoylHz2R6eSUAd6uvmy-7AVpj8Y4cRzx05Rd3kciiyhimVAaVzxgyLKSRrwBteTCtKRMjrx_8oiKzYY-ynib1TpXvgBvd7smz1GZyqQ5Kvi3ufzkE4KKvWsq-5ARG20Zb9dT2h7FRTlEVRa47b9iiXoKnbDVy7XbSPyd4eoadAGeue1hSBjcUfoDwbamEGNhE4VW-6AN41uyaw3dAM-EU1kEtAUEgiYIADQdQUNmIa0iRC8PU5N14GVSd8EE9X01AjxBXNJszoXvd28rI-VefXuPAPJgnBcN8D-l0a3Mab96cg_KG-B5PtCqp1PrfZDFbxz5z-TmD-Ty3wPWqRNpp2jYPf-du7rF7R96wOzqJfqSUJvQzI8-6kDlai-ojImWwRuNdUIPpNx5Q3qXk4M0PDjdtbEDpwfmZIRnDfe6nRVZ9ok47UNucQjoE1L168yVHTBxRHixdFyT1BmLA54SzpEcJrSwIFrp_wM2-Hio1tSqFxEp7biACkC_EupNlSzeRNIlSp0SxchiURCuPaWRW_Swq6nFqOWpC4TRW4y8vEGShfEsW4BHM8j29zNj7hnglX41mXuE_a7GAtGq99yF_7CgkKU6dvVnNrFh-1W00]--></g></svg>