<svg xmlns="http://www.w3.org/2000/svg" xmlns:xlink="http://www.w3.org/1999/xlink" contentStyleType="text/css" height="1929px" preserveAspectRatio="none" style="width:1786px;height:1929px;background:#FFFFFF;" version="1.1" viewBox="0 0 1786 1929" width="1786px" zoomAndPan="magnify"><defs/><g><rect fill="#FFA500" height="1910.2206" style="stroke:#181818;stroke-width:0.5;" width="113" x="1" y="6"/><text fill="#000000" font-family="sans-serif" font-size="13" font-weight="bold" lengthAdjust="spacing" textLength="102" x="6.5" y="19.897">Data Consumer</text><rect fill="#90EE90" height="1910.2206" style="stroke:#181818;stroke-width:0.5;" width="399.5" x="116" y="6"/><text fill="#000000" font-family="sans-serif" font-size="13" font-weight="bold" lengthAdjust="spacing" textLength="186" x="222.75" y="19.897">Data and Function Providers</text><rect fill="#D3D3D3" height="1910.2206" style="stroke:#181818;stroke-width:0.5;" width="315" x="517.5" y="6"/><text fill="#000000" font-family="sans-serif" font-size="13" font-weight="bold" lengthAdjust="spacing" textLength="58" x="646" y="19.897">PTX Core</text><rect fill="#ADD8E6" height="1910.2206" style="stroke:#181818;stroke-width:0.5;" width="944" x="834.5" y="6"/><text fill="#000000" font-family="sans-serif" font-size="13" font-weight="bold" lengthAdjust="spacing" textLength="128" x="1242.5" y="19.897">Edge Computing BB</text><rect fill="#FFFFFF" height="428.8842" style="stroke:#181818;stroke-width:1.0;" width="10" x="1574.5" y="1350.4945"/><line style="stroke:#181818;stroke-width:0.5;stroke-dasharray:5.0,5.0;" x1="57" x2="57" y1="111.8419" y2="1829.0848"/><line style="stroke:#181818;stroke-width:0.5;stroke-dasharray:5.0,5.0;" x1="152" x2="152" y1="111.8419" y2="1829.0848"/><line style="stroke:#181818;stroke-width:0.5;stroke-dasharray:5.0,5.0;" x1="253" x2="253" y1="111.8419" y2="1829.0848"/><line style="stroke:#181818;stroke-width:0.5;stroke-dasharray:5.0,5.0;" x1="343" x2="343" y1="111.8419" y2="1829.0848"/><line style="stroke:#181818;stroke-width:0.5;stroke-dasharray:5.0,5.0;" x1="460.5" x2="460.5" y1="111.8419" y2="1829.0848"/><line style="stroke:#181818;stroke-width:0.5;stroke-dasharray:5.0,5.0;" x1="553.5" x2="553.5" y1="111.8419" y2="1829.0848"/><line style="stroke:#181818;stroke-width:0.5;stroke-dasharray:5.0,5.0;" x1="712.5" x2="712.5" y1="111.8419" y2="1829.0848"/><line style="stroke:#181818;stroke-width:0.5;stroke-dasharray:5.0,5.0;" x1="792.5" x2="792.5" y1="111.8419" y2="1829.0848"/><line style="stroke:#181818;stroke-width:0.5;stroke-dasharray:5.0,5.0;" x1="869.5" x2="869.5" y1="111.8419" y2="1829.0848"/><line style="stroke:#181818;stroke-width:0.5;stroke-dasharray:5.0,5.0;" x1="998.5" x2="998.5" y1="111.8419" y2="1829.0848"/><line style="stroke:#181818;stroke-width:0.5;stroke-dasharray:5.0,5.0;" x1="1195" x2="1195" y1="111.8419" y2="1829.0848"/><line style="stroke:#181818;stroke-width:0.5;stroke-dasharray:5.0,5.0;" x1="1303" x2="1303" y1="111.8419" y2="1829.0848"/><line style="stroke:#181818;stroke-width:0.5;stroke-dasharray:5.0,5.0;" x1="1477" x2="1477" y1="111.8419" y2="1829.0848"/><line style="stroke:#181818;stroke-width:0.5;stroke-dasharray:5.0,5.0;" x1="1579" x2="1579" y1="111.8419" y2="1829.0848"/><line style="stroke:#181818;stroke-width:0.5;stroke-dasharray:5.0,5.0;" x1="1725.5" x2="1725.5" y1="111.8419" y2="1829.0848"/><rect fill="#E2E2F0" height="52.1358" rx="2.5" ry="2.5" style="stroke:#181818;stroke-width:0.5;" width="105" x="5" y="58.706"/><text fill="#000000" font-family="sans-serif" font-size="14" lengthAdjust="spacing" textLength="91" x="12" y="80.672">ProcessingBB</text><text fill="#000000" font-family="sans-serif" font-size="14" lengthAdjust="spacing" textLength="89" x="13" y="99.7399">/w Connector</text><rect fill="#E2E2F0" height="52.1358" rx="2.5" ry="2.5" style="stroke:#181818;stroke-width:0.5;" width="105" x="5" y="1828.0848"/><text fill="#000000" font-family="sans-serif" font-size="14" lengthAdjust="spacing" textLength="91" x="12" y="1850.0507">ProcessingBB</text><text fill="#000000" font-family="sans-serif" font-size="14" lengthAdjust="spacing" textLength="89" x="13" y="1869.1186">/w Connector</text><text fill="#000000" font-family="sans-serif" font-size="14" lengthAdjust="spacing" textLength="58" x="120" y="88.672">Function</text><text fill="#000000" font-family="sans-serif" font-size="14" lengthAdjust="spacing" textLength="56" x="121" y="107.7399">Provider</text><path d="M134,37.706 C134,27.706 152,27.706 152,27.706 C152,27.706 170,27.706 170,37.706 L170,63.706 C170,73.706 152,73.706 152,73.706 C152,73.706 134,73.706 134,63.706 L134,37.706 " fill="#E2E2F0" style="stroke:#181818;stroke-width:1.5;"/><path d="M134,37.706 C134,47.706 152,47.706 152,47.706 C152,47.706 170,47.706 170,37.706 " fill="none" style="stroke:#181818;stroke-width:1.5;"/><text fill="#000000" font-family="sans-serif" font-size="14" lengthAdjust="spacing" textLength="58" x="120" y="1843.0507">Function</text><text fill="#000000" font-family="sans-serif" font-size="14" lengthAdjust="spacing" textLength="56" x="121" y="1862.1186">Provider</text><path d="M134,1876.2206 C134,1866.2206 152,1866.2206 152,1866.2206 C152,1866.2206 170,1866.2206 170,1876.2206 L170,1902.2206 C170,1912.2206 152,1912.2206 152,1912.2206 C152,1912.2206 134,1912.2206 134,1902.2206 L134,1876.2206 " fill="#E2E2F0" style="stroke:#181818;stroke-width:1.5;"/><path d="M134,1876.2206 C134,1886.2206 152,1886.2206 152,1886.2206 C152,1886.2206 170,1886.2206 170,1876.2206 " fill="none" style="stroke:#181818;stroke-width:1.5;"/><rect fill="#E2E2F0" height="33.0679" rx="2.5" ry="2.5" style="stroke:#181818;stroke-width:0.5;" width="98" x="204" y="77.7739"/><text fill="#000000" font-family="sans-serif" font-size="14" lengthAdjust="spacing" textLength="84" x="211" y="99.7399">ConnectorFP</text><rect fill="#E2E2F0" height="33.0679" rx="2.5" ry="2.5" style="stroke:#181818;stroke-width:0.5;" width="98" x="204" y="1828.0848"/><text fill="#000000" font-family="sans-serif" font-size="14" lengthAdjust="spacing" textLength="84" x="211" y="1850.0507">ConnectorFP</text><text fill="#000000" font-family="sans-serif" font-size="14" lengthAdjust="spacing" textLength="31" x="324.5" y="88.672">Data</text><text fill="#000000" font-family="sans-serif" font-size="14" lengthAdjust="spacing" textLength="56" x="312" y="107.7399">Provider</text><path d="M325,37.706 C325,27.706 343,27.706 343,27.706 C343,27.706 361,27.706 361,37.706 L361,63.706 C361,73.706 343,73.706 343,73.706 C343,73.706 325,73.706 325,63.706 L325,37.706 " fill="#E2E2F0" style="stroke:#181818;stroke-width:1.5;"/><path d="M325,37.706 C325,47.706 343,47.706 343,47.706 C343,47.706 361,47.706 361,37.706 " fill="none" style="stroke:#181818;stroke-width:1.5;"/><text fill="#000000" font-family="sans-serif" font-size="14" lengthAdjust="spacing" textLength="31" x="324.5" y="1843.0507">Data</text><text fill="#000000" font-family="sans-serif" font-size="14" lengthAdjust="spacing" textLength="56" x="312" y="1862.1186">Provider</text><path d="M325,1876.2206 C325,1866.2206 343,1866.2206 343,1866.2206 C343,1866.2206 361,1866.2206 361,1876.2206 L361,1902.2206 C361,1912.2206 343,1912.2206 343,1912.2206 C343,1912.2206 325,1912.2206 325,1902.2206 L325,1876.2206 " fill="#E2E2F0" style="stroke:#181818;stroke-width:1.5;"/><path d="M325,1876.2206 C325,1886.2206 343,1886.2206 343,1886.2206 C343,1886.2206 361,1886.2206 361,1876.2206 " fill="none" style="stroke:#181818;stroke-width:1.5;"/><rect fill="#E2E2F0" height="33.0679" rx="2.5" ry="2.5" style="stroke:#181818;stroke-width:0.5;" width="101" x="410.5" y="77.7739"/><text fill="#000000" font-family="sans-serif" font-size="14" lengthAdjust="spacing" textLength="87" x="417.5" y="99.7399">ConnectorDP</text><rect fill="#E2E2F0" height="33.0679" rx="2.5" ry="2.5" style="stroke:#181818;stroke-width:0.5;" width="101" x="410.5" y="1828.0848"/><text fill="#000000" font-family="sans-serif" font-size="14" lengthAdjust="spacing" textLength="87" x="417.5" y="1850.0507">ConnectorDP</text><rect fill="#E2E2F0" height="33.0679" rx="2.5" ry="2.5" style="stroke:#181818;stroke-width:0.5;" width="65" x="521.5" y="77.7739"/><text fill="#000000" font-family="sans-serif" font-size="14" lengthAdjust="spacing" textLength="51" x="528.5" y="99.7399">Catalog</text><rect fill="#E2E2F0" height="33.0679" rx="2.5" ry="2.5" style="stroke:#181818;stroke-width:0.5;" width="65" x="521.5" y="1828.0848"/><text fill="#000000" font-family="sans-serif" font-size="14" lengthAdjust="spacing" textLength="51" x="528.5" y="1850.0507">Catalog</text><rect fill="#E2E2F0" height="33.0679" rx="2.5" ry="2.5" style="stroke:#181818;stroke-width:0.5;" width="69" x="678.5" y="77.7739"/><text fill="#000000" font-family="sans-serif" font-size="14" lengthAdjust="spacing" textLength="55" x="685.5" y="99.7399">Consent</text><rect fill="#E2E2F0" height="33.0679" rx="2.5" ry="2.5" style="stroke:#181818;stroke-width:0.5;" width="69" x="678.5" y="1828.0848"/><text fill="#000000" font-family="sans-serif" font-size="14" lengthAdjust="spacing" textLength="55" x="685.5" y="1850.0507">Consent</text><rect fill="#E2E2F0" height="33.0679" rx="2.5" ry="2.5" style="stroke:#181818;stroke-width:0.5;" width="71" x="757.5" y="77.7739"/><text fill="#000000" font-family="sans-serif" font-size="14" lengthAdjust="spacing" textLength="57" x="764.5" y="99.7399">Contract</text><rect fill="#E2E2F0" height="33.0679" rx="2.5" ry="2.5" style="stroke:#181818;stroke-width:0.5;" width="71" x="757.5" y="1828.0848"/><text fill="#000000" font-family="sans-serif" font-size="14" lengthAdjust="spacing" textLength="57" x="764.5" y="1850.0507">Contract</text><text fill="#000000" font-family="sans-serif" font-size="14" lengthAdjust="spacing" textLength="56" x="838.5" y="107.7399">EdgeAPI</text><path d="M849,64.7739 L849,88.7739 M849,76.7739 L866,76.7739 " fill="none" style="stroke:#181818;stroke-width:0.5;"/><ellipse cx="878" cy="76.7739" fill="#E2E2F0" rx="12" ry="12" style="stroke:#181818;stroke-width:0.5;"/><text fill="#000000" font-family="sans-serif" font-size="14" lengthAdjust="spacing" textLength="56" x="838.5" y="1843.0507">EdgeAPI</text><path d="M849,1851.1527 L849,1875.1527 M849,1863.1527 L866,1863.1527 " fill="none" style="stroke:#181818;stroke-width:0.5;"/><ellipse cx="878" cy="1863.1527" fill="#E2E2F0" rx="12" ry="12" style="stroke:#181818;stroke-width:0.5;"/><rect fill="#E2E2F0" height="33.0679" rx="2.5" ry="2.5" style="stroke:#181818;stroke-width:0.5;" width="117" x="940.5" y="77.7739"/><text fill="#000000" font-family="sans-serif" font-size="14" lengthAdjust="spacing" textLength="103" x="947.5" y="99.7399">ConnectorEdge</text><rect fill="#E2E2F0" height="33.0679" rx="2.5" ry="2.5" style="stroke:#181818;stroke-width:0.5;" width="117" x="940.5" y="1828.0848"/><text fill="#000000" font-family="sans-serif" font-size="14" lengthAdjust="spacing" textLength="103" x="947.5" y="1850.0507">ConnectorEdge</text><rect fill="#E2E2F0" height="33.0679" rx="2.5" ry="2.5" style="stroke:#181818;stroke-width:0.5;" width="122" x="1134" y="77.7739"/><text fill="#000000" font-family="sans-serif" font-size="14" lengthAdjust="spacing" textLength="108" x="1141" y="99.7399">PrivacyZoneMgr</text><rect fill="#E2E2F0" height="33.0679" rx="2.5" ry="2.5" style="stroke:#181818;stroke-width:0.5;" width="122" x="1134" y="1828.0848"/><text fill="#000000" font-family="sans-serif" font-size="14" lengthAdjust="spacing" textLength="108" x="1141" y="1850.0507">PrivacyZoneMgr</text><text fill="#000000" font-family="sans-serif" font-size="14" lengthAdjust="spacing" textLength="68" x="1266" y="107.7399">Scheduler</text><ellipse cx="1303" cy="76.7739" fill="#E2E2F0" rx="12" ry="12" style="stroke:#181818;stroke-width:0.5;"/><polygon fill="#181818" points="1299,64.7739,1305,59.7739,1303,64.7739,1305,69.7739,1299,64.7739" style="stroke:#181818;stroke-width:1.0;"/><text fill="#000000" font-family="sans-serif" font-size="14" lengthAdjust="spacing" textLength="68" x="1266" y="1843.0507">Scheduler</text><ellipse cx="1303" cy="1863.1527" fill="#E2E2F0" rx="12" ry="12" style="stroke:#181818;stroke-width:0.5;"/><polygon fill="#181818" points="1299,1851.1527,1305,1846.1527,1303,1851.1527,1305,1856.1527,1299,1851.1527" style="stroke:#181818;stroke-width:1.0;"/><rect fill="#E2E2F0" height="33.0679" rx="2.5" ry="2.5" style="stroke:#181818;stroke-width:0.5;" width="112" x="1421" y="77.7739"/><text fill="#000000" font-family="sans-serif" font-size="14" lengthAdjust="spacing" textLength="98" x="1428" y="99.7399">ArtifactBuilder</text><rect fill="#E2E2F0" height="33.0679" rx="2.5" ry="2.5" style="stroke:#181818;stroke-width:0.5;" width="112" x="1421" y="1828.0848"/><text fill="#000000" font-family="sans-serif" font-size="14" lengthAdjust="spacing" textLength="98" x="1428" y="1850.0507">ArtifactBuilder</text><rect fill="#E2E2F0" height="33.0679" rx="2.5" ry="2.5" style="stroke:#181818;stroke-width:0.5;" width="73" x="1543" y="77.7739"/><text fill="#000000" font-family="sans-serif" font-size="14" lengthAdjust="spacing" textLength="59" x="1550" y="99.7399">Wrapper</text><rect fill="#E2E2F0" height="33.0679" rx="2.5" ry="2.5" style="stroke:#181818;stroke-width:0.5;" width="73" x="1543" y="1828.0848"/><text fill="#000000" font-family="sans-serif" font-size="14" lengthAdjust="spacing" textLength="59" x="1550" y="1850.0507">Wrapper</text><rect fill="#E2E2F0" height="33.0679" rx="2.5" ry="2.5" style="stroke:#181818;stroke-width:0.5;" width="98" x="1676.5" y="77.7739"/><text fill="#000000" font-family="sans-serif" font-size="14" lengthAdjust="spacing" textLength="84" x="1683.5" y="99.7399">WorkerNode</text><rect fill="#E2E2F0" height="33.0679" rx="2.5" ry="2.5" style="stroke:#181818;stroke-width:0.5;" width="98" x="1676.5" y="1828.0848"/><text fill="#000000" font-family="sans-serif" font-size="14" lengthAdjust="spacing" textLength="84" x="1683.5" y="1850.0507">WorkerNode</text><rect fill="#FFFFFF" height="428.8842" style="stroke:#181818;stroke-width:1.0;" width="10" x="1574.5" y="1350.4945"/><polygon fill="#FEFFDD" points="26,126.8419,824,126.8419,834,138.8419,824,151.8419,26,151.8419,16,138.8419,26,126.8419" style="stroke:#181818;stroke-width:0.5;"/><text fill="#000000" font-family="sans-serif" font-size="13" lengthAdjust="spacing" textLength="187" x="331.75" y="144.7389">Gathering Contracts &amp; Consent</text><polygon fill="#181818" points="857.5,177.2539,867.5,181.2539,857.5,185.2539,861.5,181.2539" style="stroke:#181818;stroke-width:1.0;"/><line style="stroke:#181818;stroke-width:1.0;" x1="57.5" x2="863.5" y1="181.2539" y2="181.2539"/><text fill="#000000" font-family="sans-serif" font-size="13" lengthAdjust="spacing" textLength="655" x="64.5" y="175.4449">requestEdgeProc(Function F, PrivateData PD, Contract Cd, Contract Cf, Consent Cons(F on PD), AccessToken T)</text><polygon fill="#181818" points="565,208.9599,555,212.9599,565,216.9599,561,212.9599" style="stroke:#181818;stroke-width:1.0;"/><line style="stroke:#181818;stroke-width:1.0;" x1="559" x2="868.5" y1="212.9599" y2="212.9599"/><text fill="#000000" font-family="sans-serif" font-size="13" lengthAdjust="spacing" textLength="181" x="571" y="207.1509">getAccessInfo(PrivateData PD)</text><polygon fill="#181818" points="857.5,240.6659,867.5,244.6659,857.5,248.6659,861.5,244.6659" style="stroke:#181818;stroke-width:1.0;"/><line style="stroke:#181818;stroke-width:1.0;" x1="554" x2="863.5" y1="244.6659" y2="244.6659"/><text fill="#000000" font-family="sans-serif" font-size="13" lengthAdjust="spacing" textLength="277" x="561" y="238.8569">ID of DataProvider, AccessInfo of its Connector</text><rect fill="#EEEEEE" height="3" style="stroke:#EEEEEE;stroke-width:1.0;" width="1779.5" x="0" y="274.5189"/><line style="stroke:#000000;stroke-width:1.0;" x1="0" x2="1779.5" y1="274.5189" y2="274.5189"/><line style="stroke:#000000;stroke-width:1.0;" x1="0" x2="1779.5" y1="277.5189" y2="277.5189"/><rect fill="#EEEEEE" height="25.706" style="stroke:#000000;stroke-width:2.0;" width="205" x="787.25" y="262.6659"/><text fill="#000000" font-family="sans-serif" font-size="13" font-weight="bold" lengthAdjust="spacing" textLength="188" x="793.25" y="280.5629">Gathering Privacy Zone Data</text><polygon fill="#181818" points="1183,335.784,1193,339.784,1183,343.784,1187,339.784" style="stroke:#181818;stroke-width:1.0;"/><line style="stroke:#181818;stroke-width:1.0;" x1="869.5" x2="1189" y1="339.784" y2="339.784"/><text fill="#000000" font-family="sans-serif" font-size="13" lengthAdjust="spacing" textLength="169" x="876.5" y="316.2689">getPZData(DataProvider DP,</text><text fill="#000000" font-family="sans-serif" font-size="13" lengthAdjust="spacing" textLength="94" x="876.5" y="333.975">PrivateData PD)</text><polygon fill="#181818" points="1010,385.196,1000,389.196,1010,393.196,1006,389.196" style="stroke:#181818;stroke-width:1.0;"/><line style="stroke:#181818;stroke-width:1.0;" x1="1004" x2="1194" y1="389.196" y2="389.196"/><text fill="#000000" font-family="sans-serif" font-size="13" lengthAdjust="spacing" textLength="169" x="1016" y="365.681">getPZData(DataProvider DP,</text><text fill="#000000" font-family="sans-serif" font-size="13" lengthAdjust="spacing" textLength="94" x="1016" y="383.387">PrivateData PD)</text><polygon fill="#181818" points="472,416.902,462,420.902,472,424.902,468,420.902" style="stroke:#181818;stroke-width:1.0;"/><line style="stroke:#181818;stroke-width:1.0;" x1="466" x2="998" y1="420.902" y2="420.902"/><text fill="#000000" font-family="sans-serif" font-size="13" lengthAdjust="spacing" textLength="266" x="478" y="415.093">getPZData(DataProvider DP, PrivateData PD)</text><polygon fill="#181818" points="781,466.314,791,470.314,781,474.314,785,470.314" style="stroke:#181818;stroke-width:1.0;"/><line style="stroke:#181818;stroke-width:1.0;" x1="461" x2="787" y1="470.314" y2="470.314"/><text fill="#000000" font-family="sans-serif" font-size="13" lengthAdjust="spacing" textLength="280" x="468" y="446.799">verify contracts (DataProvider, CloudProviders)</text><text fill="#000000" font-family="sans-serif" font-size="13" lengthAdjust="spacing" textLength="303" x="468" y="464.505">get list of contracted CPs, other privacy constraints</text><polygon fill="#181818" points="472,498.0201,462,502.0201,472,506.0201,468,502.0201" style="stroke:#181818;stroke-width:1.0;"/><line style="stroke:#181818;stroke-width:1.0;" x1="466" x2="792" y1="502.0201" y2="502.0201"/><text fill="#000000" font-family="sans-serif" font-size="13" lengthAdjust="spacing" textLength="259" x="478" y="496.2111">OK, list of CPs and other privacy constraints</text><polygon fill="#181818" points="987,529.7261,997,533.7261,987,537.7261,991,533.7261" style="stroke:#181818;stroke-width:1.0;"/><line style="stroke:#181818;stroke-width:1.0;" x1="461" x2="993" y1="533.7261" y2="533.7261"/><text fill="#000000" font-family="sans-serif" font-size="13" lengthAdjust="spacing" textLength="368" x="468" y="527.9171">PrivacyZoneData PZData (of DataProvider DP, PrivateData PD)</text><polygon fill="#181818" points="1183,561.4321,1193,565.4321,1183,569.4321,1187,565.4321" style="stroke:#181818;stroke-width:1.0;"/><line style="stroke:#181818;stroke-width:1.0;" x1="999" x2="1189" y1="565.4321" y2="565.4321"/><text fill="#000000" font-family="sans-serif" font-size="13" lengthAdjust="spacing" textLength="147" x="1006" y="559.6231">PrivacyZoneData PZData</text><polygon fill="#181818" points="880.5,593.1381,870.5,597.1381,880.5,601.1381,876.5,597.1381" style="stroke:#181818;stroke-width:1.0;"/><line style="stroke:#181818;stroke-width:1.0;" x1="874.5" x2="1194" y1="597.1381" y2="597.1381"/><text fill="#000000" font-family="sans-serif" font-size="13" lengthAdjust="spacing" textLength="147" x="886.5" y="591.3291">PrivacyZoneData PZData</text><rect fill="#EEEEEE" height="3" style="stroke:#EEEEEE;stroke-width:1.0;" width="1779.5" x="0" y="626.9911"/><line style="stroke:#000000;stroke-width:1.0;" x1="0" x2="1779.5" y1="626.9911" y2="626.9911"/><line style="stroke:#000000;stroke-width:1.0;" x1="0" x2="1779.5" y1="629.9911" y2="629.9911"/><rect fill="#EEEEEE" height="25.706" style="stroke:#000000;stroke-width:2.0;" width="223" x="778.25" y="615.1381"/><text fill="#000000" font-family="sans-serif" font-size="13" font-weight="bold" lengthAdjust="spacing" textLength="206" x="784.25" y="633.0351">Building and Deploying Artifact</text><polygon fill="#181818" points="1291,723.6682,1301,727.6682,1291,731.6682,1295,727.6682" style="stroke:#181818;stroke-width:1.0;"/><line style="stroke:#181818;stroke-width:1.0;" x1="869.5" x2="1297" y1="727.6682" y2="727.6682"/><text fill="#000000" font-family="sans-serif" font-size="13" lengthAdjust="spacing" textLength="269" x="876.5" y="668.7411">requestEdgeProc(Function F, PrivateData PD,</text><text fill="#000000" font-family="sans-serif" font-size="13" lengthAdjust="spacing" textLength="147" x="876.5" y="686.4472">Contract Cd, Contract Cf,</text><text fill="#000000" font-family="sans-serif" font-size="13" lengthAdjust="spacing" textLength="232" x="876.5" y="704.1532">Consent Cons(F on PD), AccessToken T,</text><text fill="#000000" font-family="sans-serif" font-size="13" lengthAdjust="spacing" textLength="151" x="876.5" y="721.8592">PrivacyZoneData PZData)</text><polygon fill="#181818" points="1465,826.1983,1475,830.1983,1465,834.1983,1469,830.1983" style="stroke:#181818;stroke-width:1.0;"/><line style="stroke:#181818;stroke-width:1.0;" x1="1303" x2="1471" y1="830.1983" y2="830.1983"/><text fill="#000000" font-family="sans-serif" font-size="13" lengthAdjust="spacing" textLength="143" x="1310" y="753.5652">buildArtifact(Function F,</text><text fill="#000000" font-family="sans-serif" font-size="13" lengthAdjust="spacing" textLength="93" x="1310" y="771.2712">PrivateData PD,</text><text fill="#000000" font-family="sans-serif" font-size="13" lengthAdjust="spacing" textLength="147" x="1310" y="788.9772">Contract Cd, Contract Cf,</text><text fill="#000000" font-family="sans-serif" font-size="13" lengthAdjust="spacing" textLength="140" x="1310" y="806.6833">Consent Cons(F on PD),</text><text fill="#000000" font-family="sans-serif" font-size="13" lengthAdjust="spacing" textLength="90" x="1310" y="824.3893">AccessToken T)</text><polygon fill="#181818" points="1010,857.9043,1000,861.9043,1010,865.9043,1006,861.9043" style="stroke:#181818;stroke-width:1.0;"/><line style="stroke:#181818;stroke-width:1.0;" x1="1004" x2="1476" y1="861.9043" y2="861.9043"/><text fill="#000000" font-family="sans-serif" font-size="13" lengthAdjust="spacing" textLength="170" x="1016" y="856.0953">requestFunction(Function F)</text><polygon fill="#181818" points="565,889.6103,555,893.6103,565,897.6103,561,893.6103" style="stroke:#181818;stroke-width:1.0;"/><line style="stroke:#181818;stroke-width:1.0;" x1="559" x2="998" y1="893.6103" y2="893.6103"/><text fill="#000000" font-family="sans-serif" font-size="13" lengthAdjust="spacing" textLength="154" x="571" y="887.8013">getAccessInfo(Function F)</text><polygon fill="#181818" points="987,921.3163,997,925.3163,987,929.3163,991,925.3163" style="stroke:#181818;stroke-width:1.0;"/><line style="stroke:#181818;stroke-width:1.0;" x1="554" x2="993" y1="925.3163" y2="925.3163"/><text fill="#000000" font-family="sans-serif" font-size="13" lengthAdjust="spacing" textLength="302" x="561" y="919.5073">ID of FunctionProvider, AccessInfo of its Connector</text><polygon fill="#181818" points="264,953.0223,254,957.0223,264,961.0223,260,957.0223" style="stroke:#181818;stroke-width:1.0;"/><line style="stroke:#181818;stroke-width:1.0;" x1="258" x2="998" y1="957.0223" y2="957.0223"/><text fill="#000000" font-family="sans-serif" font-size="13" lengthAdjust="spacing" textLength="243" x="270" y="951.2133">requestFunction(Function F, Contract Cf)</text><polygon fill="#181818" points="781,984.7284,791,988.7284,781,992.7284,785,988.7284" style="stroke:#181818;stroke-width:1.0;"/><line style="stroke:#181818;stroke-width:1.0;" x1="253" x2="787" y1="988.7284" y2="988.7284"/><text fill="#000000" font-family="sans-serif" font-size="13" lengthAdjust="spacing" textLength="160" x="260" y="982.9194">verifyContract(Contract Cf)</text><polygon fill="#181818" points="264,1016.4344,254,1020.4344,264,1024.4344,260,1020.4344" style="stroke:#181818;stroke-width:1.0;"/><line style="stroke:#181818;stroke-width:1.0;" x1="258" x2="792" y1="1020.4344" y2="1020.4344"/><text fill="#000000" font-family="sans-serif" font-size="13" lengthAdjust="spacing" textLength="18" x="270" y="1014.6254">OK</text><polygon fill="#181818" points="163,1065.8464,153,1069.8464,163,1073.8464,159,1069.8464" style="stroke:#181818;stroke-width:1.0;"/><line style="stroke:#181818;stroke-width:1.0;" x1="157" x2="252" y1="1069.8464" y2="1069.8464"/><text fill="#000000" font-family="sans-serif" font-size="13" lengthAdjust="spacing" textLength="77" x="169" y="1046.3314">getFunction(</text><text fill="#000000" font-family="sans-serif" font-size="13" lengthAdjust="spacing" textLength="67" x="169" y="1064.0374">Function F)</text><polygon fill="#181818" points="241,1097.5524,251,1101.5524,241,1105.5524,245,1101.5524" style="stroke:#181818;stroke-width:1.0;"/><line style="stroke:#181818;stroke-width:1.0;" x1="152" x2="247" y1="1101.5524" y2="1101.5524"/><text fill="#000000" font-family="sans-serif" font-size="13" lengthAdjust="spacing" textLength="57" x="159" y="1095.7434">function f</text><polygon fill="#181818" points="987,1129.2584,997,1133.2584,987,1137.2584,991,1133.2584" style="stroke:#181818;stroke-width:1.0;"/><line style="stroke:#181818;stroke-width:1.0;" x1="253" x2="993" y1="1133.2584" y2="1133.2584"/><text fill="#000000" font-family="sans-serif" font-size="13" lengthAdjust="spacing" textLength="57" x="260" y="1127.4494">function f</text><polygon fill="#181818" points="1465,1160.9645,1475,1164.9645,1465,1168.9645,1469,1164.9645" style="stroke:#181818;stroke-width:1.0;"/><line style="stroke:#181818;stroke-width:1.0;" x1="999" x2="1471" y1="1164.9645" y2="1164.9645"/><text fill="#000000" font-family="sans-serif" font-size="13" lengthAdjust="spacing" textLength="57" x="1006" y="1159.1555">function f</text><polygon fill="#181818" points="1314,1192.6705,1304,1196.6705,1314,1200.6705,1310,1196.6705" style="stroke:#181818;stroke-width:1.0;"/><line style="stroke:#181818;stroke-width:1.0;" x1="1308" x2="1476" y1="1196.6705" y2="1196.6705"/><text fill="#000000" font-family="sans-serif" font-size="13" lengthAdjust="spacing" textLength="91" x="1320" y="1190.8615">done, Artifact A</text><line style="stroke:#181818;stroke-width:1.0;" x1="1303" x2="1345" y1="1228.3765" y2="1228.3765"/><line style="stroke:#181818;stroke-width:1.0;" x1="1345" x2="1345" y1="1228.3765" y2="1241.3765"/><line style="stroke:#181818;stroke-width:1.0;" x1="1304" x2="1345" y1="1241.3765" y2="1241.3765"/><polygon fill="#181818" points="1314,1237.3765,1304,1241.3765,1314,1245.3765,1310,1241.3765" style="stroke:#181818;stroke-width:1.0;"/><text fill="#000000" font-family="sans-serif" font-size="13" lengthAdjust="spacing" textLength="115" x="1310" y="1222.5675">schedule(Artifact A)</text><polygon fill="#181818" points="1713.5,1269.0825,1723.5,1273.0825,1713.5,1277.0825,1717.5,1273.0825" style="stroke:#181818;stroke-width:1.0;"/><line style="stroke:#181818;stroke-width:1.0;" x1="1303" x2="1719.5" y1="1273.0825" y2="1273.0825"/><text fill="#000000" font-family="sans-serif" font-size="13" lengthAdjust="spacing" textLength="146" x="1310" y="1267.2735">deployArtifact(Artifact A)</text><rect fill="#EEEEEE" height="3" style="stroke:#EEEEEE;stroke-width:1.0;" width="1779.5" x="0" y="1302.9355"/><line style="stroke:#000000;stroke-width:1.0;" x1="0" x2="1779.5" y1="1302.9355" y2="1302.9355"/><line style="stroke:#000000;stroke-width:1.0;" x1="0" x2="1779.5" y1="1305.9355" y2="1305.9355"/><rect fill="#EEEEEE" height="25.706" style="stroke:#000000;stroke-width:2.0;" width="276" x="751.75" y="1291.0825"/><text fill="#000000" font-family="sans-serif" font-size="13" font-weight="bold" lengthAdjust="spacing" textLength="259" x="757.75" y="1308.9795">Executing the Function on Private Data</text><polygon fill="#181818" points="1595.5,1346.4945,1585.5,1350.4945,1595.5,1354.4945,1591.5,1350.4945" style="stroke:#181818;stroke-width:1.0;"/><line style="stroke:#181818;stroke-width:1.0;" x1="1589.5" x2="1724.5" y1="1350.4945" y2="1350.4945"/><text fill="#000000" font-family="sans-serif" font-size="13" lengthAdjust="spacing" textLength="81" x="1601.5" y="1344.6855">init(Artifact A)</text><polygon fill="#181818" points="1010,1395.9066,1000,1399.9066,1010,1403.9066,1006,1399.9066" style="stroke:#181818;stroke-width:1.0;"/><line style="stroke:#181818;stroke-width:1.0;" x1="1004" x2="1573.5" y1="1399.9066" y2="1399.9066"/><text fill="#000000" font-family="sans-serif" font-size="13" lengthAdjust="spacing" textLength="293" x="1016" y="1376.3916">requestData/wPrivacyPreserving(PrivateData PD,</text><text fill="#000000" font-family="sans-serif" font-size="13" lengthAdjust="spacing" textLength="310" x="1016" y="1394.0976">Contract Cd, Consent Cons(F on PD), AccessToken T)</text><polygon fill="#181818" points="472,1427.6126,462,1431.6126,472,1435.6126,468,1431.6126" style="stroke:#181818;stroke-width:1.0;"/><line style="stroke:#181818;stroke-width:1.0;" x1="466" x2="998" y1="1431.6126" y2="1431.6126"/><text fill="#000000" font-family="sans-serif" font-size="13" lengthAdjust="spacing" textLength="514" x="478" y="1425.8036">requestData/wPrivacyPreserving(PrivateData PD, Contract Cd, Consent Cons(F on PD))</text><polygon fill="#181818" points="781,1459.3186,791,1463.3186,781,1467.3186,785,1463.3186" style="stroke:#181818;stroke-width:1.0;"/><line style="stroke:#181818;stroke-width:1.0;" x1="461" x2="787" y1="1463.3186" y2="1463.3186"/><text fill="#000000" font-family="sans-serif" font-size="13" lengthAdjust="spacing" textLength="164" x="468" y="1457.5096">verifyContract(Contract Cd)</text><polygon fill="#181818" points="472,1491.0246,462,1495.0246,472,1499.0246,468,1495.0246" style="stroke:#181818;stroke-width:1.0;"/><line style="stroke:#181818;stroke-width:1.0;" x1="466" x2="792" y1="1495.0246" y2="1495.0246"/><text fill="#000000" font-family="sans-serif" font-size="13" lengthAdjust="spacing" textLength="18" x="478" y="1489.2156">OK</text><polygon fill="#181818" points="701,1522.7306,711,1526.7306,701,1530.7306,705,1526.7306" style="stroke:#181818;stroke-width:1.0;"/><line style="stroke:#181818;stroke-width:1.0;" x1="461" x2="707" y1="1526.7306" y2="1526.7306"/><text fill="#000000" font-family="sans-serif" font-size="13" lengthAdjust="spacing" textLength="228" x="468" y="1520.9216">verifyConsent(Consent Cons(F on PD))</text><polygon fill="#181818" points="472,1554.4367,462,1558.4367,472,1562.4367,468,1558.4367" style="stroke:#181818;stroke-width:1.0;"/><line style="stroke:#181818;stroke-width:1.0;" x1="466" x2="712" y1="1558.4367" y2="1558.4367"/><text fill="#000000" font-family="sans-serif" font-size="13" lengthAdjust="spacing" textLength="18" x="478" y="1552.6277">OK</text><polygon fill="#181818" points="354,1603.8487,344,1607.8487,354,1611.8487,350,1607.8487" style="stroke:#181818;stroke-width:1.0;"/><line style="stroke:#181818;stroke-width:1.0;" x1="348" x2="460" y1="1607.8487" y2="1607.8487"/><text fill="#000000" font-family="sans-serif" font-size="13" lengthAdjust="spacing" textLength="52" x="360" y="1584.3337">getData(</text><text fill="#000000" font-family="sans-serif" font-size="13" lengthAdjust="spacing" textLength="94" x="360" y="1602.0397">PrivateData PD)</text><polygon fill="#181818" points="449,1635.5547,459,1639.5547,449,1643.5547,453,1639.5547" style="stroke:#181818;stroke-width:1.0;"/><line style="stroke:#181818;stroke-width:1.0;" x1="343" x2="455" y1="1639.5547" y2="1639.5547"/><text fill="#000000" font-family="sans-serif" font-size="13" lengthAdjust="spacing" textLength="54" x="350" y="1633.7457">pdata pd</text><polygon fill="#181818" points="987,1667.2607,997,1671.2607,987,1675.2607,991,1671.2607" style="stroke:#181818;stroke-width:1.0;"/><line style="stroke:#181818;stroke-width:1.0;" x1="461" x2="993" y1="1671.2607" y2="1671.2607"/><text fill="#000000" font-family="sans-serif" font-size="13" lengthAdjust="spacing" textLength="314" x="468" y="1665.4517">pdata pd (privacy preserving sending of PrivateData)</text><polygon fill="#181818" points="1562.5,1698.9667,1572.5,1702.9667,1562.5,1706.9667,1566.5,1702.9667" style="stroke:#181818;stroke-width:1.0;"/><line style="stroke:#181818;stroke-width:1.0;" x1="999" x2="1568.5" y1="1702.9667" y2="1702.9667"/><text fill="#000000" font-family="sans-serif" font-size="13" lengthAdjust="spacing" textLength="314" x="1006" y="1697.1577">pdata pd (privacy preserving sending of PrivateData)</text><line style="stroke:#181818;stroke-width:1.0;" x1="1584.5" x2="1626.5" y1="1734.6728" y2="1734.6728"/><line style="stroke:#181818;stroke-width:1.0;" x1="1626.5" x2="1626.5" y1="1734.6728" y2="1747.6728"/><line style="stroke:#181818;stroke-width:1.0;" x1="1585.5" x2="1626.5" y1="1747.6728" y2="1747.6728"/><polygon fill="#181818" points="1595.5,1743.6728,1585.5,1747.6728,1595.5,1751.6728,1591.5,1747.6728" style="stroke:#181818;stroke-width:1.0;"/><text fill="#000000" font-family="sans-serif" font-size="13" lengthAdjust="spacing" textLength="112" x="1591.5" y="1728.8638">execute(function f)</text><polygon fill="#181818" points="880.5,1775.3788,870.5,1779.3788,880.5,1783.3788,876.5,1779.3788" style="stroke:#181818;stroke-width:1.0;"/><line style="stroke:#181818;stroke-width:1.0;" x1="874.5" x2="1578.5" y1="1779.3788" y2="1779.3788"/><text fill="#000000" font-family="sans-serif" font-size="13" lengthAdjust="spacing" textLength="48" x="886.5" y="1773.5698">Result R</text><line style="stroke:#A80036;stroke-width:2.0;" x1="1570.5" x2="1588.5" y1="1770.3788" y2="1788.3788"/><line style="stroke:#A80036;stroke-width:2.0;" x1="1570.5" x2="1588.5" y1="1788.3788" y2="1770.3788"/><polygon fill="#181818" points="68.5,1807.0848,58.5,1811.0848,68.5,1815.0848,64.5,1811.0848" style="stroke:#181818;stroke-width:1.0;"/><line style="stroke:#181818;stroke-width:1.0;" x1="62.5" x2="868.5" y1="1811.0848" y2="1811.0848"/><text fill="#000000" font-family="sans-serif" font-size="13" lengthAdjust="spacing" textLength="48" x="74.5" y="1805.2758">Result R</text><!--SRC=[dLThJzim5FtkNt75f2cLEl7OsACIaoYb2Er1n90seNv94xT413jp7A3_VjTEdDXEqiBsOMtjutElhy-vDal-37kpI4PmnbbHFb2n1s-kHCJMb03-ooCXqpZD8oPXBnGyfaMHilLqkc3xJseDex7ak2Wgm9u6BX8gu9XGbi2IFvDb4oZ2aNd9OfbofjOyfeWiCEptT7qdBmIbJ8TE4BoC2Wfx1hrW1gxZcM4pMCSyFEXatkGv3mtes8kXKlFurP37VRI5UsQuZxnTXpT_42MejSLDbmQ3PNnTKxplZLDG_Am07te1KaInGHmVk5cS9skAc8Uyb7X2C9sQTAPPMPtrafSiYSG65FGqlAo9FcxPioQjOSSTM2ZInoZUt796VwnD2JzLTB7AbcVmAxwZIPar5VxSZNQANrUuiMcPPkrHVEa2VuiepoqTz22ukAVY9qzCreU7RPd87UCI9nvntDRok2dj12uYUKU5Ag0PA-2jEHj270ky-zfKSWA2_Yrf8TM00WMD0-RZgawIQdU4ipOSd2NsZzMu4O7w3EQW33GRZU4qLb5l-3rbS3CY9YecO6GrWJML5UoIhNZWXXmHWtDolfm1NpasCA4KXvfBSVkD60WvER4AL9y-gEFN983JTcwUF7IAuQr21exrPk4Ob3NTZBtLQg-EAbz9vowssT3NMxa6cN1XnLETtmHGMEbgKqbVAoTmQtkMyJ9fEk9eWKrOGfOMKfNQhA89d8N56BYgC-HraN6smEcKoO8q4JkxkFesRlYGHBVYhJpUHfpoMWTGxLtN1m9FCjjhPAhTqK8_Uy-fjt8TMA9KgLk74gNQyOpc6T-eNwQpe39jOROzwLM-NR11u-gfdSvjTDdPn8YqEM62VaUSm59zCyDEahxKrSXmWnbCTC6y9kFdqAEGkdOc6okjFhyDT2fdKTkb_5XLh_AV13lwrR3fv-7M_9sgMPkPzrlU30J-ggvFvvLFVShEMqUNgSbimUmoTS2T02k3NlNaxjJLGdRBrTMX1UyHY6si11K-RXruwYhSHXRrzw05UtwmhdKarlPkl60lKgtW_9d6rHC86r_x4DLlKUqJSrSHYrN5g1yN4qXPwjBYHxMonX237VQ4Yh7_L9iz5BIWuX5p2dQsb1TS_pkkijTb0BiJ696TTrwF0PBHrekgXr97jXZLxs0W8pFy0cRdijAsqlTyzudW03l4kVfR0lydk-vD0uJ0NBfvKtt0fFKzXRtA2jzpfgqS_ulFKcZBHBKrQD2Qs06sD-qrBSfCmZL9K4Y2RnhXEwyxwobiBVa7]--></g></svg>