<svg xmlns="http://www.w3.org/2000/svg" xmlns:xlink="http://www.w3.org/1999/xlink" contentStyleType="text/css" height="1119px" preserveAspectRatio="none" style="width:1718px;height:1119px;background:#FFFFFF;" version="1.1" viewBox="0 0 1718 1119" width="1718px" zoomAndPan="magnify"><defs/><g><!--class EdgeAPI--><g id="elem_EdgeAPI"><rect codeLine="2" fill="#F1F1F1" height="67.0679" id="EdgeAPI" rx="2.5" ry="2.5" style="stroke:#181818;stroke-width:0.5;" width="300" x="1031" y="134"/><ellipse cx="1148.75" cy="150" fill="#ADD1B2" rx="11" ry="11" style="stroke:#181818;stroke-width:1.0;"/><path d="M1151.7188,155.6406 Q1151.1406,155.9375 1150.5,156.0781 Q1149.8594,156.2344 1149.1563,156.2344 Q1146.6563,156.2344 1145.3281,154.5938 Q1144.0156,152.9375 1144.0156,149.8125 Q1144.0156,146.6875 1145.3281,145.0313 Q1146.6563,143.375 1149.1563,143.375 Q1149.8594,143.375 1150.5,143.5313 Q1151.1563,143.6875 1151.7188,143.9844 L1151.7188,146.7031 Q1151.0938,146.125 1150.5,145.8594 Q1149.9063,145.5781 1149.2813,145.5781 Q1147.9375,145.5781 1147.25,146.6563 Q1146.5625,147.7188 1146.5625,149.8125 Q1146.5625,151.9063 1147.25,152.9844 Q1147.9375,154.0469 1149.2813,154.0469 Q1149.9063,154.0469 1150.5,153.7813 Q1151.0938,153.5 1151.7188,152.9219 L1151.7188,155.6406 Z " fill="#000000"/><text fill="#000000" font-family="sans-serif" font-size="14" lengthAdjust="spacing" textLength="56" x="1169.25" y="155.432">EdgeAPI</text><line style="stroke:#181818;stroke-width:0.5;" x1="1032" x2="1330" y1="166" y2="166"/><line style="stroke:#181818;stroke-width:0.5;" x1="1032" x2="1330" y1="174" y2="174"/><text fill="#000000" font-family="sans-serif" font-size="14" lengthAdjust="spacing" textLength="288" x="1037" y="192.9659">result requestEdgeProc(Function F, Data D)</text></g><!--class PrivacyZoneMgr--><g id="elem_PrivacyZoneMgr"><rect codeLine="5" fill="#F1F1F1" height="67.0679" id="PrivacyZoneMgr" rx="2.5" ry="2.5" style="stroke:#181818;stroke-width:0.5;" width="300" x="366" y="396"/><ellipse cx="457.75" cy="412" fill="#ADD1B2" rx="11" ry="11" style="stroke:#181818;stroke-width:1.0;"/><path d="M460.7188,417.6406 Q460.1406,417.9375 459.5,418.0781 Q458.8594,418.2344 458.1563,418.2344 Q455.6563,418.2344 454.3281,416.5938 Q453.0156,414.9375 453.0156,411.8125 Q453.0156,408.6875 454.3281,407.0313 Q455.6563,405.375 458.1563,405.375 Q458.8594,405.375 459.5,405.5313 Q460.1563,405.6875 460.7188,405.9844 L460.7188,408.7031 Q460.0938,408.125 459.5,407.8594 Q458.9063,407.5781 458.2813,407.5781 Q456.9375,407.5781 456.25,408.6563 Q455.5625,409.7188 455.5625,411.8125 Q455.5625,413.9063 456.25,414.9844 Q456.9375,416.0469 458.2813,416.0469 Q458.9063,416.0469 459.5,415.7813 Q460.0938,415.5 460.7188,414.9219 L460.7188,417.6406 Z " fill="#000000"/><text fill="#000000" font-family="sans-serif" font-size="14" lengthAdjust="spacing" textLength="108" x="478.25" y="417.432">PrivacyZoneMgr</text><line style="stroke:#181818;stroke-width:0.5;" x1="367" x2="665" y1="428" y2="428"/><line style="stroke:#181818;stroke-width:0.5;" x1="367" x2="665" y1="436" y2="436"/><text fill="#000000" font-family="sans-serif" font-size="14" lengthAdjust="spacing" textLength="288" x="372" y="454.9659">PZdata getPZdata(DataProvider DP, Data D)</text></g><!--class Connector--><g id="elem_Connector"><rect codeLine="8" fill="#F1F1F1" height="86.1358" id="Connector" rx="2.5" ry="2.5" style="stroke:#181818;stroke-width:0.5;" width="317" x="27.5" y="686.5"/><ellipse cx="147.25" cy="702.5" fill="#ADD1B2" rx="11" ry="11" style="stroke:#181818;stroke-width:1.0;"/><path d="M150.2188,708.1406 Q149.6406,708.4375 149,708.5781 Q148.3594,708.7344 147.6563,708.7344 Q145.1563,708.7344 143.8281,707.0938 Q142.5156,705.4375 142.5156,702.3125 Q142.5156,699.1875 143.8281,697.5313 Q145.1563,695.875 147.6563,695.875 Q148.3594,695.875 149,696.0313 Q149.6563,696.1875 150.2188,696.4844 L150.2188,699.2031 Q149.5938,698.625 149,698.3594 Q148.4063,698.0781 147.7813,698.0781 Q146.4375,698.0781 145.75,699.1563 Q145.0625,700.2188 145.0625,702.3125 Q145.0625,704.4063 145.75,705.4844 Q146.4375,706.5469 147.7813,706.5469 Q148.4063,706.5469 149,706.2813 Q149.5938,706 150.2188,705.4219 L150.2188,708.1406 Z " fill="#000000"/><text fill="#000000" font-family="sans-serif" font-size="14" lengthAdjust="spacing" textLength="69" x="167.75" y="707.932">Connector</text><line style="stroke:#181818;stroke-width:0.5;" x1="28.5" x2="343.5" y1="718.5" y2="718.5"/><line style="stroke:#181818;stroke-width:0.5;" x1="28.5" x2="343.5" y1="726.5" y2="726.5"/><text fill="#000000" font-family="sans-serif" font-size="14" lengthAdjust="spacing" textLength="170" x="33.5" y="745.4659">data requestData(Data D)</text><text fill="#000000" font-family="sans-serif" font-size="14" lengthAdjust="spacing" textLength="305" x="33.5" y="764.5339">data requestData/wPrivacyPreserving(Data D)</text></g><!--class PDC--><g id="elem_PDC"><rect codeLine="12" fill="#F1F1F1" height="67.0679" id="PDC" rx="2.5" ry="2.5" style="stroke:#181818;stroke-width:0.5;" width="182" x="60" y="880"/><ellipse cx="133.25" cy="896" fill="#ADD1B2" rx="11" ry="11" style="stroke:#181818;stroke-width:1.0;"/><path d="M136.2188,901.6406 Q135.6406,901.9375 135,902.0781 Q134.3594,902.2344 133.6563,902.2344 Q131.1563,902.2344 129.8281,900.5938 Q128.5156,898.9375 128.5156,895.8125 Q128.5156,892.6875 129.8281,891.0313 Q131.1563,889.375 133.6563,889.375 Q134.3594,889.375 135,889.5313 Q135.6563,889.6875 136.2188,889.9844 L136.2188,892.7031 Q135.5938,892.125 135,891.8594 Q134.4063,891.5781 133.7813,891.5781 Q132.4375,891.5781 131.75,892.6563 Q131.0625,893.7188 131.0625,895.8125 Q131.0625,897.9063 131.75,898.9844 Q132.4375,900.0469 133.7813,900.0469 Q134.4063,900.0469 135,899.7813 Q135.5938,899.5 136.2188,898.9219 L136.2188,901.6406 Z " fill="#000000"/><text fill="#000000" font-family="sans-serif" font-size="14" lengthAdjust="spacing" textLength="27" x="153.75" y="901.432">PDC</text><line style="stroke:#181818;stroke-width:0.5;" x1="61" x2="241" y1="912" y2="912"/><line style="stroke:#181818;stroke-width:0.5;" x1="61" x2="241" y1="920" y2="920"/><text fill="#000000" font-family="sans-serif" font-size="14" lengthAdjust="spacing" textLength="170" x="66" y="938.9659">data requestData(Data D)</text></g><!--class EDCConnector--><g id="elem_EDCConnector"><rect codeLine="15" fill="#F1F1F1" height="105.2038" id="EDCConnector" rx="2.5" ry="2.5" style="stroke:#181818;stroke-width:0.5;" width="317" x="277.5" y="861"/><ellipse cx="383.75" cy="877" fill="#ADD1B2" rx="11" ry="11" style="stroke:#181818;stroke-width:1.0;"/><path d="M386.7188,882.6406 Q386.1406,882.9375 385.5,883.0781 Q384.8594,883.2344 384.1563,883.2344 Q381.6563,883.2344 380.3281,881.5938 Q379.0156,879.9375 379.0156,876.8125 Q379.0156,873.6875 380.3281,872.0313 Q381.6563,870.375 384.1563,870.375 Q384.8594,870.375 385.5,870.5313 Q386.1563,870.6875 386.7188,870.9844 L386.7188,873.7031 Q386.0938,873.125 385.5,872.8594 Q384.9063,872.5781 384.2813,872.5781 Q382.9375,872.5781 382.25,873.6563 Q381.5625,874.7188 381.5625,876.8125 Q381.5625,878.9063 382.25,879.9844 Q382.9375,881.0469 384.2813,881.0469 Q384.9063,881.0469 385.5,880.7813 Q386.0938,880.5 386.7188,879.9219 L386.7188,882.6406 Z " fill="#000000"/><text fill="#000000" font-family="sans-serif" font-size="14" lengthAdjust="spacing" textLength="96" x="404.25" y="882.432">EDCConnector</text><line style="stroke:#181818;stroke-width:0.5;" x1="278.5" x2="593.5" y1="893" y2="893"/><line style="stroke:#181818;stroke-width:0.5;" x1="278.5" x2="593.5" y1="901" y2="901"/><text fill="#000000" font-family="sans-serif" font-size="14" lengthAdjust="spacing" textLength="288" x="283.5" y="919.9659">PZdata getPZdata(DataProvider DP, Data D)</text><text fill="#000000" font-family="sans-serif" font-size="14" lengthAdjust="spacing" textLength="170" x="283.5" y="939.0339">data requestData(Data D)</text><text fill="#000000" font-family="sans-serif" font-size="14" lengthAdjust="spacing" textLength="305" x="283.5" y="958.1018">data requestData/wPrivacyPreserving(Data D)</text></g><!--class Catalog--><g id="elem_Catalog"><rect codeLine="20" fill="#F1F1F1" height="86.1358" id="Catalog" rx="2.5" ry="2.5" style="stroke:#181818;stroke-width:0.5;" width="250" x="1461" y="280"/><ellipse cx="1556.25" cy="296" fill="#ADD1B2" rx="11" ry="11" style="stroke:#181818;stroke-width:1.0;"/><path d="M1559.2188,301.6406 Q1558.6406,301.9375 1558,302.0781 Q1557.3594,302.2344 1556.6563,302.2344 Q1554.1563,302.2344 1552.8281,300.5938 Q1551.5156,298.9375 1551.5156,295.8125 Q1551.5156,292.6875 1552.8281,291.0313 Q1554.1563,289.375 1556.6563,289.375 Q1557.3594,289.375 1558,289.5313 Q1558.6563,289.6875 1559.2188,289.9844 L1559.2188,292.7031 Q1558.5938,292.125 1558,291.8594 Q1557.4063,291.5781 1556.7813,291.5781 Q1555.4375,291.5781 1554.75,292.6563 Q1554.0625,293.7188 1554.0625,295.8125 Q1554.0625,297.9063 1554.75,298.9844 Q1555.4375,300.0469 1556.7813,300.0469 Q1557.4063,300.0469 1558,299.7813 Q1558.5938,299.5 1559.2188,298.9219 L1559.2188,301.6406 Z " fill="#000000"/><text fill="#000000" font-family="sans-serif" font-size="14" lengthAdjust="spacing" textLength="51" x="1576.75" y="301.432">Catalog</text><line style="stroke:#181818;stroke-width:0.5;" x1="1462" x2="1710" y1="312" y2="312"/><line style="stroke:#181818;stroke-width:0.5;" x1="1462" x2="1710" y1="320" y2="320"/><text fill="#000000" font-family="sans-serif" font-size="14" lengthAdjust="spacing" textLength="238" x="1467" y="338.9659">DataProvider getAccessInfo(Data D)</text><text fill="#000000" font-family="sans-serif" font-size="14" lengthAdjust="spacing" textLength="219" x="1467" y="358.0339">status verifyFunction(Function A)</text></g><!--class Contract--><g id="elem_Contract"><rect codeLine="24" fill="#F1F1F1" height="67.0679" id="Contract" rx="2.5" ry="2.5" style="stroke:#181818;stroke-width:0.5;" width="376" x="7" y="1045"/><ellipse cx="162.25" cy="1061" fill="#ADD1B2" rx="11" ry="11" style="stroke:#181818;stroke-width:1.0;"/><path d="M165.2188,1066.6406 Q164.6406,1066.9375 164,1067.0781 Q163.3594,1067.2344 162.6563,1067.2344 Q160.1563,1067.2344 158.8281,1065.5938 Q157.5156,1063.9375 157.5156,1060.8125 Q157.5156,1057.6875 158.8281,1056.0313 Q160.1563,1054.375 162.6563,1054.375 Q163.3594,1054.375 164,1054.5313 Q164.6563,1054.6875 165.2188,1054.9844 L165.2188,1057.7031 Q164.5938,1057.125 164,1056.8594 Q163.4063,1056.5781 162.7813,1056.5781 Q161.4375,1056.5781 160.75,1057.6563 Q160.0625,1058.7188 160.0625,1060.8125 Q160.0625,1062.9063 160.75,1063.9844 Q161.4375,1065.0469 162.7813,1065.0469 Q163.4063,1065.0469 164,1064.7813 Q164.5938,1064.5 165.2188,1063.9219 L165.2188,1066.6406 Z " fill="#000000"/><text fill="#000000" font-family="sans-serif" font-size="14" lengthAdjust="spacing" textLength="57" x="182.75" y="1066.432">Contract</text><line style="stroke:#181818;stroke-width:0.5;" x1="8" x2="382" y1="1077" y2="1077"/><line style="stroke:#181818;stroke-width:0.5;" x1="8" x2="382" y1="1085" y2="1085"/><text fill="#000000" font-family="sans-serif" font-size="14" lengthAdjust="spacing" textLength="364" x="13" y="1103.9659">status verifyContract(DataProvider D, CloudProvider C)</text></g><!--class DataProvider--><g id="elem_DataProvider"><rect codeLine="27" fill="#F1F1F1" height="67.0679" id="DataProvider" rx="2.5" ry="2.5" style="stroke:#181818;stroke-width:0.5;" width="152" x="418" y="1045"/><ellipse cx="447.85" cy="1061" fill="#ADD1B2" rx="11" ry="11" style="stroke:#181818;stroke-width:1.0;"/><path d="M450.8188,1066.6406 Q450.2406,1066.9375 449.6,1067.0781 Q448.9594,1067.2344 448.2563,1067.2344 Q445.7563,1067.2344 444.4281,1065.5938 Q443.1156,1063.9375 443.1156,1060.8125 Q443.1156,1057.6875 444.4281,1056.0313 Q445.7563,1054.375 448.2563,1054.375 Q448.9594,1054.375 449.6,1054.5313 Q450.2563,1054.6875 450.8188,1054.9844 L450.8188,1057.7031 Q450.1938,1057.125 449.6,1056.8594 Q449.0063,1056.5781 448.3813,1056.5781 Q447.0375,1056.5781 446.35,1057.6563 Q445.6625,1058.7188 445.6625,1060.8125 Q445.6625,1062.9063 446.35,1063.9844 Q447.0375,1065.0469 448.3813,1065.0469 Q449.0063,1065.0469 449.6,1064.7813 Q450.1938,1064.5 450.8188,1063.9219 L450.8188,1066.6406 Z " fill="#000000"/><text fill="#000000" font-family="sans-serif" font-size="14" lengthAdjust="spacing" textLength="87" x="465.15" y="1066.432">DataProvider</text><line style="stroke:#181818;stroke-width:0.5;" x1="419" x2="569" y1="1077" y2="1077"/><line style="stroke:#181818;stroke-width:0.5;" x1="419" x2="569" y1="1085" y2="1085"/><text fill="#000000" font-family="sans-serif" font-size="14" lengthAdjust="spacing" textLength="140" x="424" y="1103.9659">data getData(Data D)</text></g><!--class ProcessingBB--><g id="elem_ProcessingBB"><rect codeLine="30" fill="#F1F1F1" height="48" id="ProcessingBB" rx="2.5" ry="2.5" style="stroke:#181818;stroke-width:0.5;" width="123" x="1119.5" y="7"/><ellipse cx="1134.5" cy="23" fill="#ADD1B2" rx="11" ry="11" style="stroke:#181818;stroke-width:1.0;"/><path d="M1137.4688,28.6406 Q1136.8906,28.9375 1136.25,29.0781 Q1135.6094,29.2344 1134.9063,29.2344 Q1132.4063,29.2344 1131.0781,27.5938 Q1129.7656,25.9375 1129.7656,22.8125 Q1129.7656,19.6875 1131.0781,18.0313 Q1132.4063,16.375 1134.9063,16.375 Q1135.6094,16.375 1136.25,16.5313 Q1136.9063,16.6875 1137.4688,16.9844 L1137.4688,19.7031 Q1136.8438,19.125 1136.25,18.8594 Q1135.6563,18.5781 1135.0313,18.5781 Q1133.6875,18.5781 1133,19.6563 Q1132.3125,20.7188 1132.3125,22.8125 Q1132.3125,24.9063 1133,25.9844 Q1133.6875,27.0469 1135.0313,27.0469 Q1135.6563,27.0469 1136.25,26.7813 Q1136.8438,26.5 1137.4688,25.9219 L1137.4688,28.6406 Z " fill="#000000"/><text fill="#000000" font-family="sans-serif" font-size="14" lengthAdjust="spacing" textLength="91" x="1148.5" y="28.432">ProcessingBB</text><line style="stroke:#181818;stroke-width:0.5;" x1="1120.5" x2="1241.5" y1="39" y2="39"/><line style="stroke:#181818;stroke-width:0.5;" x1="1120.5" x2="1241.5" y1="47" y2="47"/></g><!--class Scheduler--><g id="elem_Scheduler"><rect codeLine="32" fill="#F1F1F1" height="86.1358" id="Scheduler" rx="2.5" ry="2.5" style="stroke:#181818;stroke-width:0.5;" width="300" x="680" y="280"/><ellipse cx="791.75" cy="296" fill="#ADD1B2" rx="11" ry="11" style="stroke:#181818;stroke-width:1.0;"/><path d="M794.7188,301.6406 Q794.1406,301.9375 793.5,302.0781 Q792.8594,302.2344 792.1563,302.2344 Q789.6563,302.2344 788.3281,300.5938 Q787.0156,298.9375 787.0156,295.8125 Q787.0156,292.6875 788.3281,291.0313 Q789.6563,289.375 792.1563,289.375 Q792.8594,289.375 793.5,289.5313 Q794.1563,289.6875 794.7188,289.9844 L794.7188,292.7031 Q794.0938,292.125 793.5,291.8594 Q792.9063,291.5781 792.2813,291.5781 Q790.9375,291.5781 790.25,292.6563 Q789.5625,293.7188 789.5625,295.8125 Q789.5625,297.9063 790.25,298.9844 Q790.9375,300.0469 792.2813,300.0469 Q792.9063,300.0469 793.5,299.7813 Q794.0938,299.5 794.7188,298.9219 L794.7188,301.6406 Z " fill="#000000"/><text fill="#000000" font-family="sans-serif" font-size="14" lengthAdjust="spacing" textLength="68" x="812.25" y="301.432">Scheduler</text><line style="stroke:#181818;stroke-width:0.5;" x1="681" x2="979" y1="312" y2="312"/><line style="stroke:#181818;stroke-width:0.5;" x1="681" x2="979" y1="320" y2="320"/><text fill="#000000" font-family="sans-serif" font-size="14" lengthAdjust="spacing" textLength="288" x="686" y="338.9659">result requestEdgeProc(Function F, Data D)</text><text fill="#000000" font-family="sans-serif" font-size="14" lengthAdjust="spacing" textLength="149" x="686" y="358.0339">void schedule(artifact)</text></g><!--class ArtifactBuilder--><g id="elem_ArtifactBuilder"><rect codeLine="36" fill="#F1F1F1" height="67.0679" id="ArtifactBuilder" rx="2.5" ry="2.5" style="stroke:#181818;stroke-width:0.5;" width="278" x="1148" y="289.5"/><ellipse cx="1233.75" cy="305.5" fill="#ADD1B2" rx="11" ry="11" style="stroke:#181818;stroke-width:1.0;"/><path d="M1236.7188,311.1406 Q1236.1406,311.4375 1235.5,311.5781 Q1234.8594,311.7344 1234.1563,311.7344 Q1231.6563,311.7344 1230.3281,310.0938 Q1229.0156,308.4375 1229.0156,305.3125 Q1229.0156,302.1875 1230.3281,300.5313 Q1231.6563,298.875 1234.1563,298.875 Q1234.8594,298.875 1235.5,299.0313 Q1236.1563,299.1875 1236.7188,299.4844 L1236.7188,302.2031 Q1236.0938,301.625 1235.5,301.3594 Q1234.9063,301.0781 1234.2813,301.0781 Q1232.9375,301.0781 1232.25,302.1563 Q1231.5625,303.2188 1231.5625,305.3125 Q1231.5625,307.4063 1232.25,308.4844 Q1232.9375,309.5469 1234.2813,309.5469 Q1234.9063,309.5469 1235.5,309.2813 Q1236.0938,309 1236.7188,308.4219 L1236.7188,311.1406 Z " fill="#000000"/><text fill="#000000" font-family="sans-serif" font-size="14" lengthAdjust="spacing" textLength="98" x="1254.25" y="310.932">ArtifactBuilder</text><line style="stroke:#181818;stroke-width:0.5;" x1="1149" x2="1425" y1="321.5" y2="321.5"/><line style="stroke:#181818;stroke-width:0.5;" x1="1149" x2="1425" y1="329.5" y2="329.5"/><text fill="#000000" font-family="sans-serif" font-size="14" lengthAdjust="spacing" textLength="266" x="1154" y="348.4659">artifact buildArtifact(Function F, Data D)</text></g><!--class CaaSBuilder--><g id="elem_CaaSBuilder"><rect codeLine="39" fill="#F1F1F1" height="67.0679" id="CaaSBuilder" rx="2.5" ry="2.5" style="stroke:#181818;stroke-width:0.5;" width="286" x="976" y="512"/><ellipse cx="1073.75" cy="528" fill="#ADD1B2" rx="11" ry="11" style="stroke:#181818;stroke-width:1.0;"/><path d="M1076.7188,533.6406 Q1076.1406,533.9375 1075.5,534.0781 Q1074.8594,534.2344 1074.1563,534.2344 Q1071.6563,534.2344 1070.3281,532.5938 Q1069.0156,530.9375 1069.0156,527.8125 Q1069.0156,524.6875 1070.3281,523.0313 Q1071.6563,521.375 1074.1563,521.375 Q1074.8594,521.375 1075.5,521.5313 Q1076.1563,521.6875 1076.7188,521.9844 L1076.7188,524.7031 Q1076.0938,524.125 1075.5,523.8594 Q1074.9063,523.5781 1074.2813,523.5781 Q1072.9375,523.5781 1072.25,524.6563 Q1071.5625,525.7188 1071.5625,527.8125 Q1071.5625,529.9063 1072.25,530.9844 Q1072.9375,532.0469 1074.2813,532.0469 Q1074.9063,532.0469 1075.5,531.7813 Q1076.0938,531.5 1076.7188,530.9219 L1076.7188,533.6406 Z " fill="#000000"/><text fill="#000000" font-family="sans-serif" font-size="14" lengthAdjust="spacing" textLength="82" x="1094.25" y="533.432">CaaSBuilder</text><line style="stroke:#181818;stroke-width:0.5;" x1="977" x2="1261" y1="544" y2="544"/><line style="stroke:#181818;stroke-width:0.5;" x1="977" x2="1261" y1="552" y2="552"/><text fill="#000000" font-family="sans-serif" font-size="14" lengthAdjust="spacing" textLength="274" x="982" y="570.9659">artifact buildArtifact(Container F, Data D)</text></g><!--class FaaSBuilder--><g id="elem_FaaSBuilder"><rect codeLine="42" fill="#F1F1F1" height="67.0679" id="FaaSBuilder" rx="2.5" ry="2.5" style="stroke:#181818;stroke-width:0.5;" width="278" x="1297" y="512"/><ellipse cx="1391.75" cy="528" fill="#ADD1B2" rx="11" ry="11" style="stroke:#181818;stroke-width:1.0;"/><path d="M1394.7188,533.6406 Q1394.1406,533.9375 1393.5,534.0781 Q1392.8594,534.2344 1392.1563,534.2344 Q1389.6563,534.2344 1388.3281,532.5938 Q1387.0156,530.9375 1387.0156,527.8125 Q1387.0156,524.6875 1388.3281,523.0313 Q1389.6563,521.375 1392.1563,521.375 Q1392.8594,521.375 1393.5,521.5313 Q1394.1563,521.6875 1394.7188,521.9844 L1394.7188,524.7031 Q1394.0938,524.125 1393.5,523.8594 Q1392.9063,523.5781 1392.2813,523.5781 Q1390.9375,523.5781 1390.25,524.6563 Q1389.5625,525.7188 1389.5625,527.8125 Q1389.5625,529.9063 1390.25,530.9844 Q1390.9375,532.0469 1392.2813,532.0469 Q1392.9063,532.0469 1393.5,531.7813 Q1394.0938,531.5 1394.7188,530.9219 L1394.7188,533.6406 Z " fill="#000000"/><text fill="#000000" font-family="sans-serif" font-size="14" lengthAdjust="spacing" textLength="80" x="1412.25" y="533.432">FaaSBuilder</text><line style="stroke:#181818;stroke-width:0.5;" x1="1298" x2="1574" y1="544" y2="544"/><line style="stroke:#181818;stroke-width:0.5;" x1="1298" x2="1574" y1="552" y2="552"/><text fill="#000000" font-family="sans-serif" font-size="14" lengthAdjust="spacing" textLength="266" x="1303" y="570.9659">artifact buildArtifact(Function F, Data D)</text></g><!--class Wrapper--><g id="elem_Wrapper"><rect codeLine="45" fill="#F1F1F1" height="105.2038" id="Wrapper" rx="2.5" ry="2.5" style="stroke:#181818;stroke-width:0.5;" width="179" x="505.5" y="493"/><ellipse cx="561.25" cy="509" fill="#ADD1B2" rx="11" ry="11" style="stroke:#181818;stroke-width:1.0;"/><path d="M564.2188,514.6406 Q563.6406,514.9375 563,515.0781 Q562.3594,515.2344 561.6563,515.2344 Q559.1563,515.2344 557.8281,513.5938 Q556.5156,511.9375 556.5156,508.8125 Q556.5156,505.6875 557.8281,504.0313 Q559.1563,502.375 561.6563,502.375 Q562.3594,502.375 563,502.5313 Q563.6563,502.6875 564.2188,502.9844 L564.2188,505.7031 Q563.5938,505.125 563,504.8594 Q562.4063,504.5781 561.7813,504.5781 Q560.4375,504.5781 559.75,505.6563 Q559.0625,506.7188 559.0625,508.8125 Q559.0625,510.9063 559.75,511.9844 Q560.4375,513.0469 561.7813,513.0469 Q562.4063,513.0469 563,512.7813 Q563.5938,512.5 564.2188,511.9219 L564.2188,514.6406 Z " fill="#000000"/><text fill="#000000" font-family="sans-serif" font-size="14" lengthAdjust="spacing" textLength="59" x="581.75" y="514.432">Wrapper</text><line style="stroke:#181818;stroke-width:0.5;" x1="506.5" x2="683.5" y1="525" y2="525"/><line style="stroke:#181818;stroke-width:0.5;" x1="506.5" x2="683.5" y1="533" y2="533"/><text fill="#000000" font-family="sans-serif" font-size="14" lengthAdjust="spacing" textLength="137" x="511.5" y="551.9659">status init(Artifact A)</text><text fill="#000000" font-family="sans-serif" font-size="14" lengthAdjust="spacing" textLength="167" x="511.5" y="571.0339">status execute(Artifact A)</text><text fill="#000000" font-family="sans-serif" font-size="14" lengthAdjust="spacing" textLength="126" x="511.5" y="590.1018">result sendResult()</text></g><!--class CaaSWrapper--><g id="elem_CaaSWrapper"><rect codeLine="50" fill="#F1F1F1" height="105.2038" id="CaaSWrapper" rx="2.5" ry="2.5" style="stroke:#181818;stroke-width:0.5;" width="179" x="700.5" y="677"/><ellipse cx="740.25" cy="693" fill="#ADD1B2" rx="11" ry="11" style="stroke:#181818;stroke-width:1.0;"/><path d="M743.2188,698.6406 Q742.6406,698.9375 742,699.0781 Q741.3594,699.2344 740.6563,699.2344 Q738.1563,699.2344 736.8281,697.5938 Q735.5156,695.9375 735.5156,692.8125 Q735.5156,689.6875 736.8281,688.0313 Q738.1563,686.375 740.6563,686.375 Q741.3594,686.375 742,686.5313 Q742.6563,686.6875 743.2188,686.9844 L743.2188,689.7031 Q742.5938,689.125 742,688.8594 Q741.4063,688.5781 740.7813,688.5781 Q739.4375,688.5781 738.75,689.6563 Q738.0625,690.7188 738.0625,692.8125 Q738.0625,694.9063 738.75,695.9844 Q739.4375,697.0469 740.7813,697.0469 Q741.4063,697.0469 742,696.7813 Q742.5938,696.5 743.2188,695.9219 L743.2188,698.6406 Z " fill="#000000"/><text fill="#000000" font-family="sans-serif" font-size="14" lengthAdjust="spacing" textLength="92" x="759.75" y="698.432">CaaSWrapper</text><line style="stroke:#181818;stroke-width:0.5;" x1="701.5" x2="878.5" y1="709" y2="709"/><line style="stroke:#181818;stroke-width:0.5;" x1="701.5" x2="878.5" y1="717" y2="717"/><text fill="#000000" font-family="sans-serif" font-size="14" lengthAdjust="spacing" textLength="137" x="706.5" y="735.9659">status init(Artifact A)</text><text fill="#000000" font-family="sans-serif" font-size="14" lengthAdjust="spacing" textLength="167" x="706.5" y="755.0339">status execute(Artifact A)</text><text fill="#000000" font-family="sans-serif" font-size="14" lengthAdjust="spacing" textLength="126" x="706.5" y="774.1018">result sendResult()</text></g><!--class FaaSWrapper--><g id="elem_FaaSWrapper"><rect codeLine="55" fill="#F1F1F1" height="105.2038" id="FaaSWrapper" rx="2.5" ry="2.5" style="stroke:#181818;stroke-width:0.5;" width="179" x="486.5" y="677"/><ellipse cx="527.15" cy="693" fill="#ADD1B2" rx="11" ry="11" style="stroke:#181818;stroke-width:1.0;"/><path d="M530.1188,698.6406 Q529.5406,698.9375 528.9,699.0781 Q528.2594,699.2344 527.5563,699.2344 Q525.0563,699.2344 523.7281,697.5938 Q522.4156,695.9375 522.4156,692.8125 Q522.4156,689.6875 523.7281,688.0313 Q525.0563,686.375 527.5563,686.375 Q528.2594,686.375 528.9,686.5313 Q529.5563,686.6875 530.1188,686.9844 L530.1188,689.7031 Q529.4938,689.125 528.9,688.8594 Q528.3063,688.5781 527.6813,688.5781 Q526.3375,688.5781 525.65,689.6563 Q524.9625,690.7188 524.9625,692.8125 Q524.9625,694.9063 525.65,695.9844 Q526.3375,697.0469 527.6813,697.0469 Q528.3063,697.0469 528.9,696.7813 Q529.4938,696.5 530.1188,695.9219 L530.1188,698.6406 Z " fill="#000000"/><text fill="#000000" font-family="sans-serif" font-size="14" lengthAdjust="spacing" textLength="90" x="546.85" y="698.432">FaaSWrapper</text><line style="stroke:#181818;stroke-width:0.5;" x1="487.5" x2="664.5" y1="709" y2="709"/><line style="stroke:#181818;stroke-width:0.5;" x1="487.5" x2="664.5" y1="717" y2="717"/><text fill="#000000" font-family="sans-serif" font-size="14" lengthAdjust="spacing" textLength="137" x="492.5" y="735.9659">status init(Artifact A)</text><text fill="#000000" font-family="sans-serif" font-size="14" lengthAdjust="spacing" textLength="167" x="492.5" y="755.0339">status execute(Artifact A)</text><text fill="#000000" font-family="sans-serif" font-size="14" lengthAdjust="spacing" textLength="126" x="492.5" y="774.1018">result sendResult()</text></g><!--class WorkerNode--><g id="elem_WorkerNode"><rect codeLine="60" fill="#F1F1F1" height="67.0679" id="WorkerNode" rx="2.5" ry="2.5" style="stroke:#181818;stroke-width:0.5;" width="221" x="719.5" y="512"/><ellipse cx="783.75" cy="528" fill="#ADD1B2" rx="11" ry="11" style="stroke:#181818;stroke-width:1.0;"/><path d="M786.7188,533.6406 Q786.1406,533.9375 785.5,534.0781 Q784.8594,534.2344 784.1563,534.2344 Q781.6563,534.2344 780.3281,532.5938 Q779.0156,530.9375 779.0156,527.8125 Q779.0156,524.6875 780.3281,523.0313 Q781.6563,521.375 784.1563,521.375 Q784.8594,521.375 785.5,521.5313 Q786.1563,521.6875 786.7188,521.9844 L786.7188,524.7031 Q786.0938,524.125 785.5,523.8594 Q784.9063,523.5781 784.2813,523.5781 Q782.9375,523.5781 782.25,524.6563 Q781.5625,525.7188 781.5625,527.8125 Q781.5625,529.9063 782.25,530.9844 Q782.9375,532.0469 784.2813,532.0469 Q784.9063,532.0469 785.5,531.7813 Q786.0938,531.5 786.7188,530.9219 L786.7188,533.6406 Z " fill="#000000"/><text fill="#000000" font-family="sans-serif" font-size="14" lengthAdjust="spacing" textLength="84" x="804.25" y="533.432">WorkerNode</text><line style="stroke:#181818;stroke-width:0.5;" x1="720.5" x2="939.5" y1="544" y2="544"/><line style="stroke:#181818;stroke-width:0.5;" x1="720.5" x2="939.5" y1="552" y2="552"/><text fill="#000000" font-family="sans-serif" font-size="14" lengthAdjust="spacing" textLength="209" x="725.5" y="570.9659">status deployArtifact(Artifact A)</text></g><!--reverse link DataProvider to EDCConnector--><g id="link_DataProvider_EDCConnector"><path codeLine="64" d="M466.6008,1034.3173 C461.2208,1024.9973 461.88,1025.04 458,1015 C452.01,999.51 447.47,982.01 444.11,966 " fill="none" id="DataProvider-backto-EDCConnector" style="stroke:#181818;stroke-width:1.0;"/><polygon fill="#181818" points="472.6,1044.71,473.0646,1037.5139,466.6008,1034.3173,466.1361,1041.5134,472.6,1044.71" style="stroke:#181818;stroke-width:1.0;"/></g><!--link EDCConnector to DataProvider--><g id="link_EDCConnector_DataProvider"><path codeLine="89" d="M454.35,966.07 C463.51,991.82 472.3101,1016.5267 480.3201,1039.0567 " fill="none" id="EDCConnector-to-DataProvider" style="stroke:#181818;stroke-width:1.0;"/><polygon fill="#181818" points="482.33,1044.71,483.084,1034.89,480.6551,1039.9989,475.5462,1037.5699,482.33,1044.71" style="stroke:#181818;stroke-width:1.0;"/><text fill="#000000" font-family="sans-serif" font-size="13" lengthAdjust="spacing" textLength="65" x="472" y="1010.897">getData(D)</text></g><!--reverse link Connector to PDC--><g id="link_Connector_PDC"><path codeLine="66" d="M174.4811,790.3862 C168.2011,823.0462 163.03,849.93 157.27,879.88 " fill="none" id="Connector-backto-PDC" style="stroke:#181818;stroke-width:1.0;"/><polygon fill="none" points="177.88,772.71,168.5891,789.2532,180.3732,791.5191,177.88,772.71" style="stroke:#181818;stroke-width:1.0;"/></g><!--reverse link Connector to EDCConnector--><g id="link_Connector_EDCConnector"><path codeLine="67" d="M258.5325,783.3036 C294.5925,809.5536 326.67,832.91 364.95,860.77 " fill="none" id="Connector-backto-EDCConnector" style="stroke:#181818;stroke-width:1.0;"/><polygon fill="none" points="243.98,772.71,255.0013,788.1544,262.0637,778.4527,243.98,772.71" style="stroke:#181818;stroke-width:1.0;"/></g><!--reverse link ArtifactBuilder to CaaSBuilder--><g id="link_ArtifactBuilder_CaaSBuilder"><path codeLine="69" d="M1251.3004,370.8571 C1219.5404,412.5371 1175.7,470.08 1143.89,511.83 " fill="none" id="ArtifactBuilder-backto-CaaSBuilder" style="stroke:#181818;stroke-width:1.0;"/><polygon fill="none" points="1262.21,356.54,1246.528,367.2206,1256.0728,374.4937,1262.21,356.54" style="stroke:#181818;stroke-width:1.0;"/></g><!--reverse link ArtifactBuilder to FaaSBuilder--><g id="link_ArtifactBuilder_FaaSBuilder"><path codeLine="70" d="M1319.0694,371.4533 C1347.2394,413.1333 1385.71,470.08 1413.92,511.83 " fill="none" id="ArtifactBuilder-backto-FaaSBuilder" style="stroke:#181818;stroke-width:1.0;"/><polygon fill="none" points="1308.99,356.54,1314.0983,374.8131,1324.0405,368.0935,1308.99,356.54" style="stroke:#181818;stroke-width:1.0;"/></g><!--reverse link Wrapper to CaaSWrapper--><g id="link_Wrapper_CaaSWrapper"><path codeLine="71" d="M663.5198,610.4508 C689.8698,635.0408 708.14,652.1 734.5,676.7 " fill="none" id="Wrapper-backto-CaaSWrapper" style="stroke:#181818;stroke-width:1.0;"/><polygon fill="none" points="650.36,598.17,659.4262,614.8374,667.6134,606.0642,650.36,598.17" style="stroke:#181818;stroke-width:1.0;"/></g><!--reverse link Wrapper to FaaSWrapper--><g id="link_Wrapper_FaaSWrapper"><path codeLine="72" d="M587.7389,616.0725 C585.1689,640.6625 583.98,652.1 581.41,676.7 " fill="none" id="Wrapper-backto-FaaSWrapper" style="stroke:#181818;stroke-width:1.0;"/><polygon fill="none" points="589.61,598.17,581.7714,615.4488,593.7064,616.6962,589.61,598.17" style="stroke:#181818;stroke-width:1.0;"/></g><!--reverse link WorkerNode to CaaSWrapper--><g id="link_WorkerNode_CaaSWrapper"><path codeLine="74" d="M826.7939,591.3443 C825.0639,611.1143 823.09,624.73 818,647 C815.76,656.77 812.78,667.01 809.6,676.8 " fill="none" id="WorkerNode-backto-CaaSWrapper" style="stroke:#181818;stroke-width:1.0;"/><polygon fill="#181818" points="827.84,579.39,823.3322,585.0185,826.7939,591.3443,831.3017,585.7159,827.84,579.39" style="stroke:#181818;stroke-width:1.0;"/></g><!--link WorkerNode to CaaSWrapper--><g id="link_WorkerNode_CaaSWrapper"><path codeLine="86" d="M800.19,579.28 C789.42,593.25 778.55,610.38 773,628 C768.08,643.61 767.7939,655.1705 770.8939,671.1005 " fill="none" id="WorkerNode-to-CaaSWrapper" style="stroke:#181818;stroke-width:1.0;"/><polygon fill="#181818" points="772.04,676.99,774.2472,667.3916,771.0849,672.0821,766.3945,668.9198,772.04,676.99" style="stroke:#181818;stroke-width:1.0;"/><text fill="#000000" font-family="sans-serif" font-size="13" lengthAdjust="spacing" textLength="35" x="774" y="642.897">init(A)</text></g><!--link ProcessingBB to EdgeAPI--><g id="link_ProcessingBB_EdgeAPI"><path codeLine="76" d="M1181,55.12 C1181,76.83 1181,103.52 1181,127.87 " fill="none" id="ProcessingBB-to-EdgeAPI" style="stroke:#181818;stroke-width:1.0;"/><polygon fill="#181818" points="1181,133.87,1185,124.87,1181,128.87,1177,124.87,1181,133.87" style="stroke:#181818;stroke-width:1.0;"/><text fill="#000000" font-family="sans-serif" font-size="13" lengthAdjust="spacing" textLength="133" x="1182" y="99.897">requestEdgeProc(F, D)</text></g><!--link EdgeAPI to Catalog--><g id="link_EdgeAPI_Catalog"><path codeLine="77" d="M1266.89,201.05 C1327.49,224.02 1403.6196,252.8732 1469.1996,277.7332 " fill="none" id="EdgeAPI-to-Catalog" style="stroke:#181818;stroke-width:1.0;"/><polygon fill="#181818" points="1474.81,279.86,1467.8122,272.9295,1470.1347,278.0877,1464.9765,280.4101,1474.81,279.86" style="stroke:#181818;stroke-width:1.0;"/><text fill="#000000" font-family="sans-serif" font-size="13" lengthAdjust="spacing" textLength="100" x="1397" y="245.897">getAccessInfo(D)</text></g><!--link EdgeAPI to Catalog--><g id="link_EdgeAPI_Catalog"><path codeLine="78" d="M1331.32,177.65 C1387.93,186.11 1451.11,201.87 1503,231 C1524.07,242.83 1538.9435,257.2695 1553.1935,274.9395 " fill="none" id="EdgeAPI-to-Catalog-1" style="stroke:#181818;stroke-width:1.0;"/><polygon fill="#181818" points="1556.96,279.61,1554.4239,270.0933,1553.8212,275.7179,1548.1966,275.1153,1556.96,279.61" style="stroke:#181818;stroke-width:1.0;"/><text fill="#000000" font-family="sans-serif" font-size="13" lengthAdjust="spacing" textLength="102" x="1529" y="245.897">verifyFunction(A)</text></g><!--link EdgeAPI to PrivacyZoneMgr--><g id="link_EdgeAPI_PrivacyZoneMgr"><path codeLine="79" d="M1030.96,174.57 C921.73,184.95 773.95,211.78 662,280 C611.83,310.57 570.2371,357.4522 543.8271,391.0622 " fill="none" id="EdgeAPI-to-PrivacyZoneMgr" style="stroke:#181818;stroke-width:1.0;"/><polygon fill="#181818" points="540.12,395.78,548.8258,391.1748,543.2093,391.8485,542.5355,386.2319,540.12,395.78" style="stroke:#181818;stroke-width:1.0;"/><text fill="#000000" font-family="sans-serif" font-size="13" lengthAdjust="spacing" textLength="165" x="765" y="245.897">getPZData(DataProvider, D)</text></g><!--link PrivacyZoneMgr to EDCConnector--><g id="link_PrivacyZoneMgr_EDCConnector"><path codeLine="80" d="M491.75,463.34 C465.64,500.91 425.75,565.35 410,628 C389.99,707.61 405.2722,797.3673 419.6022,854.9973 " fill="none" id="PrivacyZoneMgr-to-EDCConnector" style="stroke:#181818;stroke-width:1.0;"/><polygon fill="#181818" points="421.05,860.82,422.76,851.1207,419.8435,855.9678,414.9964,853.0512,421.05,860.82" style="stroke:#181818;stroke-width:1.0;"/><text fill="#000000" font-family="sans-serif" font-size="13" lengthAdjust="spacing" textLength="165" x="411" y="642.897">getPZData(DataProvider, D)</text></g><!--link EdgeAPI to Scheduler--><g id="link_EdgeAPI_Scheduler"><path codeLine="82" d="M1106.56,201.05 C1054.04,224.02 988.6972,252.5957 931.8572,277.4557 " fill="none" id="EdgeAPI-to-Scheduler" style="stroke:#181818;stroke-width:1.0;"/><polygon fill="#181818" points="926.36,279.86,936.2087,279.9184,930.941,277.8564,933.0029,272.5887,926.36,279.86" style="stroke:#181818;stroke-width:1.0;"/><text fill="#000000" font-family="sans-serif" font-size="13" lengthAdjust="spacing" textLength="220" x="1038" y="245.897">requestEdgeProc(Function F, Data D)</text></g><!--link Scheduler to CaaSBuilder--><g id="link_Scheduler_CaaSBuilder"><path codeLine="83" d="M896.85,366.02 C911.29,375.58 926.32,385.9 940,396 C991,433.66 1042.2482,477.0363 1077.7582,508.0063 " fill="none" id="Scheduler-to-CaaSBuilder" style="stroke:#181818;stroke-width:1.0;"/><polygon fill="#181818" points="1082.28,511.95,1078.1264,503.0199,1078.5118,508.6636,1072.8681,509.049,1082.28,511.95" style="stroke:#181818;stroke-width:1.0;"/><text fill="#000000" font-family="sans-serif" font-size="13" lengthAdjust="spacing" textLength="103" x="1022" y="434.897">buildArtifact(F, D)</text></g><!--link Scheduler to Scheduler--><g id="link_Scheduler_Scheduler"><path codeLine="84" d="M980.26,309.28 C1001.08,311.54 1015,316.11 1015,323 C1015,329.89 1007.045,333.8125 986.225,336.0725 " fill="none" id="Scheduler-to-Scheduler" style="stroke:#181818;stroke-width:1.0;"/><polygon fill="#181818" points="980.26,336.72,989.6391,339.7254,985.2308,336.1804,988.7758,331.7721,980.26,336.72" style="stroke:#181818;stroke-width:1.0;"/><text fill="#000000" font-family="sans-serif" font-size="13" lengthAdjust="spacing" textLength="103" x="1021" y="328.397">schedule(artifact)</text></g><!--link Scheduler to WorkerNode--><g id="link_Scheduler_WorkerNode"><path codeLine="85" d="M830,366.25 C830,408.65 830,467.04 830,505.72 " fill="none" id="Scheduler-to-WorkerNode" style="stroke:#181818;stroke-width:1.0;"/><polygon fill="#181818" points="830,511.72,834,502.72,830,506.72,826,502.72,830,511.72" style="stroke:#181818;stroke-width:1.0;"/><text fill="#000000" font-family="sans-serif" font-size="13" lengthAdjust="spacing" textLength="100" x="831" y="434.897">deployArtifact(A)</text></g><!--link CaaSWrapper to EDCConnector--><g id="link_CaaSWrapper_EDCConnector"><path codeLine="87" d="M700.21,776.66 C650.23,802.36 593.2158,831.6661 541.6458,858.1861 " fill="none" id="CaaSWrapper-to-EDCConnector" style="stroke:#181818;stroke-width:1.0;"/><polygon fill="#181818" points="536.31,860.93,546.143,860.3713,540.7565,858.6434,542.4844,853.2569,536.31,860.93" style="stroke:#181818;stroke-width:1.0;"/><text fill="#000000" font-family="sans-serif" font-size="13" lengthAdjust="spacing" textLength="65" x="625" y="826.897">getData(D)</text></g><!--link EDCConnector to Contract--><g id="link_EDCConnector_Contract"><path codeLine="88" d="M359.75,966.07 C321.55,991.91 281.4293,1019.0375 248.0893,1041.5975 " fill="none" id="EDCConnector-to-Contract" style="stroke:#181818;stroke-width:1.0;"/><polygon fill="#181818" points="243.12,1044.96,252.8156,1043.2291,247.261,1042.1579,248.3322,1036.6034,243.12,1044.96" style="stroke:#181818;stroke-width:1.0;"/><text fill="#000000" font-family="sans-serif" font-size="13" lengthAdjust="spacing" textLength="116" x="317" y="1010.897">verifyContract(D, C)</text></g><!--link CaaSWrapper to CaaSWrapper--><g id="link_CaaSWrapper_CaaSWrapper"><path codeLine="90" d="M879.53,721.09 C899.73,721.84 914.5,724.65 914.5,729.5 C914.5,734.35 905.7259,736.9374 885.5259,737.6874 " fill="none" id="CaaSWrapper-to-CaaSWrapper" style="stroke:#181818;stroke-width:1.0;"/><polygon fill="#181818" points="879.53,737.91,888.6722,741.5733,884.5266,737.7245,888.3754,733.5788,879.53,737.91" style="stroke:#181818;stroke-width:1.0;"/><text fill="#000000" font-family="sans-serif" font-size="13" lengthAdjust="spacing" textLength="63" x="920.5" y="734.897">execute(A)</text></g><!--link CaaSWrapper to CaaSWrapper--><g id="link_CaaSWrapper_CaaSWrapper"><path codeLine="91" d="M879.63,713.14 C934.46,709.94 989.5,715.39 989.5,729.5 C989.5,743.61 940.4498,749.4096 885.6198,746.2096 " fill="none" id="CaaSWrapper-to-CaaSWrapper-1" style="stroke:#181818;stroke-width:1.0;"/><polygon fill="#181818" points="879.63,745.86,888.3817,750.3776,884.6215,746.1513,888.8478,742.3912,879.63,745.86" style="stroke:#181818;stroke-width:1.0;"/><text fill="#000000" font-family="sans-serif" font-size="13" lengthAdjust="spacing" textLength="74" x="995.5" y="734.897">sendResult()</text></g><!--link EdgeAPI to EdgeAPI--><g id="link_EdgeAPI_EdgeAPI"><path codeLine="93" d="M1331.26,155.45 C1352.08,157.44 1366,161.45 1366,167.5 C1366,173.55 1358.0528,176.9891 1337.2328,178.9791 " fill="none" id="EdgeAPI-to-EdgeAPI" style="stroke:#181818;stroke-width:1.0;"/><polygon fill="#181818" points="1331.26,179.55,1340.5998,182.6755,1336.2373,179.0743,1339.8386,174.7118,1331.26,179.55" style="stroke:#181818;stroke-width:1.0;"/><text fill="#000000" font-family="sans-serif" font-size="13" lengthAdjust="spacing" textLength="74" x="1372" y="172.897">sendResult()</text></g><!--SRC=[nLNFRvim5Bxxh_2HL4IxesaIWKRgeHDQ3vLwyso7MgCuCuOjwlA_poOO_0p9aijw2h6_zxtFxoUjIDFWUrRoj7Z0xmZZzpUkNoKxOiMRjjBcvsVB6sqXXP8qshOrrKBMU1lZd6Y2ynKw8jhp54fqX1vUPCqVImNfYXTcqINNfw_86Xl6JZ2kS5xCsJ9Prvng6H3rD8Egt15PkmkOJxy6QOLv5LUTgCje9ZxFhdJaBExpx8p6wn_x7nwMcV-LBA528CZeJ2dbJVDGx-IIsqOJtJQuuqhi3gu2fb98GTAq8bH3Ry3UGOAWn3YhPCl6WsmY1S1vZepynVpOUZMFCZ7PR8oPEtwYhvorLKXrGxrxLfqK33S3OqIK5Zlpj4b3EfniMb7Dr3iu_cvl7VHYYsM4FDt2PODDH6tG2sJR6yak2NjMPByFUOQyYrheoB7OQfb3-6zEMytFeORaDBnct_hF28RauxnlFzJxirG_kFeg6LzqplY-aeSnVxw38qAWhUxMQp3G49fcs-S_vjBCn_08uiDIxo5UlIu3l1f4BewZvN00Bxo88-G5u2umGg3_r-iluvvBvbqUsrfsznRhfcOIJiTpi60ufX0NhCRaj1loS3VqCW9ihznVDHUDWTTfr2LN3RO9VthRD1wIS1J4SxplRM4aGh2Nk6HMfoi_hqwAAu9awAaLya-NetIAaKc5VzCJkZsLpBPIR5VFp00q2-0ELK2jOtF_2mZw6sHnAbk0-Gi0]--></g></svg>