<svg xmlns="http://www.w3.org/2000/svg" xmlns:xlink="http://www.w3.org/1999/xlink" contentStyleType="text/css" height="1929px" preserveAspectRatio="none" style="width:1785px;height:1929px;background:#FFFFFF;" version="1.1" viewBox="0 0 1785 1929" width="1785px" zoomAndPan="magnify"><defs/><g><rect fill="#FFA500" height="1910.2206" style="stroke:#181818;stroke-width:0.5;" width="112" x="1" y="6"/><text fill="#000000" font-family="sans-serif" font-size="13" font-weight="bold" lengthAdjust="spacing" textLength="102" x="6" y="19.897">Data Consumer</text><rect fill="#90EE90" height="1910.2206" style="stroke:#181818;stroke-width:0.5;" width="399.5" x="115" y="6"/><text fill="#000000" font-family="sans-serif" font-size="13" font-weight="bold" lengthAdjust="spacing" textLength="186" x="221.75" y="19.897">Data and Function Providers</text><rect fill="#D3D3D3" height="1910.2206" style="stroke:#181818;stroke-width:0.5;" width="315" x="516.5" y="6"/><text fill="#000000" font-family="sans-serif" font-size="13" font-weight="bold" lengthAdjust="spacing" textLength="58" x="645" y="19.897">PTX Core</text><rect fill="#ADD8E6" height="1910.2206" style="stroke:#181818;stroke-width:0.5;" width="944" x="833.5" y="6"/><text fill="#000000" font-family="sans-serif" font-size="13" font-weight="bold" lengthAdjust="spacing" textLength="128" x="1241.5" y="19.897">Edge Computing BB</text><rect fill="#FFFFFF" height="428.8842" style="stroke:#181818;stroke-width:1.0;" width="10" x="1573.5" y="1350.4945"/><line style="stroke:#181818;stroke-width:0.5;stroke-dasharray:5.0,5.0;" x1="57" x2="57" y1="111.8419" y2="1829.0848"/><line style="stroke:#181818;stroke-width:0.5;stroke-dasharray:5.0,5.0;" x1="151" x2="151" y1="111.8419" y2="1829.0848"/><line style="stroke:#181818;stroke-width:0.5;stroke-dasharray:5.0,5.0;" x1="252" x2="252" y1="111.8419" y2="1829.0848"/><line style="stroke:#181818;stroke-width:0.5;stroke-dasharray:5.0,5.0;" x1="342" x2="342" y1="111.8419" y2="1829.0848"/><line style="stroke:#181818;stroke-width:0.5;stroke-dasharray:5.0,5.0;" x1="459.5" x2="459.5" y1="111.8419" y2="1829.0848"/><line style="stroke:#181818;stroke-width:0.5;stroke-dasharray:5.0,5.0;" x1="552.5" x2="552.5" y1="111.8419" y2="1829.0848"/><line style="stroke:#181818;stroke-width:0.5;stroke-dasharray:5.0,5.0;" x1="711.5" x2="711.5" y1="111.8419" y2="1829.0848"/><line style="stroke:#181818;stroke-width:0.5;stroke-dasharray:5.0,5.0;" x1="791.5" x2="791.5" y1="111.8419" y2="1829.0848"/><line style="stroke:#181818;stroke-width:0.5;stroke-dasharray:5.0,5.0;" x1="868.5" x2="868.5" y1="111.8419" y2="1829.0848"/><line style="stroke:#181818;stroke-width:0.5;stroke-dasharray:5.0,5.0;" x1="997.5" x2="997.5" y1="111.8419" y2="1829.0848"/><line style="stroke:#181818;stroke-width:0.5;stroke-dasharray:5.0,5.0;" x1="1194" x2="1194" y1="111.8419" y2="1829.0848"/><line style="stroke:#181818;stroke-width:0.5;stroke-dasharray:5.0,5.0;" x1="1302" x2="1302" y1="111.8419" y2="1829.0848"/><line style="stroke:#181818;stroke-width:0.5;stroke-dasharray:5.0,5.0;" x1="1476" x2="1476" y1="111.8419" y2="1829.0848"/><line style="stroke:#181818;stroke-width:0.5;stroke-dasharray:5.0,5.0;" x1="1578" x2="1578" y1="111.8419" y2="1829.0848"/><line style="stroke:#181818;stroke-width:0.5;stroke-dasharray:5.0,5.0;" x1="1724.5" x2="1724.5" y1="111.8419" y2="1829.0848"/><rect fill="#E2E2F0" height="52.1358" rx="2.5" ry="2.5" style="stroke:#181818;stroke-width:0.5;" width="104" x="5" y="58.706"/><text fill="#000000" font-family="sans-serif" font-size="14" lengthAdjust="spacing" textLength="90" x="12" y="80.672">TriggeringBB</text><text fill="#000000" font-family="sans-serif" font-size="14" lengthAdjust="spacing" textLength="89" x="12.5" y="99.7399">/w Connector</text><rect fill="#E2E2F0" height="52.1358" rx="2.5" ry="2.5" style="stroke:#181818;stroke-width:0.5;" width="104" x="5" y="1828.0848"/><text fill="#000000" font-family="sans-serif" font-size="14" lengthAdjust="spacing" textLength="90" x="12" y="1850.0507">TriggeringBB</text><text fill="#000000" font-family="sans-serif" font-size="14" lengthAdjust="spacing" textLength="89" x="12.5" y="1869.1186">/w Connector</text><text fill="#000000" font-family="sans-serif" font-size="14" lengthAdjust="spacing" textLength="58" x="119" y="88.672">Function</text><text fill="#000000" font-family="sans-serif" font-size="14" lengthAdjust="spacing" textLength="56" x="120" y="107.7399">Provider</text><path d="M133,37.706 C133,27.706 151,27.706 151,27.706 C151,27.706 169,27.706 169,37.706 L169,63.706 C169,73.706 151,73.706 151,73.706 C151,73.706 133,73.706 133,63.706 L133,37.706 " fill="#E2E2F0" style="stroke:#181818;stroke-width:1.5;"/><path d="M133,37.706 C133,47.706 151,47.706 151,47.706 C151,47.706 169,47.706 169,37.706 " fill="none" style="stroke:#181818;stroke-width:1.5;"/><text fill="#000000" font-family="sans-serif" font-size="14" lengthAdjust="spacing" textLength="58" x="119" y="1843.0507">Function</text><text fill="#000000" font-family="sans-serif" font-size="14" lengthAdjust="spacing" textLength="56" x="120" y="1862.1186">Provider</text><path d="M133,1876.2206 C133,1866.2206 151,1866.2206 151,1866.2206 C151,1866.2206 169,1866.2206 169,1876.2206 L169,1902.2206 C169,1912.2206 151,1912.2206 151,1912.2206 C151,1912.2206 133,1912.2206 133,1902.2206 L133,1876.2206 " fill="#E2E2F0" style="stroke:#181818;stroke-width:1.5;"/><path d="M133,1876.2206 C133,1886.2206 151,1886.2206 151,1886.2206 C151,1886.2206 169,1886.2206 169,1876.2206 " fill="none" style="stroke:#181818;stroke-width:1.5;"/><rect fill="#E2E2F0" height="33.0679" rx="2.5" ry="2.5" style="stroke:#181818;stroke-width:0.5;" width="98" x="203" y="77.7739"/><text fill="#000000" font-family="sans-serif" font-size="14" lengthAdjust="spacing" textLength="84" x="210" y="99.7399">ConnectorFP</text><rect fill="#E2E2F0" height="33.0679" rx="2.5" ry="2.5" style="stroke:#181818;stroke-width:0.5;" width="98" x="203" y="1828.0848"/><text fill="#000000" font-family="sans-serif" font-size="14" lengthAdjust="spacing" textLength="84" x="210" y="1850.0507">ConnectorFP</text><text fill="#000000" font-family="sans-serif" font-size="14" lengthAdjust="spacing" textLength="31" x="323.5" y="88.672">Data</text><text fill="#000000" font-family="sans-serif" font-size="14" lengthAdjust="spacing" textLength="56" x="311" y="107.7399">Provider</text><path d="M324,37.706 C324,27.706 342,27.706 342,27.706 C342,27.706 360,27.706 360,37.706 L360,63.706 C360,73.706 342,73.706 342,73.706 C342,73.706 324,73.706 324,63.706 L324,37.706 " fill="#E2E2F0" style="stroke:#181818;stroke-width:1.5;"/><path d="M324,37.706 C324,47.706 342,47.706 342,47.706 C342,47.706 360,47.706 360,37.706 " fill="none" style="stroke:#181818;stroke-width:1.5;"/><text fill="#000000" font-family="sans-serif" font-size="14" lengthAdjust="spacing" textLength="31" x="323.5" y="1843.0507">Data</text><text fill="#000000" font-family="sans-serif" font-size="14" lengthAdjust="spacing" textLength="56" x="311" y="1862.1186">Provider</text><path d="M324,1876.2206 C324,1866.2206 342,1866.2206 342,1866.2206 C342,1866.2206 360,1866.2206 360,1876.2206 L360,1902.2206 C360,1912.2206 342,1912.2206 342,1912.2206 C342,1912.2206 324,1912.2206 324,1902.2206 L324,1876.2206 " fill="#E2E2F0" style="stroke:#181818;stroke-width:1.5;"/><path d="M324,1876.2206 C324,1886.2206 342,1886.2206 342,1886.2206 C342,1886.2206 360,1886.2206 360,1876.2206 " fill="none" style="stroke:#181818;stroke-width:1.5;"/><rect fill="#E2E2F0" height="33.0679" rx="2.5" ry="2.5" style="stroke:#181818;stroke-width:0.5;" width="101" x="409.5" y="77.7739"/><text fill="#000000" font-family="sans-serif" font-size="14" lengthAdjust="spacing" textLength="87" x="416.5" y="99.7399">ConnectorDP</text><rect fill="#E2E2F0" height="33.0679" rx="2.5" ry="2.5" style="stroke:#181818;stroke-width:0.5;" width="101" x="409.5" y="1828.0848"/><text fill="#000000" font-family="sans-serif" font-size="14" lengthAdjust="spacing" textLength="87" x="416.5" y="1850.0507">ConnectorDP</text><rect fill="#E2E2F0" height="33.0679" rx="2.5" ry="2.5" style="stroke:#181818;stroke-width:0.5;" width="65" x="520.5" y="77.7739"/><text fill="#000000" font-family="sans-serif" font-size="14" lengthAdjust="spacing" textLength="51" x="527.5" y="99.7399">Catalog</text><rect fill="#E2E2F0" height="33.0679" rx="2.5" ry="2.5" style="stroke:#181818;stroke-width:0.5;" width="65" x="520.5" y="1828.0848"/><text fill="#000000" font-family="sans-serif" font-size="14" lengthAdjust="spacing" textLength="51" x="527.5" y="1850.0507">Catalog</text><rect fill="#E2E2F0" height="33.0679" rx="2.5" ry="2.5" style="stroke:#181818;stroke-width:0.5;" width="69" x="677.5" y="77.7739"/><text fill="#000000" font-family="sans-serif" font-size="14" lengthAdjust="spacing" textLength="55" x="684.5" y="99.7399">Consent</text><rect fill="#E2E2F0" height="33.0679" rx="2.5" ry="2.5" style="stroke:#181818;stroke-width:0.5;" width="69" x="677.5" y="1828.0848"/><text fill="#000000" font-family="sans-serif" font-size="14" lengthAdjust="spacing" textLength="55" x="684.5" y="1850.0507">Consent</text><rect fill="#E2E2F0" height="33.0679" rx="2.5" ry="2.5" style="stroke:#181818;stroke-width:0.5;" width="71" x="756.5" y="77.7739"/><text fill="#000000" font-family="sans-serif" font-size="14" lengthAdjust="spacing" textLength="57" x="763.5" y="99.7399">Contract</text><rect fill="#E2E2F0" height="33.0679" rx="2.5" ry="2.5" style="stroke:#181818;stroke-width:0.5;" width="71" x="756.5" y="1828.0848"/><text fill="#000000" font-family="sans-serif" font-size="14" lengthAdjust="spacing" textLength="57" x="763.5" y="1850.0507">Contract</text><text fill="#000000" font-family="sans-serif" font-size="14" lengthAdjust="spacing" textLength="56" x="837.5" y="107.7399">EdgeAPI</text><path d="M848,64.7739 L848,88.7739 M848,76.7739 L865,76.7739 " fill="none" style="stroke:#181818;stroke-width:0.5;"/><ellipse cx="877" cy="76.7739" fill="#E2E2F0" rx="12" ry="12" style="stroke:#181818;stroke-width:0.5;"/><text fill="#000000" font-family="sans-serif" font-size="14" lengthAdjust="spacing" textLength="56" x="837.5" y="1843.0507">EdgeAPI</text><path d="M848,1851.1527 L848,1875.1527 M848,1863.1527 L865,1863.1527 " fill="none" style="stroke:#181818;stroke-width:0.5;"/><ellipse cx="877" cy="1863.1527" fill="#E2E2F0" rx="12" ry="12" style="stroke:#181818;stroke-width:0.5;"/><rect fill="#E2E2F0" height="33.0679" rx="2.5" ry="2.5" style="stroke:#181818;stroke-width:0.5;" width="117" x="939.5" y="77.7739"/><text fill="#000000" font-family="sans-serif" font-size="14" lengthAdjust="spacing" textLength="103" x="946.5" y="99.7399">ConnectorEdge</text><rect fill="#E2E2F0" height="33.0679" rx="2.5" ry="2.5" style="stroke:#181818;stroke-width:0.5;" width="117" x="939.5" y="1828.0848"/><text fill="#000000" font-family="sans-serif" font-size="14" lengthAdjust="spacing" textLength="103" x="946.5" y="1850.0507">ConnectorEdge</text><rect fill="#E2E2F0" height="33.0679" rx="2.5" ry="2.5" style="stroke:#181818;stroke-width:0.5;" width="122" x="1133" y="77.7739"/><text fill="#000000" font-family="sans-serif" font-size="14" lengthAdjust="spacing" textLength="108" x="1140" y="99.7399">PrivacyZoneMgr</text><rect fill="#E2E2F0" height="33.0679" rx="2.5" ry="2.5" style="stroke:#181818;stroke-width:0.5;" width="122" x="1133" y="1828.0848"/><text fill="#000000" font-family="sans-serif" font-size="14" lengthAdjust="spacing" textLength="108" x="1140" y="1850.0507">PrivacyZoneMgr</text><text fill="#000000" font-family="sans-serif" font-size="14" lengthAdjust="spacing" textLength="68" x="1265" y="107.7399">Scheduler</text><ellipse cx="1302" cy="76.7739" fill="#E2E2F0" rx="12" ry="12" style="stroke:#181818;stroke-width:0.5;"/><polygon fill="#181818" points="1298,64.7739,1304,59.7739,1302,64.7739,1304,69.7739,1298,64.7739" style="stroke:#181818;stroke-width:1.0;"/><text fill="#000000" font-family="sans-serif" font-size="14" lengthAdjust="spacing" textLength="68" x="1265" y="1843.0507">Scheduler</text><ellipse cx="1302" cy="1863.1527" fill="#E2E2F0" rx="12" ry="12" style="stroke:#181818;stroke-width:0.5;"/><polygon fill="#181818" points="1298,1851.1527,1304,1846.1527,1302,1851.1527,1304,1856.1527,1298,1851.1527" style="stroke:#181818;stroke-width:1.0;"/><rect fill="#E2E2F0" height="33.0679" rx="2.5" ry="2.5" style="stroke:#181818;stroke-width:0.5;" width="112" x="1420" y="77.7739"/><text fill="#000000" font-family="sans-serif" font-size="14" lengthAdjust="spacing" textLength="98" x="1427" y="99.7399">ArtifactBuilder</text><rect fill="#E2E2F0" height="33.0679" rx="2.5" ry="2.5" style="stroke:#181818;stroke-width:0.5;" width="112" x="1420" y="1828.0848"/><text fill="#000000" font-family="sans-serif" font-size="14" lengthAdjust="spacing" textLength="98" x="1427" y="1850.0507">ArtifactBuilder</text><rect fill="#E2E2F0" height="33.0679" rx="2.5" ry="2.5" style="stroke:#181818;stroke-width:0.5;" width="73" x="1542" y="77.7739"/><text fill="#000000" font-family="sans-serif" font-size="14" lengthAdjust="spacing" textLength="59" x="1549" y="99.7399">Wrapper</text><rect fill="#E2E2F0" height="33.0679" rx="2.5" ry="2.5" style="stroke:#181818;stroke-width:0.5;" width="73" x="1542" y="1828.0848"/><text fill="#000000" font-family="sans-serif" font-size="14" lengthAdjust="spacing" textLength="59" x="1549" y="1850.0507">Wrapper</text><rect fill="#E2E2F0" height="33.0679" rx="2.5" ry="2.5" style="stroke:#181818;stroke-width:0.5;" width="98" x="1675.5" y="77.7739"/><text fill="#000000" font-family="sans-serif" font-size="14" lengthAdjust="spacing" textLength="84" x="1682.5" y="99.7399">WorkerNode</text><rect fill="#E2E2F0" height="33.0679" rx="2.5" ry="2.5" style="stroke:#181818;stroke-width:0.5;" width="98" x="1675.5" y="1828.0848"/><text fill="#000000" font-family="sans-serif" font-size="14" lengthAdjust="spacing" textLength="84" x="1682.5" y="1850.0507">WorkerNode</text><rect fill="#FFFFFF" height="428.8842" style="stroke:#181818;stroke-width:1.0;" width="10" x="1573.5" y="1350.4945"/><polygon fill="#FEFFDD" points="25,126.8419,822,126.8419,832,138.8419,822,151.8419,25,151.8419,15,138.8419,25,126.8419" style="stroke:#181818;stroke-width:0.5;"/><text fill="#000000" font-family="sans-serif" font-size="13" lengthAdjust="spacing" textLength="187" x="330.25" y="144.7389">Gathering Contracts &amp; Consent</text><polygon fill="#181818" points="856.5,177.2539,866.5,181.2539,856.5,185.2539,860.5,181.2539" style="stroke:#181818;stroke-width:1.0;"/><line style="stroke:#181818;stroke-width:1.0;" x1="57" x2="862.5" y1="181.2539" y2="181.2539"/><text fill="#000000" font-family="sans-serif" font-size="13" lengthAdjust="spacing" textLength="655" x="64" y="175.4449">requestEdgeProc(Function F, PrivateData PD, Contract Cd, Contract Cf, Consent Cons(F on PD), AccessToken T)</text><polygon fill="#181818" points="564,208.9599,554,212.9599,564,216.9599,560,212.9599" style="stroke:#181818;stroke-width:1.0;"/><line style="stroke:#181818;stroke-width:1.0;" x1="558" x2="867.5" y1="212.9599" y2="212.9599"/><text fill="#000000" font-family="sans-serif" font-size="13" lengthAdjust="spacing" textLength="181" x="570" y="207.1509">getAccessInfo(PrivateData PD)</text><polygon fill="#181818" points="856.5,240.6659,866.5,244.6659,856.5,248.6659,860.5,244.6659" style="stroke:#181818;stroke-width:1.0;"/><line style="stroke:#181818;stroke-width:1.0;" x1="553" x2="862.5" y1="244.6659" y2="244.6659"/><text fill="#000000" font-family="sans-serif" font-size="13" lengthAdjust="spacing" textLength="277" x="560" y="238.8569">ID of DataProvider, AccessInfo of its Connector</text><rect fill="#EEEEEE" height="3" style="stroke:#EEEEEE;stroke-width:1.0;" width="1778.5" x="0" y="274.5189"/><line style="stroke:#000000;stroke-width:1.0;" x1="0" x2="1778.5" y1="274.5189" y2="274.5189"/><line style="stroke:#000000;stroke-width:1.0;" x1="0" x2="1778.5" y1="277.5189" y2="277.5189"/><rect fill="#EEEEEE" height="25.706" style="stroke:#000000;stroke-width:2.0;" width="205" x="786.75" y="262.6659"/><text fill="#000000" font-family="sans-serif" font-size="13" font-weight="bold" lengthAdjust="spacing" textLength="188" x="792.75" y="280.5629">Gathering Privacy Zone Data</text><polygon fill="#181818" points="1182,335.784,1192,339.784,1182,343.784,1186,339.784" style="stroke:#181818;stroke-width:1.0;"/><line style="stroke:#181818;stroke-width:1.0;" x1="868.5" x2="1188" y1="339.784" y2="339.784"/><text fill="#000000" font-family="sans-serif" font-size="13" lengthAdjust="spacing" textLength="169" x="875.5" y="316.2689">getPZData(DataProvider DP,</text><text fill="#000000" font-family="sans-serif" font-size="13" lengthAdjust="spacing" textLength="94" x="875.5" y="333.975">PrivateData PD)</text><polygon fill="#181818" points="1009,385.196,999,389.196,1009,393.196,1005,389.196" style="stroke:#181818;stroke-width:1.0;"/><line style="stroke:#181818;stroke-width:1.0;" x1="1003" x2="1193" y1="389.196" y2="389.196"/><text fill="#000000" font-family="sans-serif" font-size="13" lengthAdjust="spacing" textLength="169" x="1015" y="365.681">getPZData(DataProvider DP,</text><text fill="#000000" font-family="sans-serif" font-size="13" lengthAdjust="spacing" textLength="94" x="1015" y="383.387">PrivateData PD)</text><polygon fill="#181818" points="471,416.902,461,420.902,471,424.902,467,420.902" style="stroke:#181818;stroke-width:1.0;"/><line style="stroke:#181818;stroke-width:1.0;" x1="465" x2="997" y1="420.902" y2="420.902"/><text fill="#000000" font-family="sans-serif" font-size="13" lengthAdjust="spacing" textLength="266" x="477" y="415.093">getPZData(DataProvider DP, PrivateData PD)</text><polygon fill="#181818" points="780,466.314,790,470.314,780,474.314,784,470.314" style="stroke:#181818;stroke-width:1.0;"/><line style="stroke:#181818;stroke-width:1.0;" x1="460" x2="786" y1="470.314" y2="470.314"/><text fill="#000000" font-family="sans-serif" font-size="13" lengthAdjust="spacing" textLength="280" x="467" y="446.799">verify contracts (DataProvider, CloudProviders)</text><text fill="#000000" font-family="sans-serif" font-size="13" lengthAdjust="spacing" textLength="303" x="467" y="464.505">get list of contracted CPs, other privacy constraints</text><polygon fill="#181818" points="471,498.0201,461,502.0201,471,506.0201,467,502.0201" style="stroke:#181818;stroke-width:1.0;"/><line style="stroke:#181818;stroke-width:1.0;" x1="465" x2="791" y1="502.0201" y2="502.0201"/><text fill="#000000" font-family="sans-serif" font-size="13" lengthAdjust="spacing" textLength="259" x="477" y="496.2111">OK, list of CPs and other privacy constraints</text><polygon fill="#181818" points="986,529.7261,996,533.7261,986,537.7261,990,533.7261" style="stroke:#181818;stroke-width:1.0;"/><line style="stroke:#181818;stroke-width:1.0;" x1="460" x2="992" y1="533.7261" y2="533.7261"/><text fill="#000000" font-family="sans-serif" font-size="13" lengthAdjust="spacing" textLength="368" x="467" y="527.9171">PrivacyZoneData PZData (of DataProvider DP, PrivateData PD)</text><polygon fill="#181818" points="1182,561.4321,1192,565.4321,1182,569.4321,1186,565.4321" style="stroke:#181818;stroke-width:1.0;"/><line style="stroke:#181818;stroke-width:1.0;" x1="998" x2="1188" y1="565.4321" y2="565.4321"/><text fill="#000000" font-family="sans-serif" font-size="13" lengthAdjust="spacing" textLength="147" x="1005" y="559.6231">PrivacyZoneData PZData</text><polygon fill="#181818" points="879.5,593.1381,869.5,597.1381,879.5,601.1381,875.5,597.1381" style="stroke:#181818;stroke-width:1.0;"/><line style="stroke:#181818;stroke-width:1.0;" x1="873.5" x2="1193" y1="597.1381" y2="597.1381"/><text fill="#000000" font-family="sans-serif" font-size="13" lengthAdjust="spacing" textLength="147" x="885.5" y="591.3291">PrivacyZoneData PZData</text><rect fill="#EEEEEE" height="3" style="stroke:#EEEEEE;stroke-width:1.0;" width="1778.5" x="0" y="626.9911"/><line style="stroke:#000000;stroke-width:1.0;" x1="0" x2="1778.5" y1="626.9911" y2="626.9911"/><line style="stroke:#000000;stroke-width:1.0;" x1="0" x2="1778.5" y1="629.9911" y2="629.9911"/><rect fill="#EEEEEE" height="25.706" style="stroke:#000000;stroke-width:2.0;" width="223" x="777.75" y="615.1381"/><text fill="#000000" font-family="sans-serif" font-size="13" font-weight="bold" lengthAdjust="spacing" textLength="206" x="783.75" y="633.0351">Building and Deploying Artifact</text><polygon fill="#181818" points="1290,723.6682,1300,727.6682,1290,731.6682,1294,727.6682" style="stroke:#181818;stroke-width:1.0;"/><line style="stroke:#181818;stroke-width:1.0;" x1="868.5" x2="1296" y1="727.6682" y2="727.6682"/><text fill="#000000" font-family="sans-serif" font-size="13" lengthAdjust="spacing" textLength="269" x="875.5" y="668.7411">requestEdgeProc(Function F, PrivateData PD,</text><text fill="#000000" font-family="sans-serif" font-size="13" lengthAdjust="spacing" textLength="147" x="875.5" y="686.4472">Contract Cd, Contract Cf,</text><text fill="#000000" font-family="sans-serif" font-size="13" lengthAdjust="spacing" textLength="232" x="875.5" y="704.1532">Consent Cons(F on PD), AccessToken T,</text><text fill="#000000" font-family="sans-serif" font-size="13" lengthAdjust="spacing" textLength="151" x="875.5" y="721.8592">PrivacyZoneData PZData)</text><polygon fill="#181818" points="1464,826.1983,1474,830.1983,1464,834.1983,1468,830.1983" style="stroke:#181818;stroke-width:1.0;"/><line style="stroke:#181818;stroke-width:1.0;" x1="1302" x2="1470" y1="830.1983" y2="830.1983"/><text fill="#000000" font-family="sans-serif" font-size="13" lengthAdjust="spacing" textLength="143" x="1309" y="753.5652">buildArtifact(Function F,</text><text fill="#000000" font-family="sans-serif" font-size="13" lengthAdjust="spacing" textLength="93" x="1309" y="771.2712">PrivateData PD,</text><text fill="#000000" font-family="sans-serif" font-size="13" lengthAdjust="spacing" textLength="147" x="1309" y="788.9772">Contract Cd, Contract Cf,</text><text fill="#000000" font-family="sans-serif" font-size="13" lengthAdjust="spacing" textLength="140" x="1309" y="806.6833">Consent Cons(F on PD),</text><text fill="#000000" font-family="sans-serif" font-size="13" lengthAdjust="spacing" textLength="90" x="1309" y="824.3893">AccessToken T)</text><polygon fill="#181818" points="1009,857.9043,999,861.9043,1009,865.9043,1005,861.9043" style="stroke:#181818;stroke-width:1.0;"/><line style="stroke:#181818;stroke-width:1.0;" x1="1003" x2="1475" y1="861.9043" y2="861.9043"/><text fill="#000000" font-family="sans-serif" font-size="13" lengthAdjust="spacing" textLength="170" x="1015" y="856.0953">requestFunction(Function F)</text><polygon fill="#181818" points="564,889.6103,554,893.6103,564,897.6103,560,893.6103" style="stroke:#181818;stroke-width:1.0;"/><line style="stroke:#181818;stroke-width:1.0;" x1="558" x2="997" y1="893.6103" y2="893.6103"/><text fill="#000000" font-family="sans-serif" font-size="13" lengthAdjust="spacing" textLength="154" x="570" y="887.8013">getAccessInfo(Function F)</text><polygon fill="#181818" points="986,921.3163,996,925.3163,986,929.3163,990,925.3163" style="stroke:#181818;stroke-width:1.0;"/><line style="stroke:#181818;stroke-width:1.0;" x1="553" x2="992" y1="925.3163" y2="925.3163"/><text fill="#000000" font-family="sans-serif" font-size="13" lengthAdjust="spacing" textLength="302" x="560" y="919.5073">ID of FunctionProvider, AccessInfo of its Connector</text><polygon fill="#181818" points="263,953.0223,253,957.0223,263,961.0223,259,957.0223" style="stroke:#181818;stroke-width:1.0;"/><line style="stroke:#181818;stroke-width:1.0;" x1="257" x2="997" y1="957.0223" y2="957.0223"/><text fill="#000000" font-family="sans-serif" font-size="13" lengthAdjust="spacing" textLength="243" x="269" y="951.2133">requestFunction(Function F, Contract Cf)</text><polygon fill="#181818" points="780,984.7284,790,988.7284,780,992.7284,784,988.7284" style="stroke:#181818;stroke-width:1.0;"/><line style="stroke:#181818;stroke-width:1.0;" x1="252" x2="786" y1="988.7284" y2="988.7284"/><text fill="#000000" font-family="sans-serif" font-size="13" lengthAdjust="spacing" textLength="160" x="259" y="982.9194">verifyContract(Contract Cf)</text><polygon fill="#181818" points="263,1016.4344,253,1020.4344,263,1024.4344,259,1020.4344" style="stroke:#181818;stroke-width:1.0;"/><line style="stroke:#181818;stroke-width:1.0;" x1="257" x2="791" y1="1020.4344" y2="1020.4344"/><text fill="#000000" font-family="sans-serif" font-size="13" lengthAdjust="spacing" textLength="18" x="269" y="1014.6254">OK</text><polygon fill="#181818" points="162,1065.8464,152,1069.8464,162,1073.8464,158,1069.8464" style="stroke:#181818;stroke-width:1.0;"/><line style="stroke:#181818;stroke-width:1.0;" x1="156" x2="251" y1="1069.8464" y2="1069.8464"/><text fill="#000000" font-family="sans-serif" font-size="13" lengthAdjust="spacing" textLength="77" x="168" y="1046.3314">getFunction(</text><text fill="#000000" font-family="sans-serif" font-size="13" lengthAdjust="spacing" textLength="67" x="168" y="1064.0374">Function F)</text><polygon fill="#181818" points="240,1097.5524,250,1101.5524,240,1105.5524,244,1101.5524" style="stroke:#181818;stroke-width:1.0;"/><line style="stroke:#181818;stroke-width:1.0;" x1="151" x2="246" y1="1101.5524" y2="1101.5524"/><text fill="#000000" font-family="sans-serif" font-size="13" lengthAdjust="spacing" textLength="57" x="158" y="1095.7434">function f</text><polygon fill="#181818" points="986,1129.2584,996,1133.2584,986,1137.2584,990,1133.2584" style="stroke:#181818;stroke-width:1.0;"/><line style="stroke:#181818;stroke-width:1.0;" x1="252" x2="992" y1="1133.2584" y2="1133.2584"/><text fill="#000000" font-family="sans-serif" font-size="13" lengthAdjust="spacing" textLength="57" x="259" y="1127.4494">function f</text><polygon fill="#181818" points="1464,1160.9645,1474,1164.9645,1464,1168.9645,1468,1164.9645" style="stroke:#181818;stroke-width:1.0;"/><line style="stroke:#181818;stroke-width:1.0;" x1="998" x2="1470" y1="1164.9645" y2="1164.9645"/><text fill="#000000" font-family="sans-serif" font-size="13" lengthAdjust="spacing" textLength="57" x="1005" y="1159.1555">function f</text><polygon fill="#181818" points="1313,1192.6705,1303,1196.6705,1313,1200.6705,1309,1196.6705" style="stroke:#181818;stroke-width:1.0;"/><line style="stroke:#181818;stroke-width:1.0;" x1="1307" x2="1475" y1="1196.6705" y2="1196.6705"/><text fill="#000000" font-family="sans-serif" font-size="13" lengthAdjust="spacing" textLength="91" x="1319" y="1190.8615">done, Artifact A</text><line style="stroke:#181818;stroke-width:1.0;" x1="1302" x2="1344" y1="1228.3765" y2="1228.3765"/><line style="stroke:#181818;stroke-width:1.0;" x1="1344" x2="1344" y1="1228.3765" y2="1241.3765"/><line style="stroke:#181818;stroke-width:1.0;" x1="1303" x2="1344" y1="1241.3765" y2="1241.3765"/><polygon fill="#181818" points="1313,1237.3765,1303,1241.3765,1313,1245.3765,1309,1241.3765" style="stroke:#181818;stroke-width:1.0;"/><text fill="#000000" font-family="sans-serif" font-size="13" lengthAdjust="spacing" textLength="115" x="1309" y="1222.5675">schedule(Artifact A)</text><polygon fill="#181818" points="1712.5,1269.0825,1722.5,1273.0825,1712.5,1277.0825,1716.5,1273.0825" style="stroke:#181818;stroke-width:1.0;"/><line style="stroke:#181818;stroke-width:1.0;" x1="1302" x2="1718.5" y1="1273.0825" y2="1273.0825"/><text fill="#000000" font-family="sans-serif" font-size="13" lengthAdjust="spacing" textLength="146" x="1309" y="1267.2735">deployArtifact(Artifact A)</text><rect fill="#EEEEEE" height="3" style="stroke:#EEEEEE;stroke-width:1.0;" width="1778.5" x="0" y="1302.9355"/><line style="stroke:#000000;stroke-width:1.0;" x1="0" x2="1778.5" y1="1302.9355" y2="1302.9355"/><line style="stroke:#000000;stroke-width:1.0;" x1="0" x2="1778.5" y1="1305.9355" y2="1305.9355"/><rect fill="#EEEEEE" height="25.706" style="stroke:#000000;stroke-width:2.0;" width="276" x="751.25" y="1291.0825"/><text fill="#000000" font-family="sans-serif" font-size="13" font-weight="bold" lengthAdjust="spacing" textLength="259" x="757.25" y="1308.9795">Executing the Function on Private Data</text><polygon fill="#181818" points="1594.5,1346.4945,1584.5,1350.4945,1594.5,1354.4945,1590.5,1350.4945" style="stroke:#181818;stroke-width:1.0;"/><line style="stroke:#181818;stroke-width:1.0;" x1="1588.5" x2="1723.5" y1="1350.4945" y2="1350.4945"/><text fill="#000000" font-family="sans-serif" font-size="13" lengthAdjust="spacing" textLength="81" x="1600.5" y="1344.6855">init(Artifact A)</text><polygon fill="#181818" points="1009,1395.9066,999,1399.9066,1009,1403.9066,1005,1399.9066" style="stroke:#181818;stroke-width:1.0;"/><line style="stroke:#181818;stroke-width:1.0;" x1="1003" x2="1572.5" y1="1399.9066" y2="1399.9066"/><text fill="#000000" font-family="sans-serif" font-size="13" lengthAdjust="spacing" textLength="293" x="1015" y="1376.3916">requestData/wPrivacyPreserving(PrivateData PD,</text><text fill="#000000" font-family="sans-serif" font-size="13" lengthAdjust="spacing" textLength="310" x="1015" y="1394.0976">Contract Cd, Consent Cons(F on PD), AccessToken T)</text><polygon fill="#181818" points="471,1427.6126,461,1431.6126,471,1435.6126,467,1431.6126" style="stroke:#181818;stroke-width:1.0;"/><line style="stroke:#181818;stroke-width:1.0;" x1="465" x2="997" y1="1431.6126" y2="1431.6126"/><text fill="#000000" font-family="sans-serif" font-size="13" lengthAdjust="spacing" textLength="514" x="477" y="1425.8036">requestData/wPrivacyPreserving(PrivateData PD, Contract Cd, Consent Cons(F on PD))</text><polygon fill="#181818" points="780,1459.3186,790,1463.3186,780,1467.3186,784,1463.3186" style="stroke:#181818;stroke-width:1.0;"/><line style="stroke:#181818;stroke-width:1.0;" x1="460" x2="786" y1="1463.3186" y2="1463.3186"/><text fill="#000000" font-family="sans-serif" font-size="13" lengthAdjust="spacing" textLength="164" x="467" y="1457.5096">verifyContract(Contract Cd)</text><polygon fill="#181818" points="471,1491.0246,461,1495.0246,471,1499.0246,467,1495.0246" style="stroke:#181818;stroke-width:1.0;"/><line style="stroke:#181818;stroke-width:1.0;" x1="465" x2="791" y1="1495.0246" y2="1495.0246"/><text fill="#000000" font-family="sans-serif" font-size="13" lengthAdjust="spacing" textLength="18" x="477" y="1489.2156">OK</text><polygon fill="#181818" points="700,1522.7306,710,1526.7306,700,1530.7306,704,1526.7306" style="stroke:#181818;stroke-width:1.0;"/><line style="stroke:#181818;stroke-width:1.0;" x1="460" x2="706" y1="1526.7306" y2="1526.7306"/><text fill="#000000" font-family="sans-serif" font-size="13" lengthAdjust="spacing" textLength="228" x="467" y="1520.9216">verifyConsent(Consent Cons(F on PD))</text><polygon fill="#181818" points="471,1554.4367,461,1558.4367,471,1562.4367,467,1558.4367" style="stroke:#181818;stroke-width:1.0;"/><line style="stroke:#181818;stroke-width:1.0;" x1="465" x2="711" y1="1558.4367" y2="1558.4367"/><text fill="#000000" font-family="sans-serif" font-size="13" lengthAdjust="spacing" textLength="18" x="477" y="1552.6277">OK</text><polygon fill="#181818" points="353,1603.8487,343,1607.8487,353,1611.8487,349,1607.8487" style="stroke:#181818;stroke-width:1.0;"/><line style="stroke:#181818;stroke-width:1.0;" x1="347" x2="459" y1="1607.8487" y2="1607.8487"/><text fill="#000000" font-family="sans-serif" font-size="13" lengthAdjust="spacing" textLength="52" x="359" y="1584.3337">getData(</text><text fill="#000000" font-family="sans-serif" font-size="13" lengthAdjust="spacing" textLength="94" x="359" y="1602.0397">PrivateData PD)</text><polygon fill="#181818" points="448,1635.5547,458,1639.5547,448,1643.5547,452,1639.5547" style="stroke:#181818;stroke-width:1.0;"/><line style="stroke:#181818;stroke-width:1.0;" x1="342" x2="454" y1="1639.5547" y2="1639.5547"/><text fill="#000000" font-family="sans-serif" font-size="13" lengthAdjust="spacing" textLength="54" x="349" y="1633.7457">pdata pd</text><polygon fill="#181818" points="986,1667.2607,996,1671.2607,986,1675.2607,990,1671.2607" style="stroke:#181818;stroke-width:1.0;"/><line style="stroke:#181818;stroke-width:1.0;" x1="460" x2="992" y1="1671.2607" y2="1671.2607"/><text fill="#000000" font-family="sans-serif" font-size="13" lengthAdjust="spacing" textLength="314" x="467" y="1665.4517">pdata pd (privacy preserving sending of PrivateData)</text><polygon fill="#181818" points="1561.5,1698.9667,1571.5,1702.9667,1561.5,1706.9667,1565.5,1702.9667" style="stroke:#181818;stroke-width:1.0;"/><line style="stroke:#181818;stroke-width:1.0;" x1="998" x2="1567.5" y1="1702.9667" y2="1702.9667"/><text fill="#000000" font-family="sans-serif" font-size="13" lengthAdjust="spacing" textLength="314" x="1005" y="1697.1577">pdata pd (privacy preserving sending of PrivateData)</text><line style="stroke:#181818;stroke-width:1.0;" x1="1583.5" x2="1625.5" y1="1734.6728" y2="1734.6728"/><line style="stroke:#181818;stroke-width:1.0;" x1="1625.5" x2="1625.5" y1="1734.6728" y2="1747.6728"/><line style="stroke:#181818;stroke-width:1.0;" x1="1584.5" x2="1625.5" y1="1747.6728" y2="1747.6728"/><polygon fill="#181818" points="1594.5,1743.6728,1584.5,1747.6728,1594.5,1751.6728,1590.5,1747.6728" style="stroke:#181818;stroke-width:1.0;"/><text fill="#000000" font-family="sans-serif" font-size="13" lengthAdjust="spacing" textLength="112" x="1590.5" y="1728.8638">execute(function f)</text><polygon fill="#181818" points="879.5,1775.3788,869.5,1779.3788,879.5,1783.3788,875.5,1779.3788" style="stroke:#181818;stroke-width:1.0;"/><line style="stroke:#181818;stroke-width:1.0;" x1="873.5" x2="1577.5" y1="1779.3788" y2="1779.3788"/><text fill="#000000" font-family="sans-serif" font-size="13" lengthAdjust="spacing" textLength="48" x="885.5" y="1773.5698">Result R</text><line style="stroke:#A80036;stroke-width:2.0;" x1="1569.5" x2="1587.5" y1="1770.3788" y2="1788.3788"/><line style="stroke:#A80036;stroke-width:2.0;" x1="1569.5" x2="1587.5" y1="1788.3788" y2="1770.3788"/><polygon fill="#181818" points="68,1807.0848,58,1811.0848,68,1815.0848,64,1811.0848" style="stroke:#181818;stroke-width:1.0;"/><line style="stroke:#181818;stroke-width:1.0;" x1="62" x2="867.5" y1="1811.0848" y2="1811.0848"/><text fill="#000000" font-family="sans-serif" font-size="13" lengthAdjust="spacing" textLength="48" x="74" y="1805.2758">Result R</text><!--SRC=[dLTTRzCm57tthxWQ4agb8XWmFYg1jAuKJNn5C0c4-f8cRXOHxE0us_hlkNPYntQIbi43RUtZSw-lpxdsjlmEJbQ9JE22ixhvJSK9FFWY4fPJ0lYlIeGiqg9Ac8IJAr7aEHK5ovVB3NjygzOmcagEYv8Qt6dW8gC2pWXb6Mpv7TdQG0cEh1kMoe8pY0M_AH1POzYFHNujtmjAcGwT8NYRr1HE37h335p7CyDci8jv-cIGkSrp7HlGMH13fHRmgw60- -a1xfNXVXhiEhxwWIX1dItkXpGOhEHvH_5iD4vDyRC5F1y5I96a1d7snC_YNPPJnFok6ead1CkbIMTPDkrPRtd3iaJiGK7FuykEwCM1FMlI3dOsWCMYk4dI_K_EwAVSbF1bIvUgR7a9tz9hcZMbhV2hORHp_Bh3ZIsRekoFulKG-5qaLUNeO0J1nIygFlFCP7rwsfU9N3CkSU86nrqjpsrf5_0-aTTws8xLyD2S3I6U1HwzjPLSWA1_6bfBDO2QIYFhWFMyhPEasXtngWy75vdxOpUt8b2VqHgKWLQpEPodAQthA_wBChYQ4HCL4p2oMa1EPGkxP3iU-I5dnE2yd2zNm7UU3KmenQ7c2jo-5GCXRzuu1UfE7zJnQnB0QJUtG1uwnVYdGaQUzLRn79Gr_Oo3rMgldYhlIUSlTjdGrmUv9fbmOSlJdjy2K5Z5RjzANoidycjxKV8cinrnji4cBA4iQgbARLRH32xYUWvSrHcghiWuM-DqmMHDRCJ1Bhvyc5i-9D6j-21Fi16llCu1j7lNzO4eaCpX6fbg3xGmpZvowhrS9vOeLUhMeKIfThoYLSdtwfVfBAXCLvXzJxgNRpTiqhXwwgXphIu7cvYHFYTCCEo82zYgRsROIpAKkXgPRZ2JYMvOq6J274OKqjNEPEEaDUQtYKxbBUgxL1YhxLNXa-18lves_Je-cBzNDMSpwt7Bcu4eN3NqwRhrQKWvUEleCjdCDimjqm0y2B0pwDr8xbvT7UImN4CTEl0HWRZ6ob3Xyzw1vxx2NMJTVOzwSE07vrf7OcrlwmLtaMe5x-vesZw1iF7r3r7z5jK-CNSLSLXLZEvniO225JujVhGhEmmns6bFg1YFRpkpnuBMLDnWJj7Hbl8Fr_-Hg-n-6S3n16Raw9qtOe1iTl2Y6g7KaHr6zJkQoCWC_mEpTrbfM-bxVlX4y803uahzBO7_asFtfW52P2xTobOVC6bzJs6lSiAFd6aln__YSnJQCr5j3Hhr9lQ0_KtxbTPDAU4hoL18Wk-jy9rBr7iAEql-0W00]--></g></svg>